<ttFont>
    <TTGlyph name="A" xMin="-31" yMin="-51" xMax="1393" yMax="1679">
      <contour>
        <pt x="969" y="358" on="1"/>
        <pt x="969" y="270" on="0"/>
        <pt x="978" y="168" on="0"/>
        <pt x="997" y="116" on="0"/>
        <pt x="1027" y="102" on="0"/>
        <pt x="1047" y="102" on="1"/>
        <pt x="1074" y="102" on="0"/>
        <pt x="1132" y="136" on="0"/>
        <pt x="1188" y="190" on="0"/>
        <pt x="1239" y="256" on="0"/>
        <pt x="1282" y="319" on="0"/>
        <pt x="1313" y="374" on="0"/>
        <pt x="1321" y="389" on="1"/>
        <pt x="1352" y="451" on="1"/>
        <pt x="1393" y="420" on="1"/>
        <pt x="1362" y="358" on="1"/>
        <pt x="1354" y="343" on="0"/>
        <pt x="1318" y="276" on="0"/>
        <pt x="1264" y="195" on="0"/>
        <pt x="1196" y="108" on="0"/>
        <pt x="1118" y="36" on="0"/>
        <pt x="1032" y="-10" on="0"/>
        <pt x="987" y="-10" on="1"/>
        <pt x="946" y="-10" on="0"/>
        <pt x="882" y="18" on="0"/>
        <pt x="838" y="89" on="0"/>
        <pt x="815" y="212" on="0"/>
        <pt x="815" y="307" on="1"/>
        <pt x="815" y="344" on="0"/>
        <pt x="818" y="411" on="0"/>
        <pt x="821" y="459" on="1"/>
        <pt x="770" y="360" on="0"/>
        <pt x="637" y="176" on="0"/>
        <pt x="485" y="34" on="0"/>
        <pt x="320" y="-51" on="0"/>
        <pt x="236" y="-51" on="1"/>
        <pt x="183" y="-51" on="0"/>
        <pt x="87" y="-13" on="0"/>
        <pt x="13" y="66" on="0"/>
        <pt x="-31" y="190" on="0"/>
        <pt x="-31" y="276" on="1"/>
        <pt x="-31" y="414" on="0"/>
        <pt x="30" y="680" on="0"/>
        <pt x="138" y="929" on="0"/>
        <pt x="284" y="1156" on="0"/>
        <pt x="452" y="1350" on="0"/>
        <pt x="636" y="1507" on="0"/>
        <pt x="820" y="1619" on="0"/>
        <pt x="995" y="1679" on="0"/>
        <pt x="1071" y="1679" on="1"/>
        <pt x="1155" y="1679" on="0"/>
        <pt x="1255" y="1594" on="0"/>
        <pt x="1255" y="1516" on="1"/>
        <pt x="1255" y="1464" on="0"/>
        <pt x="1214" y="1365" on="0"/>
        <pt x="1147" y="1274" on="0"/>
        <pt x="1062" y="1193" on="0"/>
        <pt x="976" y="1128" on="0"/>
        <pt x="895" y="1079" on="0"/>
        <pt x="866" y="1065" on="1"/>
        <pt x="836" y="1106" on="1"/>
        <pt x="861" y="1119" on="0"/>
        <pt x="926" y="1165" on="0"/>
        <pt x="992" y="1227" on="0"/>
        <pt x="1055" y="1302" on="0"/>
        <pt x="1105" y="1385" on="0"/>
        <pt x="1135" y="1474" on="0"/>
        <pt x="1135" y="1518" on="1"/>
        <pt x="1135" y="1561" on="0"/>
        <pt x="1090" y="1618" on="0"/>
        <pt x="1040" y="1618" on="1"/>
        <pt x="981" y="1618" on="0"/>
        <pt x="843" y="1557" on="0"/>
        <pt x="697" y="1445" on="0"/>
        <pt x="550" y="1290" on="0"/>
        <pt x="414" y="1103" on="0"/>
        <pt x="297" y="890" on="0"/>
        <pt x="210" y="661" on="0"/>
        <pt x="160" y="424" on="0"/>
        <pt x="160" y="307" on="1"/>
        <pt x="160" y="253" on="0"/>
        <pt x="176" y="162" on="0"/>
        <pt x="212" y="97" on="0"/>
        <pt x="270" y="61" on="0"/>
        <pt x="313" y="61" on="1"/>
        <pt x="367" y="61" on="0"/>
        <pt x="471" y="110" on="0"/>
        <pt x="569" y="194" on="0"/>
        <pt x="660" y="306" on="0"/>
        <pt x="740" y="434" on="0"/>
        <pt x="809" y="569" on="0"/>
        <pt x="836" y="635" on="1"/>
        <pt x="843" y="710" on="0"/>
        <pt x="861" y="847" on="0"/>
        <pt x="879" y="955" on="0"/>
        <pt x="895" y="1026" on="0"/>
        <pt x="901" y="1034" on="1"/>
        <pt x="905" y="1041" on="0"/>
        <pt x="931" y="1059" on="0"/>
        <pt x="964" y="1074" on="0"/>
        <pt x="998" y="1085" on="0"/>
        <pt x="1010" y="1085" on="1"/>
        <pt x="1040" y="1085" on="0"/>
        <pt x="1040" y="1055" on="1"/>
        <pt x="1040" y="1027" on="0"/>
        <pt x="1032" y="953" on="0"/>
        <pt x="1018" y="873" on="0"/>
        <pt x="999" y="792" on="0"/>
        <pt x="987" y="758" on="1"/>
        <pt x="979" y="649" on="0"/>
        <pt x="969" y="448" on="0"/>
      </contour>
    </TTGlyph>
    <TTGlyph name="AE" xMin="41" yMin="-51" xMax="2038" yMax="1679">
      <contour>
        <pt x="1536" y="1444" on="1"/>
        <pt x="1536" y="1484" on="0"/>
        <pt x="1496" y="1551" on="0"/>
        <pt x="1428" y="1598" on="0"/>
        <pt x="1341" y="1624" on="0"/>
        <pt x="1294" y="1624" on="1"/>
        <pt x="1240" y="1624" on="0"/>
        <pt x="1132" y="1586" on="0"/>
        <pt x="1046" y="1504" on="0"/>
        <pt x="993" y="1374" on="0"/>
        <pt x="993" y="1282" on="1"/>
        <pt x="993" y="1231" on="0"/>
        <pt x="1017" y="1132" on="0"/>
        <pt x="1064" y="1049" on="0"/>
        <pt x="1134" y="988" on="0"/>
        <pt x="1180" y="973" on="1"/>
        <pt x="1223" y="984" on="0"/>
        <pt x="1291" y="993" on="0"/>
        <pt x="1311" y="993" on="1"/>
        <pt x="1345" y="993" on="0"/>
        <pt x="1374" y="971" on="0"/>
        <pt x="1374" y="954" on="1"/>
        <pt x="1374" y="946" on="0"/>
        <pt x="1368" y="931" on="0"/>
        <pt x="1352" y="919" on="0"/>
        <pt x="1323" y="911" on="0"/>
        <pt x="1300" y="911" on="1"/>
        <pt x="1271" y="911" on="0"/>
        <pt x="1216" y="915" on="0"/>
        <pt x="1190" y="920" on="1"/>
        <pt x="1115" y="899" on="0"/>
        <pt x="1003" y="803" on="0"/>
        <pt x="927" y="673" on="0"/>
        <pt x="889" y="520" on="0"/>
        <pt x="889" y="442" on="1"/>
        <pt x="889" y="358" on="0"/>
        <pt x="935" y="198" on="0"/>
        <pt x="1027" y="75" on="0"/>
        <pt x="1166" y="0" on="0"/>
        <pt x="1260" y="0" on="1"/>
        <pt x="1360" y="0" on="0"/>
        <pt x="1510" y="72" on="0"/>
        <pt x="1563" y="131" on="1"/>
        <pt x="1515" y="143" on="0"/>
        <pt x="1411" y="203" on="0"/>
        <pt x="1325" y="292" on="0"/>
        <pt x="1270" y="405" on="0"/>
        <pt x="1270" y="471" on="1"/>
        <pt x="1270" y="529" on="0"/>
        <pt x="1310" y="630" on="0"/>
        <pt x="1380" y="705" on="0"/>
        <pt x="1476" y="748" on="0"/>
        <pt x="1532" y="748" on="1"/>
        <pt x="1584" y="748" on="0"/>
        <pt x="1681" y="710" on="0"/>
        <pt x="1755" y="636" on="0"/>
        <pt x="1800" y="527" on="0"/>
        <pt x="1800" y="457" on="1"/>
        <pt x="1800" y="421" on="0"/>
        <pt x="1785" y="345" on="0"/>
        <pt x="1758" y="271" on="0"/>
        <pt x="1723" y="204" on="0"/>
        <pt x="1702" y="176" on="1"/>
        <pt x="1762" y="184" on="0"/>
        <pt x="1851" y="236" on="0"/>
        <pt x="1919" y="308" on="0"/>
        <pt x="1967" y="391" on="0"/>
        <pt x="1987" y="430" on="1"/>
        <pt x="1997" y="451" on="1"/>
        <pt x="2038" y="420" on="1"/>
        <pt x="2028" y="399" on="1"/>
        <pt x="1997" y="337" on="0"/>
        <pt x="1921" y="235" on="0"/>
        <pt x="1829" y="163" on="0"/>
        <pt x="1719" y="124" on="0"/>
        <pt x="1655" y="123" on="1"/>
        <pt x="1577" y="45" on="0"/>
        <pt x="1362" y="-51" on="0"/>
        <pt x="1229" y="-51" on="1"/>
        <pt x="1139" y="-51" on="0"/>
        <pt x="983" y="-4" on="0"/>
        <pt x="857" y="79" on="0"/>
        <pt x="765" y="195" on="0"/>
        <pt x="739" y="264" on="1"/>
        <pt x="710" y="213" on="0"/>
        <pt x="635" y="113" on="0"/>
        <pt x="542" y="32" on="0"/>
        <pt x="431" y="-18" on="0"/>
        <pt x="367" y="-18" on="1"/>
        <pt x="281" y="-18" on="0"/>
        <pt x="158" y="62" on="0"/>
        <pt x="79" y="201" on="0"/>
        <pt x="41" y="390" on="0"/>
        <pt x="41" y="498" on="1"/>
        <pt x="41" y="623" on="0"/>
        <pt x="85" y="895" on="0"/>
        <pt x="169" y="1157" on="0"/>
        <pt x="289" y="1394" on="0"/>
        <pt x="441" y="1573" on="0"/>
        <pt x="623" y="1679" on="0"/>
        <pt x="727" y="1679" on="1"/>
        <pt x="768" y="1679" on="0"/>
        <pt x="836" y="1660" on="0"/>
        <pt x="890" y="1629" on="0"/>
        <pt x="933" y="1591" on="0"/>
        <pt x="948" y="1573" on="1"/>
        <pt x="1010" y="1627" on="0"/>
        <pt x="1170" y="1677" on="0"/>
        <pt x="1251" y="1677" on="1"/>
        <pt x="1316" y="1677" on="0"/>
        <pt x="1438" y="1646" on="0"/>
        <pt x="1531" y="1586" on="0"/>
        <pt x="1587" y="1499" on="0"/>
        <pt x="1587" y="1444" on="1"/>
        <pt x="1587" y="1405" on="0"/>
        <pt x="1560" y="1343" on="0"/>
        <pt x="1515" y="1300" on="0"/>
        <pt x="1455" y="1278" on="0"/>
        <pt x="1421" y="1278" on="1"/>
        <pt x="1398" y="1278" on="0"/>
        <pt x="1350" y="1288" on="0"/>
        <pt x="1327" y="1300" on="1"/>
        <pt x="1346" y="1341" on="1"/>
        <pt x="1366" y="1332" on="0"/>
        <pt x="1407" y="1321" on="0"/>
        <pt x="1425" y="1321" on="1"/>
        <pt x="1473" y="1321" on="0"/>
        <pt x="1536" y="1385" on="0"/>
      </contour>
      <contour>
        <pt x="829" y="1290" on="1"/>
        <pt x="829" y="1369" on="0"/>
        <pt x="875" y="1492" on="0"/>
        <pt x="915" y="1538" on="1"/>
        <pt x="888" y="1569" on="0"/>
        <pt x="797" y="1620" on="0"/>
        <pt x="727" y="1620" on="1"/>
        <pt x="650" y="1620" on="0"/>
        <pt x="518" y="1521" on="0"/>
        <pt x="409" y="1354" on="0"/>
        <pt x="324" y="1134" on="0"/>
        <pt x="266" y="892" on="0"/>
        <pt x="236" y="644" on="0"/>
        <pt x="236" y="532" on="1"/>
        <pt x="236" y="443" on="0"/>
        <pt x="259" y="289" on="0"/>
        <pt x="306" y="176" on="0"/>
        <pt x="378" y="111" on="0"/>
        <pt x="428" y="111" on="1"/>
        <pt x="465" y="111" on="0"/>
        <pt x="542" y="144" on="0"/>
        <pt x="616" y="205" on="0"/>
        <pt x="686" y="290" on="0"/>
        <pt x="715" y="342" on="1"/>
        <pt x="710" y="367" on="0"/>
        <pt x="707" y="416" on="0"/>
        <pt x="707" y="440" on="1"/>
        <pt x="707" y="554" on="0"/>
        <pt x="778" y="723" on="0"/>
        <pt x="889" y="843" on="0"/>
        <pt x="1027" y="922" on="0"/>
        <pt x="1094" y="946" on="1"/>
        <pt x="1030" y="970" on="0"/>
        <pt x="931" y="1044" on="0"/>
        <pt x="864" y="1135" on="0"/>
        <pt x="829" y="1238" on="0"/>
      </contour>
      <contour>
        <pt x="1669" y="440" on="1"/>
        <pt x="1669" y="502" on="0"/>
        <pt x="1640" y="593" on="0"/>
        <pt x="1592" y="652" on="0"/>
        <pt x="1530" y="680" on="0"/>
        <pt x="1497" y="680" on="1"/>
        <pt x="1462" y="680" on="0"/>
        <pt x="1402" y="650" on="0"/>
        <pt x="1357" y="595" on="0"/>
        <pt x="1331" y="518" on="0"/>
        <pt x="1331" y="471" on="1"/>
        <pt x="1331" y="411" on="0"/>
        <pt x="1382" y="310" on="0"/>
        <pt x="1461" y="233" on="0"/>
        <pt x="1555" y="184" on="0"/>
        <pt x="1599" y="176" on="1"/>
        <pt x="1614" y="201" on="0"/>
        <pt x="1640" y="264" on="0"/>
        <pt x="1659" y="333" on="0"/>
        <pt x="1669" y="405" on="0"/>
      </contour>
    </TTGlyph>
    <TTGlyph name="Aacute" xMin="-31" yMin="-51" xMax="1393" yMax="2031">
      <component glyphName="A" x="0" y="0" flags="0x1204"/>
      <component glyphName="acute" x="778" y="860" flags="0x1004"/>
    </TTGlyph>
    <TTGlyph name="Acircumflex" xMin="-31" yMin="-51" xMax="1393" yMax="2038">
      <component glyphName="A" x="0" y="0" flags="0x1204"/>
      <component glyphName="circumflex" x="682" y="860" flags="0x1004"/>
    </TTGlyph>
    <TTGlyph name="Adieresis" xMin="-31" yMin="-51" xMax="1393" yMax="2007">
      <component glyphName="A" x="0" y="0" flags="0x1204"/>
      <component glyphName="dieresis" x="749" y="860" flags="0x1004"/>
    </TTGlyph>
    <TTGlyph name="Agrave" xMin="-31" yMin="-51" xMax="1393" yMax="2038">
      <component glyphName="A" x="0" y="0" flags="0x1204"/>
      <component glyphName="grave" x="536" y="860" flags="0x1004"/>
    </TTGlyph>
    <TTGlyph name="Aring" xMin="-31" yMin="-51" xMax="1393" yMax="2109">
      <component glyphName="A" x="0" y="0" flags="0x1204"/>
      <component glyphName="ring" x="768" y="860" flags="0x1004"/>
    </TTGlyph>
    <TTGlyph name="Atilde" xMin="-31" yMin="-51" xMax="1393" yMax="2007">
      <component glyphName="A" x="0" y="0" flags="0x1204"/>
      <component glyphName="tilde" x="657" y="860" flags="0x1004"/>
    </TTGlyph>
    <TTGlyph name="B" xMin="-11" yMin="-51" xMax="1257" yMax="1679">
      <contour>
        <pt x="1173" y="1372" on="1"/>
        <pt x="1173" y="1283" on="0"/>
        <pt x="1103" y="1126" on="0"/>
        <pt x="996" y="994" on="0"/>
        <pt x="869" y="887" on="0"/>
        <pt x="812" y="848" on="1"/>
        <pt x="892" y="841" on="0"/>
        <pt x="1051" y="778" on="0"/>
        <pt x="1178" y="667" on="0"/>
        <pt x="1257" y="510" on="0"/>
        <pt x="1257" y="410" on="1"/>
        <pt x="1257" y="328" on="0"/>
        <pt x="1210" y="197" on="0"/>
        <pt x="1132" y="94" on="0"/>
        <pt x="1033" y="20" on="0"/>
        <pt x="931" y="-28" on="0"/>
        <pt x="832" y="-51" on="0"/>
        <pt x="794" y="-51" on="1"/>
        <pt x="698" y="-51" on="0"/>
        <pt x="571" y="-5" on="0"/>
        <pt x="496" y="62" on="0"/>
        <pt x="466" y="136" on="0"/>
        <pt x="466" y="164" on="1"/>
        <pt x="466" y="207" on="0"/>
        <pt x="503" y="286" on="0"/>
        <pt x="565" y="350" on="0"/>
        <pt x="647" y="399" on="0"/>
        <pt x="691" y="412" on="1"/>
        <pt x="712" y="379" on="1"/>
        <pt x="649" y="345" on="0"/>
        <pt x="589" y="238" on="0"/>
        <pt x="589" y="184" on="1"/>
        <pt x="589" y="154" on="0"/>
        <pt x="614" y="89" on="0"/>
        <pt x="665" y="35" on="0"/>
        <pt x="742" y="0" on="0"/>
        <pt x="794" y="0" on="1"/>
        <pt x="870" y="0" on="0"/>
        <pt x="1002" y="57" on="0"/>
        <pt x="1099" y="158" on="0"/>
        <pt x="1154" y="294" on="0"/>
        <pt x="1154" y="373" on="1"/>
        <pt x="1154" y="454" on="0"/>
        <pt x="1087" y="578" on="0"/>
        <pt x="976" y="663" on="0"/>
        <pt x="831" y="707" on="0"/>
        <pt x="753" y="707" on="1"/>
        <pt x="721" y="707" on="0"/>
        <pt x="659" y="700" on="0"/>
        <pt x="604" y="689" on="0"/>
        <pt x="560" y="679" on="0"/>
        <pt x="548" y="676" on="1"/>
        <pt x="538" y="686" on="1"/>
        <pt x="630" y="829" on="1"/>
        <pt x="641" y="832" on="0"/>
        <pt x="655" y="836" on="1"/>
        <pt x="667" y="839" on="0"/>
        <pt x="701" y="846" on="0"/>
        <pt x="722" y="848" on="1"/>
        <pt x="770" y="877" on="0"/>
        <pt x="875" y="966" on="0"/>
        <pt x="962" y="1083" on="0"/>
        <pt x="1019" y="1229" on="0"/>
        <pt x="1019" y="1315" on="1"/>
        <pt x="1019" y="1460" on="0"/>
        <pt x="881" y="1608" on="0"/>
        <pt x="753" y="1608" on="1"/>
        <pt x="679" y="1608" on="0"/>
        <pt x="529" y="1545" on="0"/>
        <pt x="390" y="1415" on="0"/>
        <pt x="269" y="1217" on="0"/>
        <pt x="180" y="949" on="0"/>
        <pt x="128" y="607" on="0"/>
        <pt x="128" y="399" on="1"/>
        <pt x="128" y="313" on="0"/>
        <pt x="143" y="167" on="0"/>
        <pt x="174" y="60" on="0"/>
        <pt x="220" y="0" on="0"/>
        <pt x="251" y="0" on="1"/>
        <pt x="282" y="0" on="0"/>
        <pt x="319" y="91" on="0"/>
        <pt x="338" y="238" on="0"/>
        <pt x="343" y="420" on="0"/>
        <pt x="343" y="512" on="1"/>
        <pt x="343" y="652" on="0"/>
        <pt x="335" y="899" on="0"/>
        <pt x="326" y="1093" on="0"/>
        <pt x="318" y="1223" on="0"/>
        <pt x="317" y="1245" on="1"/>
        <pt x="433" y="1280" on="1"/>
        <pt x="438" y="1272" on="0"/>
        <pt x="456" y="1192" on="0"/>
        <pt x="474" y="1061" on="0"/>
        <pt x="487" y="888" on="0"/>
        <pt x="487" y="788" on="1"/>
        <pt x="487" y="619" on="0"/>
        <pt x="468" y="364" on="0"/>
        <pt x="434" y="177" on="0"/>
        <pt x="389" y="53" on="0"/>
        <pt x="336" y="-20" on="0"/>
        <pt x="279" y="-51" on="0"/>
        <pt x="251" y="-51" on="1"/>
        <pt x="190" y="-51" on="0"/>
        <pt x="93" y="32" on="0"/>
        <pt x="25" y="169" on="0"/>
        <pt x="-11" y="346" on="0"/>
        <pt x="-11" y="440" on="1"/>
        <pt x="-11" y="575" on="0"/>
        <pt x="39" y="863" on="0"/>
        <pt x="137" y="1138" on="0"/>
        <pt x="281" y="1385" on="0"/>
        <pt x="469" y="1570" on="0"/>
        <pt x="700" y="1679" on="0"/>
        <pt x="835" y="1679" on="1"/>
        <pt x="912" y="1679" on="0"/>
        <pt x="1037" y="1638" on="0"/>
        <pt x="1125" y="1559" on="0"/>
        <pt x="1173" y="1445" on="0"/>
      </contour>
    </TTGlyph>
    <TTGlyph name="C" xMin="-11" yMin="-51" xMax="1157" yMax="1679">
      <contour>
        <pt x="153" y="760" on="1"/>
        <pt x="153" y="580" on="0"/>
        <pt x="235" y="312" on="0"/>
        <pt x="370" y="134" on="0"/>
        <pt x="543" y="45" on="0"/>
        <pt x="634" y="45" on="1"/>
        <pt x="699" y="45" on="0"/>
        <pt x="826" y="93" on="0"/>
        <pt x="946" y="189" on="0"/>
        <pt x="1057" y="333" on="0"/>
        <pt x="1105" y="430" on="1"/>
        <pt x="1116" y="451" on="1"/>
        <pt x="1157" y="420" on="1"/>
        <pt x="1146" y="399" on="1"/>
        <pt x="1091" y="288" on="0"/>
        <pt x="958" y="120" on="0"/>
        <pt x="808" y="7" on="0"/>
        <pt x="647" y="-51" on="0"/>
        <pt x="563" y="-51" on="1"/>
        <pt x="491" y="-51" on="0"/>
        <pt x="350" y="-10" on="0"/>
        <pt x="223" y="73" on="0"/>
        <pt x="114" y="199" on="0"/>
        <pt x="34" y="368" on="0"/>
        <pt x="-11" y="581" on="0"/>
        <pt x="-11" y="709" on="1"/>
        <pt x="-11" y="878" on="0"/>
        <pt x="46" y="1153" on="0"/>
        <pt x="143" y="1368" on="0"/>
        <pt x="272" y="1526" on="0"/>
        <pt x="414" y="1629" on="0"/>
        <pt x="562" y="1679" on="0"/>
        <pt x="630" y="1679" on="1"/>
        <pt x="719" y="1679" on="0"/>
        <pt x="869" y="1618" on="0"/>
        <pt x="977" y="1507" on="0"/>
        <pt x="1038" y="1348" on="0"/>
        <pt x="1038" y="1251" on="1"/>
        <pt x="1038" y="1158" on="0"/>
        <pt x="981" y="994" on="0"/>
        <pt x="886" y="871" on="0"/>
        <pt x="763" y="799" on="0"/>
        <pt x="696" y="799" on="1"/>
        <pt x="651" y="799" on="0"/>
        <pt x="573" y="831" on="0"/>
        <pt x="515" y="889" on="0"/>
        <pt x="481" y="973" on="0"/>
        <pt x="481" y="1024" on="1"/>
        <pt x="481" y="1073" on="0"/>
        <pt x="511" y="1164" on="0"/>
        <pt x="557" y="1241" on="0"/>
        <pt x="612" y="1300" on="0"/>
        <pt x="638" y="1317" on="1"/>
        <pt x="665" y="1290" on="1"/>
        <pt x="644" y="1266" on="0"/>
        <pt x="607" y="1211" on="0"/>
        <pt x="579" y="1148" on="0"/>
        <pt x="563" y="1076" on="0"/>
        <pt x="563" y="1034" on="1"/>
        <pt x="563" y="991" on="0"/>
        <pt x="584" y="923" on="0"/>
        <pt x="621" y="875" on="0"/>
        <pt x="669" y="850" on="0"/>
        <pt x="696" y="850" on="1"/>
        <pt x="733" y="850" on="0"/>
        <pt x="807" y="905" on="0"/>
        <pt x="865" y="1012" on="0"/>
        <pt x="901" y="1168" on="0"/>
        <pt x="901" y="1270" on="1"/>
        <pt x="901" y="1362" on="0"/>
        <pt x="860" y="1497" on="0"/>
        <pt x="788" y="1585" on="0"/>
        <pt x="690" y="1628" on="0"/>
        <pt x="634" y="1628" on="1"/>
        <pt x="594" y="1628" on="0"/>
        <pt x="492" y="1593" on="0"/>
        <pt x="385" y="1513" on="0"/>
        <pt x="283" y="1382" on="0"/>
        <pt x="202" y="1189" on="0"/>
        <pt x="153" y="929" on="0"/>
      </contour>
    </TTGlyph>
    <TTGlyph name="Ccedilla" xMin="-11" yMin="-460" xMax="1157" yMax="1679">
      <contour>
        <pt x="153" y="760" on="1"/>
        <pt x="153" y="580" on="0"/>
        <pt x="235" y="312" on="0"/>
        <pt x="370" y="134" on="0"/>
        <pt x="543" y="45" on="0"/>
        <pt x="634" y="45" on="1"/>
        <pt x="699" y="45" on="0"/>
        <pt x="826" y="93" on="0"/>
        <pt x="946" y="189" on="0"/>
        <pt x="1057" y="333" on="0"/>
        <pt x="1105" y="430" on="1"/>
        <pt x="1116" y="451" on="1"/>
        <pt x="1157" y="420" on="1"/>
        <pt x="1146" y="399" on="1"/>
        <pt x="1094" y="294" on="0"/>
        <pt x="969" y="132" on="0"/>
        <pt x="829" y="19" on="0"/>
        <pt x="678" y="-44" on="0"/>
        <pt x="599" y="-50" on="1"/>
        <pt x="599" y="-93" on="1"/>
        <pt x="712" y="-93" on="0"/>
        <pt x="821" y="-155" on="0"/>
        <pt x="821" y="-206" on="1"/>
        <pt x="821" y="-236" on="0"/>
        <pt x="780" y="-307" on="0"/>
        <pt x="697" y="-376" on="0"/>
        <pt x="575" y="-438" on="0"/>
        <pt x="494" y="-460" on="1"/>
        <pt x="475" y="-397" on="1"/>
        <pt x="586" y="-357" on="0"/>
        <pt x="683" y="-290" on="0"/>
        <pt x="683" y="-270" on="1"/>
        <pt x="683" y="-247" on="0"/>
        <pt x="602" y="-220" on="0"/>
        <pt x="530" y="-220" on="1"/>
        <pt x="530" y="-49" on="1"/>
        <pt x="426" y="-42" on="0"/>
        <pt x="232" y="57" on="0"/>
        <pt x="80" y="245" on="0"/>
        <pt x="-11" y="523" on="0"/>
        <pt x="-11" y="709" on="1"/>
        <pt x="-11" y="878" on="0"/>
        <pt x="46" y="1153" on="0"/>
        <pt x="143" y="1368" on="0"/>
        <pt x="272" y="1526" on="0"/>
        <pt x="414" y="1629" on="0"/>
        <pt x="562" y="1679" on="0"/>
        <pt x="630" y="1679" on="1"/>
        <pt x="719" y="1679" on="0"/>
        <pt x="869" y="1618" on="0"/>
        <pt x="977" y="1507" on="0"/>
        <pt x="1038" y="1348" on="0"/>
        <pt x="1038" y="1251" on="1"/>
        <pt x="1038" y="1158" on="0"/>
        <pt x="981" y="994" on="0"/>
        <pt x="886" y="871" on="0"/>
        <pt x="763" y="799" on="0"/>
        <pt x="696" y="799" on="1"/>
        <pt x="651" y="799" on="0"/>
        <pt x="573" y="831" on="0"/>
        <pt x="515" y="889" on="0"/>
        <pt x="481" y="973" on="0"/>
        <pt x="481" y="1024" on="1"/>
        <pt x="481" y="1073" on="0"/>
        <pt x="511" y="1164" on="0"/>
        <pt x="557" y="1241" on="0"/>
        <pt x="612" y="1300" on="0"/>
        <pt x="638" y="1317" on="1"/>
        <pt x="665" y="1290" on="1"/>
        <pt x="644" y="1266" on="0"/>
        <pt x="607" y="1211" on="0"/>
        <pt x="579" y="1148" on="0"/>
        <pt x="563" y="1076" on="0"/>
        <pt x="563" y="1034" on="1"/>
        <pt x="563" y="991" on="0"/>
        <pt x="584" y="923" on="0"/>
        <pt x="621" y="875" on="0"/>
        <pt x="669" y="850" on="0"/>
        <pt x="696" y="850" on="1"/>
        <pt x="733" y="850" on="0"/>
        <pt x="807" y="905" on="0"/>
        <pt x="865" y="1012" on="0"/>
        <pt x="901" y="1168" on="0"/>
        <pt x="901" y="1270" on="1"/>
        <pt x="901" y="1362" on="0"/>
        <pt x="860" y="1497" on="0"/>
        <pt x="788" y="1585" on="0"/>
        <pt x="690" y="1628" on="0"/>
        <pt x="634" y="1628" on="1"/>
        <pt x="594" y="1628" on="0"/>
        <pt x="492" y="1593" on="0"/>
        <pt x="385" y="1513" on="0"/>
        <pt x="283" y="1382" on="0"/>
        <pt x="202" y="1189" on="0"/>
        <pt x="153" y="929" on="0"/>
      </contour>
    </TTGlyph>
    <TTGlyph name="D" xMin="-220" yMin="-72" xMax="1429" yMax="1679">
      <contour>
        <pt x="558" y="1679" on="1"/>
        <pt x="756" y="1679" on="0"/>
        <pt x="1077" y="1552" on="0"/>
        <pt x="1305" y="1326" on="0"/>
        <pt x="1429" y="1014" on="0"/>
        <pt x="1429" y="829" on="1"/>
        <pt x="1429" y="710" on="0"/>
        <pt x="1383" y="488" on="0"/>
        <pt x="1297" y="292" on="0"/>
        <pt x="1172" y="130" on="0"/>
        <pt x="1015" y="13" on="0"/>
        <pt x="828" y="-51" on="0"/>
        <pt x="722" y="-51" on="1"/>
        <pt x="614" y="-51" on="0"/>
        <pt x="394" y="-11" on="0"/>
        <pt x="286" y="12" on="1"/>
        <pt x="249" y="-9" on="0"/>
        <pt x="171" y="-40" on="0"/>
        <pt x="93" y="-61" on="0"/>
        <pt x="18" y="-72" on="0"/>
        <pt x="-15" y="-72" on="1"/>
        <pt x="-115" y="-72" on="0"/>
        <pt x="-220" y="-26" on="0"/>
        <pt x="-220" y="20" on="1"/>
        <pt x="-220" y="47" on="0"/>
        <pt x="-191" y="89" on="0"/>
        <pt x="-123" y="118" on="0"/>
        <pt x="-14" y="133" on="0"/>
        <pt x="67" y="133" on="1"/>
        <pt x="130" y="133" on="0"/>
        <pt x="252" y="120" on="0"/>
        <pt x="312" y="111" on="1"/>
        <pt x="339" y="139" on="1"/>
        <pt x="360" y="164" on="0"/>
        <pt x="382" y="241" on="0"/>
        <pt x="392" y="363" on="0"/>
        <pt x="394" y="540" on="0"/>
        <pt x="394" y="666" on="1"/>
        <pt x="394" y="788" on="0"/>
        <pt x="397" y="961" on="0"/>
        <pt x="409" y="1085" on="0"/>
        <pt x="433" y="1172" on="0"/>
        <pt x="474" y="1245" on="0"/>
        <pt x="536" y="1316" on="0"/>
        <pt x="579" y="1362" on="1"/>
        <pt x="630" y="1317" on="1"/>
        <pt x="608" y="1296" on="0"/>
        <pt x="583" y="1235" on="0"/>
        <pt x="571" y="1152" on="0"/>
        <pt x="568" y="1047" on="0"/>
        <pt x="568" y="981" on="1"/>
        <pt x="568" y="418" on="1"/>
        <pt x="568" y="353" on="0"/>
        <pt x="540" y="256" on="0"/>
        <pt x="493" y="180" on="0"/>
        <pt x="433" y="120" on="0"/>
        <pt x="401" y="94" on="1"/>
        <pt x="460" y="82" on="0"/>
        <pt x="572" y="58" on="0"/>
        <pt x="677" y="38" on="0"/>
        <pt x="774" y="25" on="0"/>
        <pt x="818" y="25" on="1"/>
        <pt x="900" y="25" on="0"/>
        <pt x="1028" y="97" on="0"/>
        <pt x="1122" y="222" on="0"/>
        <pt x="1187" y="391" on="0"/>
        <pt x="1227" y="585" on="0"/>
        <pt x="1244" y="797" on="0"/>
        <pt x="1244" y="901" on="1"/>
        <pt x="1244" y="1066" on="0"/>
        <pt x="1160" y="1328" on="0"/>
        <pt x="995" y="1511" on="0"/>
        <pt x="750" y="1608" on="0"/>
        <pt x="589" y="1608" on="1"/>
        <pt x="473" y="1608" on="0"/>
        <pt x="301" y="1571" on="0"/>
        <pt x="178" y="1510" on="0"/>
        <pt x="100" y="1432" on="0"/>
        <pt x="55" y="1349" on="0"/>
        <pt x="38" y="1267" on="0"/>
        <pt x="38" y="1233" on="1"/>
        <pt x="38" y="1193" on="0"/>
        <pt x="51" y="1116" on="0"/>
        <pt x="90" y="1056" on="0"/>
        <pt x="162" y="1020" on="0"/>
        <pt x="222" y="1020" on="1"/>
        <pt x="242" y="1020" on="0"/>
        <pt x="268" y="1025" on="0"/>
        <pt x="277" y="1029" on="1"/>
        <pt x="287" y="1033" on="0"/>
        <pt x="294" y="1038" on="1"/>
        <pt x="306" y="979" on="1"/>
        <pt x="291" y="968" on="0"/>
        <pt x="220" y="952" on="0"/>
        <pt x="179" y="952" on="1"/>
        <pt x="119" y="952" on="0"/>
        <pt x="16" y="994" on="0"/>
        <pt x="-60" y="1067" on="0"/>
        <pt x="-103" y="1163" on="0"/>
        <pt x="-103" y="1217" on="1"/>
        <pt x="-103" y="1310" on="0"/>
        <pt x="-5" y="1477" on="0"/>
        <pt x="171" y="1604" on="0"/>
        <pt x="414" y="1679" on="0"/>
      </contour>
      <contour>
        <pt x="-56" y="61" on="1"/>
        <pt x="-72" y="61" on="0"/>
        <pt x="-108" y="59" on="0"/>
        <pt x="-139" y="51" on="0"/>
        <pt x="-159" y="35" on="0"/>
        <pt x="-159" y="20" on="1"/>
        <pt x="-159" y="0" on="0"/>
        <pt x="-93" y="-20" on="0"/>
        <pt x="-15" y="-20" on="1"/>
        <pt x="45" y="-20" on="0"/>
        <pt x="154" y="6" on="0"/>
        <pt x="202" y="31" on="1"/>
        <pt x="136" y="43" on="0"/>
        <pt x="6" y="61" on="0"/>
      </contour>
    </TTGlyph>
    <TTGlyph name="E" xMin="-21" yMin="-51" xMax="1310" yMax="1679">
      <contour>
        <pt x="532" y="0" on="1"/>
        <pt x="632" y="0" on="0"/>
        <pt x="782" y="72" on="0"/>
        <pt x="835" y="131" on="1"/>
        <pt x="771" y="143" on="0"/>
        <pt x="664" y="203" on="0"/>
        <pt x="586" y="292" on="0"/>
        <pt x="542" y="405" on="0"/>
        <pt x="542" y="471" on="1"/>
        <pt x="542" y="536" on="0"/>
        <pt x="588" y="645" on="0"/>
        <pt x="666" y="724" on="0"/>
        <pt x="769" y="768" on="0"/>
        <pt x="825" y="768" on="1"/>
        <pt x="877" y="768" on="0"/>
        <pt x="974" y="730" on="0"/>
        <pt x="1048" y="657" on="0"/>
        <pt x="1093" y="548" on="0"/>
        <pt x="1093" y="477" on="1"/>
        <pt x="1093" y="405" on="0"/>
        <pt x="1031" y="247" on="0"/>
        <pt x="974" y="176" on="1"/>
        <pt x="1034" y="184" on="0"/>
        <pt x="1124" y="236" on="0"/>
        <pt x="1191" y="308" on="0"/>
        <pt x="1240" y="391" on="0"/>
        <pt x="1259" y="430" on="1"/>
        <pt x="1269" y="451" on="1"/>
        <pt x="1310" y="420" on="1"/>
        <pt x="1300" y="399" on="1"/>
        <pt x="1269" y="337" on="0"/>
        <pt x="1193" y="235" on="0"/>
        <pt x="1101" y="163" on="0"/>
        <pt x="991" y="124" on="0"/>
        <pt x="927" y="123" on="1"/>
        <pt x="850" y="45" on="0"/>
        <pt x="634" y="-51" on="0"/>
        <pt x="501" y="-51" on="1"/>
        <pt x="384" y="-51" on="0"/>
        <pt x="192" y="27" on="0"/>
        <pt x="55" y="161" on="0"/>
        <pt x="-21" y="339" on="0"/>
        <pt x="-21" y="440" on="1"/>
        <pt x="-21" y="554" on="0"/>
        <pt x="50" y="723" on="0"/>
        <pt x="162" y="843" on="0"/>
        <pt x="299" y="922" on="0"/>
        <pt x="366" y="946" on="1"/>
        <pt x="302" y="970" on="0"/>
        <pt x="204" y="1044" on="0"/>
        <pt x="137" y="1135" on="0"/>
        <pt x="102" y="1238" on="0"/>
        <pt x="102" y="1290" on="1"/>
        <pt x="102" y="1384" on="0"/>
        <pt x="180" y="1529" on="0"/>
        <pt x="305" y="1628" on="0"/>
        <pt x="462" y="1679" on="0"/>
        <pt x="542" y="1679" on="1"/>
        <pt x="608" y="1679" on="0"/>
        <pt x="729" y="1647" on="0"/>
        <pt x="774" y="1618" on="1"/>
        <pt x="798" y="1623" on="0"/>
        <pt x="851" y="1628" on="0"/>
        <pt x="880" y="1628" on="1"/>
        <pt x="880" y="1587" on="1"/>
        <pt x="863" y="1587" on="0"/>
        <pt x="833" y="1585" on="0"/>
        <pt x="819" y="1583" on="1"/>
        <pt x="848" y="1555" on="0"/>
        <pt x="880" y="1486" on="0"/>
        <pt x="880" y="1444" on="1"/>
        <pt x="880" y="1405" on="0"/>
        <pt x="855" y="1341" on="0"/>
        <pt x="810" y="1295" on="0"/>
        <pt x="750" y="1270" on="0"/>
        <pt x="716" y="1270" on="1"/>
        <pt x="678" y="1270" on="0"/>
        <pt x="619" y="1294" on="0"/>
        <pt x="579" y="1334" on="0"/>
        <pt x="557" y="1388" on="0"/>
        <pt x="557" y="1417" on="1"/>
        <pt x="557" y="1442" on="0"/>
        <pt x="574" y="1494" on="0"/>
        <pt x="609" y="1542" on="0"/>
        <pt x="664" y="1584" on="0"/>
        <pt x="702" y="1599" on="1"/>
        <pt x="664" y="1615" on="0"/>
        <pt x="581" y="1628" on="0"/>
        <pt x="552" y="1628" on="1"/>
        <pt x="482" y="1628" on="0"/>
        <pt x="375" y="1579" on="0"/>
        <pt x="303" y="1489" on="0"/>
        <pt x="266" y="1361" on="0"/>
        <pt x="266" y="1282" on="1"/>
        <pt x="266" y="1231" on="0"/>
        <pt x="290" y="1132" on="0"/>
        <pt x="336" y="1049" on="0"/>
        <pt x="406" y="988" on="0"/>
        <pt x="452" y="973" on="1"/>
        <pt x="495" y="984" on="0"/>
        <pt x="563" y="993" on="0"/>
        <pt x="583" y="993" on="1"/>
        <pt x="617" y="993" on="0"/>
        <pt x="647" y="971" on="0"/>
        <pt x="647" y="954" on="1"/>
        <pt x="647" y="946" on="0"/>
        <pt x="641" y="931" on="0"/>
        <pt x="625" y="919" on="0"/>
        <pt x="596" y="911" on="0"/>
        <pt x="573" y="911" on="1"/>
        <pt x="544" y="911" on="0"/>
        <pt x="488" y="915" on="0"/>
        <pt x="462" y="920" on="1"/>
        <pt x="396" y="903" on="0"/>
        <pt x="286" y="823" on="0"/>
        <pt x="207" y="701" on="0"/>
        <pt x="163" y="539" on="0"/>
        <pt x="163" y="440" on="1"/>
        <pt x="163" y="326" on="0"/>
        <pt x="225" y="160" on="0"/>
        <pt x="329" y="52" on="0"/>
        <pt x="461" y="0" on="0"/>
      </contour>
      <contour>
        <pt x="962" y="461" on="1"/>
        <pt x="962" y="523" on="0"/>
        <pt x="933" y="613" on="0"/>
        <pt x="885" y="672" on="0"/>
        <pt x="823" y="700" on="0"/>
        <pt x="790" y="700" on="1"/>
        <pt x="755" y="700" on="0"/>
        <pt x="689" y="669" on="0"/>
        <pt x="636" y="611" on="0"/>
        <pt x="604" y="525" on="0"/>
        <pt x="604" y="471" on="1"/>
        <pt x="604" y="411" on="0"/>
        <pt x="643" y="310" on="0"/>
        <pt x="714" y="233" on="0"/>
        <pt x="813" y="184" on="0"/>
        <pt x="872" y="176" on="1"/>
        <pt x="918" y="242" on="0"/>
        <pt x="962" y="392" on="0"/>
      </contour>
      <contour>
        <pt x="829" y="1444" on="1"/>
        <pt x="829" y="1487" on="0"/>
        <pt x="787" y="1549" on="0"/>
        <pt x="755" y="1571" on="1"/>
        <pt x="716" y="1560" on="0"/>
        <pt x="660" y="1526" on="0"/>
        <pt x="625" y="1485" on="0"/>
        <pt x="608" y="1440" on="0"/>
        <pt x="608" y="1419" on="1"/>
        <pt x="608" y="1379" on="0"/>
        <pt x="665" y="1321" on="0"/>
        <pt x="716" y="1321" on="1"/>
        <pt x="770" y="1321" on="0"/>
        <pt x="829" y="1390" on="0"/>
      </contour>
    </TTGlyph>
    <TTGlyph name="Eacute" xMin="-21" yMin="-51" xMax="1310" yMax="2031">
      <component glyphName="E" x="0" y="0" flags="0x1204"/>
      <component glyphName="acute" x="475" y="860" flags="0x1004"/>
    </TTGlyph>
    <TTGlyph name="Ecircumflex" xMin="-21" yMin="-51" xMax="1310" yMax="1995">
      <component glyphName="E" x="0" y="0" flags="0x1204"/>
      <component glyphName="circumflex" x="264" y="817" flags="0x1004"/>
    </TTGlyph>
    <TTGlyph name="Edieresis" xMin="-21" yMin="-51" xMax="1310" yMax="2007">
      <component glyphName="E" x="0" y="0" flags="0x1204"/>
      <component glyphName="dieresis" x="311" y="860" flags="0x1004"/>
    </TTGlyph>
    <TTGlyph name="Egrave" xMin="-21" yMin="-51" xMax="1310" yMax="2038">
      <component glyphName="E" x="0" y="0" flags="0x1204"/>
      <component glyphName="grave" x="481" y="860" flags="0x1004"/>
    </TTGlyph>
    <TTGlyph name="Eth" xMin="-220" yMin="-72" xMax="1429" yMax="1679">
      <contour>
        <pt x="231" y="686" on="1"/>
        <pt x="394" y="686" on="1"/>
        <pt x="394" y="803" on="0"/>
        <pt x="398" y="968" on="0"/>
        <pt x="410" y="1088" on="0"/>
        <pt x="434" y="1173" on="0"/>
        <pt x="475" y="1246" on="0"/>
        <pt x="536" y="1316" on="0"/>
        <pt x="579" y="1362" on="1"/>
        <pt x="630" y="1317" on="1"/>
        <pt x="608" y="1296" on="0"/>
        <pt x="583" y="1235" on="0"/>
        <pt x="571" y="1152" on="0"/>
        <pt x="568" y="1047" on="0"/>
        <pt x="568" y="981" on="1"/>
        <pt x="568" y="686" on="1"/>
        <pt x="722" y="686" on="1"/>
        <pt x="722" y="604" on="1"/>
        <pt x="568" y="604" on="1"/>
        <pt x="568" y="418" on="1"/>
        <pt x="568" y="353" on="0"/>
        <pt x="540" y="256" on="0"/>
        <pt x="493" y="180" on="0"/>
        <pt x="433" y="120" on="0"/>
        <pt x="401" y="94" on="1"/>
        <pt x="460" y="82" on="0"/>
        <pt x="572" y="58" on="0"/>
        <pt x="677" y="38" on="0"/>
        <pt x="774" y="25" on="0"/>
        <pt x="818" y="25" on="1"/>
        <pt x="900" y="25" on="0"/>
        <pt x="1028" y="97" on="0"/>
        <pt x="1122" y="222" on="0"/>
        <pt x="1187" y="391" on="0"/>
        <pt x="1227" y="585" on="0"/>
        <pt x="1244" y="797" on="0"/>
        <pt x="1244" y="901" on="1"/>
        <pt x="1244" y="1066" on="0"/>
        <pt x="1160" y="1328" on="0"/>
        <pt x="995" y="1511" on="0"/>
        <pt x="750" y="1608" on="0"/>
        <pt x="589" y="1608" on="1"/>
        <pt x="473" y="1608" on="0"/>
        <pt x="301" y="1571" on="0"/>
        <pt x="178" y="1510" on="0"/>
        <pt x="100" y="1432" on="0"/>
        <pt x="55" y="1349" on="0"/>
        <pt x="38" y="1267" on="0"/>
        <pt x="38" y="1233" on="1"/>
        <pt x="38" y="1193" on="0"/>
        <pt x="51" y="1116" on="0"/>
        <pt x="90" y="1056" on="0"/>
        <pt x="162" y="1020" on="0"/>
        <pt x="222" y="1020" on="1"/>
        <pt x="242" y="1020" on="0"/>
        <pt x="268" y="1025" on="0"/>
        <pt x="277" y="1029" on="1"/>
        <pt x="287" y="1033" on="0"/>
        <pt x="294" y="1038" on="1"/>
        <pt x="306" y="979" on="1"/>
        <pt x="291" y="968" on="0"/>
        <pt x="220" y="952" on="0"/>
        <pt x="179" y="952" on="1"/>
        <pt x="119" y="952" on="0"/>
        <pt x="16" y="994" on="0"/>
        <pt x="-60" y="1067" on="0"/>
        <pt x="-103" y="1163" on="0"/>
        <pt x="-103" y="1217" on="1"/>
        <pt x="-103" y="1310" on="0"/>
        <pt x="-5" y="1477" on="0"/>
        <pt x="171" y="1604" on="0"/>
        <pt x="414" y="1679" on="0"/>
        <pt x="558" y="1679" on="1"/>
        <pt x="756" y="1679" on="0"/>
        <pt x="1077" y="1552" on="0"/>
        <pt x="1305" y="1326" on="0"/>
        <pt x="1429" y="1014" on="0"/>
        <pt x="1429" y="829" on="1"/>
        <pt x="1429" y="710" on="0"/>
        <pt x="1383" y="488" on="0"/>
        <pt x="1297" y="292" on="0"/>
        <pt x="1172" y="130" on="0"/>
        <pt x="1015" y="13" on="0"/>
        <pt x="828" y="-51" on="0"/>
        <pt x="722" y="-51" on="1"/>
        <pt x="614" y="-51" on="0"/>
        <pt x="394" y="-11" on="0"/>
        <pt x="286" y="12" on="1"/>
        <pt x="249" y="-9" on="0"/>
        <pt x="171" y="-40" on="0"/>
        <pt x="93" y="-61" on="0"/>
        <pt x="18" y="-72" on="0"/>
        <pt x="-15" y="-72" on="1"/>
        <pt x="-115" y="-72" on="0"/>
        <pt x="-220" y="-26" on="0"/>
        <pt x="-220" y="20" on="1"/>
        <pt x="-220" y="47" on="0"/>
        <pt x="-191" y="89" on="0"/>
        <pt x="-123" y="118" on="0"/>
        <pt x="-14" y="133" on="0"/>
        <pt x="67" y="133" on="1"/>
        <pt x="130" y="133" on="0"/>
        <pt x="252" y="120" on="0"/>
        <pt x="312" y="111" on="1"/>
        <pt x="339" y="139" on="1"/>
        <pt x="358" y="162" on="0"/>
        <pt x="380" y="233" on="0"/>
        <pt x="391" y="342" on="0"/>
        <pt x="394" y="496" on="0"/>
        <pt x="394" y="604" on="1"/>
        <pt x="231" y="604" on="1"/>
      </contour>
      <contour>
        <pt x="-56" y="61" on="1"/>
        <pt x="-72" y="61" on="0"/>
        <pt x="-108" y="59" on="0"/>
        <pt x="-139" y="51" on="0"/>
        <pt x="-159" y="35" on="0"/>
        <pt x="-159" y="20" on="1"/>
        <pt x="-159" y="0" on="0"/>
        <pt x="-93" y="-20" on="0"/>
        <pt x="-15" y="-20" on="1"/>
        <pt x="45" y="-20" on="0"/>
        <pt x="154" y="6" on="0"/>
        <pt x="202" y="31" on="1"/>
        <pt x="136" y="43" on="0"/>
        <pt x="6" y="61" on="0"/>
      </contour>
    </TTGlyph>
    <TTGlyph name="Euro" xMin="119" yMin="211" xMax="1057" yMax="1495">
      <contour>
        <pt x="154" y="952" on="1"/>
        <pt x="260" y="952" on="1"/>
        <pt x="271" y="1071" on="0"/>
        <pt x="344" y="1271" on="0"/>
        <pt x="459" y="1415" on="0"/>
        <pt x="610" y="1495" on="0"/>
        <pt x="700" y="1495" on="1"/>
        <pt x="810" y="1495" on="0"/>
        <pt x="978" y="1378" on="0"/>
        <pt x="1032" y="1276" on="1"/>
        <pt x="987" y="1243" on="1"/>
        <pt x="969" y="1284" on="0"/>
        <pt x="915" y="1357" on="0"/>
        <pt x="848" y="1412" on="0"/>
        <pt x="770" y="1444" on="0"/>
        <pt x="727" y="1444" on="1"/>
        <pt x="652" y="1444" on="0"/>
        <pt x="543" y="1365" on="0"/>
        <pt x="468" y="1231" on="0"/>
        <pt x="427" y="1052" on="0"/>
        <pt x="420" y="952" on="1"/>
        <pt x="901" y="952" on="1"/>
        <pt x="891" y="891" on="1"/>
        <pt x="418" y="891" on="1"/>
        <pt x="418" y="805" on="1"/>
        <pt x="877" y="805" on="1"/>
        <pt x="866" y="743" on="1"/>
        <pt x="422" y="743" on="1"/>
        <pt x="429" y="645" on="0"/>
        <pt x="471" y="470" on="0"/>
        <pt x="544" y="340" on="0"/>
        <pt x="650" y="264" on="0"/>
        <pt x="721" y="264" on="1"/>
        <pt x="772" y="264" on="0"/>
        <pt x="858" y="298" on="0"/>
        <pt x="930" y="360" on="0"/>
        <pt x="987" y="446" on="0"/>
        <pt x="1008" y="498" on="1"/>
        <pt x="1057" y="481" on="1"/>
        <pt x="1004" y="354" on="0"/>
        <pt x="824" y="211" on="0"/>
        <pt x="700" y="211" on="1"/>
        <pt x="611" y="211" on="0"/>
        <pt x="461" y="289" on="0"/>
        <pt x="346" y="430" on="0"/>
        <pt x="272" y="626" on="0"/>
        <pt x="260" y="743" on="1"/>
        <pt x="119" y="743" on="1"/>
        <pt x="131" y="805" on="1"/>
        <pt x="256" y="805" on="1"/>
        <pt x="256" y="891" on="1"/>
        <pt x="143" y="891" on="1"/>
      </contour>
    </TTGlyph>
    <TTGlyph name="F" xMin="-81" yMin="-51" xMax="1281" yMax="1679">
      <contour>
        <pt x="820" y="819" on="1"/>
        <pt x="820" y="1004" on="1"/>
        <pt x="820" y="1124" on="0"/>
        <pt x="835" y="1321" on="0"/>
        <pt x="861" y="1405" on="1"/>
        <pt x="782" y="1417" on="0"/>
        <pt x="616" y="1450" on="0"/>
        <pt x="457" y="1480" on="0"/>
        <pt x="314" y="1501" on="0"/>
        <pt x="257" y="1501" on="1"/>
        <pt x="180" y="1501" on="0"/>
        <pt x="78" y="1476" on="0"/>
        <pt x="16" y="1434" on="0"/>
        <pt x="-9" y="1379" on="0"/>
        <pt x="-9" y="1348" on="1"/>
        <pt x="-9" y="1317" on="0"/>
        <pt x="20" y="1265" on="0"/>
        <pt x="74" y="1226" on="0"/>
        <pt x="149" y="1204" on="0"/>
        <pt x="195" y="1204" on="1"/>
        <pt x="246" y="1204" on="0"/>
        <pt x="325" y="1227" on="0"/>
        <pt x="353" y="1241" on="1"/>
        <pt x="386" y="1257" on="0"/>
        <pt x="411" y="1278" on="1"/>
        <pt x="431" y="1235" on="1"/>
        <pt x="400" y="1212" on="0"/>
        <pt x="363" y="1194" on="1"/>
        <pt x="331" y="1178" on="0"/>
        <pt x="246" y="1153" on="0"/>
        <pt x="195" y="1153" on="1"/>
        <pt x="128" y="1153" on="0"/>
        <pt x="25" y="1189" on="0"/>
        <pt x="-45" y="1250" on="0"/>
        <pt x="-81" y="1332" on="0"/>
        <pt x="-81" y="1378" on="1"/>
        <pt x="-81" y="1427" on="0"/>
        <pt x="-48" y="1519" on="0"/>
        <pt x="29" y="1591" on="0"/>
        <pt x="155" y="1634" on="0"/>
        <pt x="247" y="1634" on="1"/>
        <pt x="332" y="1634" on="0"/>
        <pt x="503" y="1607" on="0"/>
        <pt x="670" y="1568" on="0"/>
        <pt x="829" y="1523" on="0"/>
        <pt x="902" y="1505" on="1"/>
        <pt x="945" y="1584" on="0"/>
        <pt x="1073" y="1679" on="0"/>
        <pt x="1148" y="1679" on="1"/>
        <pt x="1180" y="1679" on="0"/>
        <pt x="1230" y="1658" on="0"/>
        <pt x="1264" y="1624" on="0"/>
        <pt x="1281" y="1579" on="0"/>
        <pt x="1281" y="1554" on="1"/>
        <pt x="1281" y="1512" on="0"/>
        <pt x="1242" y="1451" on="0"/>
        <pt x="1174" y="1410" on="0"/>
        <pt x="1082" y="1391" on="0"/>
        <pt x="1029" y="1391" on="1"/>
        <pt x="1017" y="1391" on="0"/>
        <pt x="992" y="1391" on="0"/>
        <pt x="980" y="1393" on="1"/>
        <pt x="972" y="1343" on="0"/>
        <pt x="963" y="1220" on="0"/>
        <pt x="963" y="1143" on="1"/>
        <pt x="963" y="819" on="1"/>
        <pt x="1097" y="819" on="1"/>
        <pt x="1076" y="758" on="1"/>
        <pt x="963" y="758" on="1"/>
        <pt x="963" y="512" on="1"/>
        <pt x="963" y="428" on="0"/>
        <pt x="959" y="303" on="0"/>
        <pt x="941" y="206" on="0"/>
        <pt x="905" y="129" on="0"/>
        <pt x="873" y="92" on="1"/>
        <pt x="818" y="29" on="0"/>
        <pt x="622" y="-51" on="0"/>
        <pt x="482" y="-51" on="1"/>
        <pt x="396" y="-51" on="0"/>
        <pt x="240" y="-3" on="0"/>
        <pt x="122" y="83" on="0"/>
        <pt x="52" y="203" on="0"/>
        <pt x="52" y="276" on="1"/>
        <pt x="52" y="330" on="0"/>
        <pt x="87" y="416" on="0"/>
        <pt x="143" y="483" on="0"/>
        <pt x="210" y="531" on="0"/>
        <pt x="274" y="563" on="0"/>
        <pt x="326" y="581" on="0"/>
        <pt x="339" y="584" on="1"/>
        <pt x="359" y="543" on="1"/>
        <pt x="336" y="531" on="0"/>
        <pt x="279" y="490" on="0"/>
        <pt x="229" y="427" on="0"/>
        <pt x="195" y="337" on="0"/>
        <pt x="195" y="276" on="1"/>
        <pt x="195" y="211" on="0"/>
        <pt x="239" y="108" on="0"/>
        <pt x="318" y="37" on="0"/>
        <pt x="427" y="0" on="0"/>
        <pt x="492" y="0" on="1"/>
        <pt x="565" y="0" on="0"/>
        <pt x="686" y="40" on="0"/>
        <pt x="772" y="134" on="0"/>
        <pt x="820" y="290" on="0"/>
        <pt x="820" y="406" on="1"/>
        <pt x="820" y="758" on="1"/>
        <pt x="626" y="758" on="1"/>
        <pt x="646" y="819" on="1"/>
      </contour>
      <contour>
        <pt x="1148" y="1624" on="1"/>
        <pt x="1103" y="1624" on="0"/>
        <pt x="1027" y="1559" on="0"/>
        <pt x="1002" y="1481" on="1"/>
        <pt x="1033" y="1476" on="0"/>
        <pt x="1091" y="1470" on="0"/>
        <pt x="1117" y="1470" on="1"/>
        <pt x="1144" y="1470" on="0"/>
        <pt x="1183" y="1485" on="0"/>
        <pt x="1207" y="1509" on="0"/>
        <pt x="1219" y="1539" on="0"/>
        <pt x="1219" y="1554" on="1"/>
        <pt x="1219" y="1583" on="0"/>
        <pt x="1179" y="1624" on="0"/>
      </contour>
    </TTGlyph>
    <TTGlyph name="G" xMin="-31" yMin="-512" xMax="1178" yMax="1679">
      <contour>
        <pt x="1167" y="399" on="1"/>
        <pt x="1146" y="358" on="0"/>
        <pt x="1091" y="285" on="0"/>
        <pt x="1031" y="224" on="0"/>
        <pt x="971" y="173" on="0"/>
        <pt x="946" y="154" on="1"/>
        <pt x="946" y="39" on="1"/>
        <pt x="946" y="-92" on="0"/>
        <pt x="905" y="-296" on="0"/>
        <pt x="828" y="-438" on="0"/>
        <pt x="721" y="-512" on="0"/>
        <pt x="655" y="-512" on="1"/>
        <pt x="619" y="-512" on="0"/>
        <pt x="559" y="-483" on="0"/>
        <pt x="516" y="-433" on="0"/>
        <pt x="492" y="-366" on="0"/>
        <pt x="492" y="-328" on="1"/>
        <pt x="492" y="-255" on="0"/>
        <pt x="541" y="-132" on="0"/>
        <pt x="625" y="-23" on="0"/>
        <pt x="735" y="76" on="0"/>
        <pt x="797" y="125" on="1"/>
        <pt x="798" y="180" on="0"/>
        <pt x="803" y="288" on="0"/>
        <pt x="808" y="384" on="0"/>
        <pt x="813" y="462" on="0"/>
        <pt x="815" y="487" on="1"/>
        <pt x="781" y="418" on="0"/>
        <pt x="696" y="285" on="0"/>
        <pt x="600" y="165" on="0"/>
        <pt x="495" y="64" on="0"/>
        <pt x="389" y="-10" on="0"/>
        <pt x="284" y="-51" on="0"/>
        <pt x="236" y="-51" on="1"/>
        <pt x="182" y="-51" on="0"/>
        <pt x="85" y="-8" on="0"/>
        <pt x="12" y="84" on="0"/>
        <pt x="-31" y="228" on="0"/>
        <pt x="-31" y="328" on="1"/>
        <pt x="-31" y="440" on="0"/>
        <pt x="19" y="676" on="0"/>
        <pt x="107" y="908" on="0"/>
        <pt x="229" y="1130" on="0"/>
        <pt x="373" y="1327" on="0"/>
        <pt x="535" y="1492" on="0"/>
        <pt x="703" y="1612" on="0"/>
        <pt x="872" y="1679" on="0"/>
        <pt x="952" y="1679" on="1"/>
        <pt x="1036" y="1679" on="0"/>
        <pt x="1137" y="1594" on="0"/>
        <pt x="1137" y="1516" on="1"/>
        <pt x="1137" y="1474" on="0"/>
        <pt x="1102" y="1395" on="0"/>
        <pt x="1043" y="1322" on="0"/>
        <pt x="969" y="1257" on="0"/>
        <pt x="892" y="1203" on="0"/>
        <pt x="817" y="1161" on="0"/>
        <pt x="788" y="1147" on="1"/>
        <pt x="758" y="1188" on="1"/>
        <pt x="796" y="1207" on="0"/>
        <pt x="886" y="1277" on="0"/>
        <pt x="964" y="1365" on="0"/>
        <pt x="1016" y="1467" on="0"/>
        <pt x="1016" y="1518" on="1"/>
        <pt x="1016" y="1561" on="0"/>
        <pt x="971" y="1618" on="0"/>
        <pt x="922" y="1618" on="1"/>
        <pt x="846" y="1618" on="0"/>
        <pt x="673" y="1524" on="0"/>
        <pt x="502" y="1356" on="0"/>
        <pt x="346" y="1123" on="0"/>
        <pt x="226" y="845" on="0"/>
        <pt x="154" y="533" on="0"/>
        <pt x="154" y="369" on="1"/>
        <pt x="154" y="297" on="0"/>
        <pt x="175" y="183" on="0"/>
        <pt x="214" y="104" on="0"/>
        <pt x="271" y="61" on="0"/>
        <pt x="307" y="61" on="1"/>
        <pt x="351" y="61" on="0"/>
        <pt x="455" y="115" on="0"/>
        <pt x="560" y="207" on="0"/>
        <pt x="662" y="328" on="0"/>
        <pt x="748" y="462" on="0"/>
        <pt x="812" y="600" on="0"/>
        <pt x="827" y="662" on="1"/>
        <pt x="833" y="735" on="0"/>
        <pt x="845" y="856" on="0"/>
        <pt x="856" y="948" on="0"/>
        <pt x="866" y="1005" on="0"/>
        <pt x="870" y="1014" on="1"/>
        <pt x="878" y="1029" on="0"/>
        <pt x="908" y="1059" on="0"/>
        <pt x="943" y="1082" on="0"/>
        <pt x="977" y="1096" on="0"/>
        <pt x="989" y="1096" on="1"/>
        <pt x="1005" y="1096" on="0"/>
        <pt x="1016" y="1070" on="0"/>
        <pt x="1016" y="1055" on="1"/>
        <pt x="1016" y="1011" on="0"/>
        <pt x="986" y="865" on="0"/>
        <pt x="963" y="768" on="1"/>
        <pt x="953" y="726" on="0"/>
        <pt x="944" y="589" on="0"/>
        <pt x="941" y="434" on="0"/>
        <pt x="941" y="277" on="0"/>
        <pt x="940" y="215" on="1"/>
        <pt x="1014" y="269" on="0"/>
        <pt x="1103" y="384" on="0"/>
        <pt x="1126" y="430" on="1"/>
        <pt x="1137" y="451" on="1"/>
        <pt x="1178" y="420" on="1"/>
      </contour>
      <contour>
        <pt x="795" y="51" on="1"/>
        <pt x="748" y="14" on="0"/>
        <pt x="670" y="-68" on="0"/>
        <pt x="615" y="-162" on="0"/>
        <pt x="584" y="-273" on="0"/>
        <pt x="584" y="-338" on="1"/>
        <pt x="584" y="-400" on="0"/>
        <pt x="624" y="-461" on="0"/>
        <pt x="655" y="-461" on="1"/>
        <pt x="686" y="-461" on="0"/>
        <pt x="737" y="-408" on="0"/>
        <pt x="774" y="-287" on="0"/>
        <pt x="795" y="-91" on="0"/>
      </contour>
    </TTGlyph>
    <TTGlyph name="H" xMin="-26" yMin="-61" xMax="1786" yMax="1741">
      <contour>
        <pt x="1469" y="-61" on="1"/>
        <pt x="1469" y="713" on="1"/>
        <pt x="1291" y="721" on="0"/>
        <pt x="961" y="744" on="0"/>
        <pt x="823" y="754" on="1"/>
        <pt x="823" y="530" on="1"/>
        <pt x="823" y="395" on="0"/>
        <pt x="772" y="196" on="0"/>
        <pt x="662" y="64" on="0"/>
        <pt x="492" y="0" on="0"/>
        <pt x="373" y="0" on="1"/>
        <pt x="289" y="0" on="0"/>
        <pt x="143" y="51" on="0"/>
        <pt x="35" y="145" on="0"/>
        <pt x="-26" y="277" on="0"/>
        <pt x="-26" y="358" on="1"/>
        <pt x="-26" y="446" on="0"/>
        <pt x="54" y="613" on="0"/>
        <pt x="209" y="741" on="0"/>
        <pt x="438" y="819" on="0"/>
        <pt x="588" y="819" on="1"/>
        <pt x="670" y="819" on="1"/>
        <pt x="670" y="987" on="1"/>
        <pt x="670" y="1067" on="0"/>
        <pt x="677" y="1214" on="0"/>
        <pt x="707" y="1352" on="0"/>
        <pt x="769" y="1482" on="0"/>
        <pt x="823" y="1546" on="1"/>
        <pt x="768" y="1505" on="0"/>
        <pt x="639" y="1477" on="0"/>
        <pt x="572" y="1477" on="1"/>
        <pt x="526" y="1477" on="0"/>
        <pt x="433" y="1486" on="0"/>
        <pt x="343" y="1496" on="0"/>
        <pt x="258" y="1505" on="0"/>
        <pt x="219" y="1505" on="1"/>
        <pt x="177" y="1505" on="0"/>
        <pt x="115" y="1484" on="0"/>
        <pt x="75" y="1447" on="0"/>
        <pt x="55" y="1399" on="0"/>
        <pt x="55" y="1372" on="1"/>
        <pt x="55" y="1345" on="0"/>
        <pt x="81" y="1294" on="0"/>
        <pt x="131" y="1253" on="0"/>
        <pt x="204" y="1229" on="0"/>
        <pt x="250" y="1229" on="1"/>
        <pt x="292" y="1229" on="0"/>
        <pt x="360" y="1245" on="0"/>
        <pt x="384" y="1255" on="1"/>
        <pt x="412" y="1266" on="0"/>
        <pt x="434" y="1282" on="1"/>
        <pt x="455" y="1239" on="1"/>
        <pt x="428" y="1221" on="0"/>
        <pt x="395" y="1208" on="1"/>
        <pt x="367" y="1197" on="0"/>
        <pt x="292" y="1178" on="0"/>
        <pt x="250" y="1178" on="1"/>
        <pt x="192" y="1178" on="0"/>
        <pt x="98" y="1211" on="0"/>
        <pt x="31" y="1268" on="0"/>
        <pt x="-6" y="1347" on="0"/>
        <pt x="-6" y="1393" on="1"/>
        <pt x="-6" y="1447" on="0"/>
        <pt x="34" y="1530" on="0"/>
        <pt x="103" y="1588" on="0"/>
        <pt x="196" y="1618" on="0"/>
        <pt x="250" y="1618" on="1"/>
        <pt x="305" y="1618" on="0"/>
        <pt x="413" y="1604" on="0"/>
        <pt x="520" y="1587" on="0"/>
        <pt x="625" y="1573" on="0"/>
        <pt x="676" y="1573" on="1"/>
        <pt x="727" y="1573" on="0"/>
        <pt x="825" y="1592" on="0"/>
        <pt x="875" y="1618" on="1"/>
        <pt x="916" y="1587" on="1"/>
        <pt x="893" y="1557" on="0"/>
        <pt x="859" y="1483" on="0"/>
        <pt x="835" y="1377" on="0"/>
        <pt x="823" y="1230" on="0"/>
        <pt x="823" y="1126" on="1"/>
        <pt x="823" y="819" on="1"/>
        <pt x="1469" y="819" on="1"/>
        <pt x="1469" y="1106" on="1"/>
        <pt x="1469" y="1203" on="0"/>
        <pt x="1479" y="1354" on="0"/>
        <pt x="1498" y="1473" on="0"/>
        <pt x="1526" y="1566" on="0"/>
        <pt x="1563" y="1642" on="0"/>
        <pt x="1607" y="1708" on="0"/>
        <pt x="1632" y="1741" on="1"/>
        <pt x="1673" y="1710" on="1"/>
        <pt x="1658" y="1679" on="0"/>
        <pt x="1635" y="1606" on="0"/>
        <pt x="1620" y="1491" on="0"/>
        <pt x="1612" y="1318" on="0"/>
        <pt x="1612" y="1188" on="1"/>
        <pt x="1612" y="819" on="1"/>
        <pt x="1786" y="819" on="1"/>
        <pt x="1755" y="707" on="1"/>
        <pt x="1720" y="707" on="0"/>
        <pt x="1647" y="707" on="0"/>
        <pt x="1612" y="709" on="1"/>
        <pt x="1612" y="-41" on="1"/>
      </contour>
      <contour>
        <pt x="393" y="51" on="1"/>
        <pt x="462" y="51" on="0"/>
        <pt x="566" y="89" on="0"/>
        <pt x="635" y="177" on="0"/>
        <pt x="670" y="321" on="0"/>
        <pt x="670" y="428" on="1"/>
        <pt x="670" y="764" on="1"/>
        <pt x="639" y="766" on="0"/>
        <pt x="580" y="768" on="0"/>
        <pt x="557" y="768" on="1"/>
        <pt x="470" y="768" on="0"/>
        <pt x="336" y="731" on="0"/>
        <pt x="236" y="669" on="0"/>
        <pt x="167" y="587" on="0"/>
        <pt x="125" y="496" on="0"/>
        <pt x="107" y="401" on="0"/>
        <pt x="107" y="358" on="1"/>
        <pt x="107" y="274" on="0"/>
        <pt x="159" y="157" on="0"/>
        <pt x="241" y="84" on="0"/>
        <pt x="343" y="51" on="0"/>
      </contour>
    </TTGlyph>
    <TTGlyph name="I" xMin="-91" yMin="-51" xMax="902" yMax="1731">
      <contour>
        <pt x="677" y="406" on="1"/>
        <pt x="677" y="433" on="0"/>
        <pt x="674" y="484" on="0"/>
        <pt x="670" y="538" on="0"/>
        <pt x="664" y="599" on="0"/>
        <pt x="661" y="637" on="1"/>
        <pt x="620" y="621" on="0"/>
        <pt x="528" y="604" on="0"/>
        <pt x="472" y="604" on="1"/>
        <pt x="410" y="604" on="0"/>
        <pt x="296" y="643" on="0"/>
        <pt x="208" y="719" on="0"/>
        <pt x="155" y="834" on="0"/>
        <pt x="155" y="911" on="1"/>
        <pt x="155" y="960" on="0"/>
        <pt x="178" y="1051" on="0"/>
        <pt x="236" y="1151" on="0"/>
        <pt x="333" y="1268" on="0"/>
        <pt x="481" y="1418" on="0"/>
        <pt x="684" y="1608" on="0"/>
        <pt x="820" y="1731" on="1"/>
        <pt x="861" y="1700" on="1"/>
        <pt x="839" y="1670" on="0"/>
        <pt x="805" y="1598" on="0"/>
        <pt x="781" y="1504" on="0"/>
        <pt x="769" y="1381" on="0"/>
        <pt x="769" y="1300" on="1"/>
        <pt x="769" y="1179" on="0"/>
        <pt x="787" y="930" on="0"/>
        <pt x="798" y="811" on="1"/>
        <pt x="818" y="839" on="0"/>
        <pt x="849" y="901" on="0"/>
        <pt x="861" y="932" on="1"/>
        <pt x="902" y="911" on="1"/>
        <pt x="882" y="863" on="0"/>
        <pt x="835" y="779" on="0"/>
        <pt x="804" y="743" on="1"/>
        <pt x="809" y="692" on="0"/>
        <pt x="819" y="607" on="0"/>
        <pt x="826" y="533" on="0"/>
        <pt x="831" y="465" on="0"/>
        <pt x="831" y="430" on="1"/>
        <pt x="831" y="322" on="0"/>
        <pt x="792" y="154" on="0"/>
        <pt x="736" y="92" on="1"/>
        <pt x="681" y="29" on="0"/>
        <pt x="478" y="-51" on="0"/>
        <pt x="339" y="-51" on="1"/>
        <pt x="253" y="-51" on="0"/>
        <pt x="97" y="-3" on="0"/>
        <pt x="-21" y="83" on="0"/>
        <pt x="-91" y="203" on="0"/>
        <pt x="-91" y="276" on="1"/>
        <pt x="-91" y="330" on="0"/>
        <pt x="-56" y="416" on="0"/>
        <pt x="0" y="483" on="0"/>
        <pt x="67" y="531" on="0"/>
        <pt x="131" y="563" on="0"/>
        <pt x="183" y="581" on="0"/>
        <pt x="196" y="584" on="1"/>
        <pt x="216" y="543" on="1"/>
        <pt x="193" y="531" on="0"/>
        <pt x="136" y="490" on="0"/>
        <pt x="86" y="427" on="0"/>
        <pt x="52" y="337" on="0"/>
        <pt x="52" y="276" on="1"/>
        <pt x="52" y="211" on="0"/>
        <pt x="96" y="108" on="0"/>
        <pt x="175" y="37" on="0"/>
        <pt x="284" y="0" on="0"/>
        <pt x="349" y="0" on="1"/>
        <pt x="422" y="0" on="0"/>
        <pt x="543" y="40" on="0"/>
        <pt x="629" y="134" on="0"/>
        <pt x="677" y="290" on="0"/>
      </contour>
      <contour>
        <pt x="677" y="1526" on="1"/>
        <pt x="599" y="1451" on="0"/>
        <pt x="479" y="1331" on="0"/>
        <pt x="390" y="1231" on="0"/>
        <pt x="330" y="1146" on="0"/>
        <pt x="294" y="1064" on="0"/>
        <pt x="278" y="980" on="0"/>
        <pt x="278" y="932" on="1"/>
        <pt x="278" y="786" on="0"/>
        <pt x="408" y="655" on="0"/>
        <pt x="523" y="655" on="1"/>
        <pt x="561" y="655" on="0"/>
        <pt x="628" y="670" on="0"/>
        <pt x="657" y="684" on="1"/>
        <pt x="650" y="753" on="0"/>
        <pt x="635" y="892" on="0"/>
        <pt x="623" y="1021" on="0"/>
        <pt x="616" y="1135" on="0"/>
        <pt x="616" y="1178" on="1"/>
        <pt x="616" y="1221" on="0"/>
        <pt x="625" y="1323" on="0"/>
        <pt x="641" y="1420" on="0"/>
        <pt x="663" y="1503" on="0"/>
      </contour>
    </TTGlyph>
    <TTGlyph name="Iacute" xMin="-91" yMin="-51" xMax="902" yMax="2031">
      <component glyphName="I" x="0" y="0" flags="0x1204"/>
      <component glyphName="acute" x="474" y="860" flags="0x1004"/>
    </TTGlyph>
    <TTGlyph name="Icircumflex" xMin="-91" yMin="-51" xMax="908" yMax="2038">
      <component glyphName="I" x="0" y="0" flags="0x1004"/>
      <component glyphName="circumflex" x="376" y="860" flags="0x1004"/>
    </TTGlyph>
    <TTGlyph name="Idieresis" xMin="-91" yMin="-51" xMax="919" yMax="2007">
      <component glyphName="I" x="0" y="0" flags="0x1004"/>
      <component glyphName="dieresis" x="489" y="860" flags="0x1004"/>
    </TTGlyph>
    <TTGlyph name="Igrave" xMin="-91" yMin="-51" xMax="902" yMax="2038">
      <component glyphName="I" x="0" y="0" flags="0x1204"/>
      <component glyphName="grave" x="315" y="860" flags="0x1004"/>
    </TTGlyph>
    <TTGlyph name="J" xMin="-11" yMin="-512" xMax="931" yMax="1679">
      <contour>
        <pt x="491" y="1679" on="1"/>
        <pt x="578" y="1679" on="0"/>
        <pt x="715" y="1574" on="0"/>
        <pt x="810" y="1359" on="0"/>
        <pt x="859" y="1032" on="0"/>
        <pt x="859" y="809" on="1"/>
        <pt x="859" y="783" on="0"/>
        <pt x="857" y="733" on="0"/>
        <pt x="857" y="707" on="1"/>
        <pt x="890" y="748" on="1"/>
        <pt x="931" y="717" on="1"/>
        <pt x="853" y="629" on="1"/>
        <pt x="821" y="339" on="0"/>
        <pt x="703" y="-89" on="0"/>
        <pt x="551" y="-373" on="0"/>
        <pt x="378" y="-512" on="0"/>
        <pt x="290" y="-512" on="1"/>
        <pt x="254" y="-512" on="0"/>
        <pt x="196" y="-483" on="0"/>
        <pt x="154" y="-433" on="0"/>
        <pt x="132" y="-366" on="0"/>
        <pt x="132" y="-328" on="1"/>
        <pt x="132" y="-232" on="0"/>
        <pt x="216" y="-31" on="0"/>
        <pt x="363" y="185" on="0"/>
        <pt x="565" y="417" on="0"/>
        <pt x="683" y="545" on="1"/>
        <pt x="688" y="636" on="0"/>
        <pt x="696" y="828" on="0"/>
        <pt x="696" y="942" on="1"/>
        <pt x="696" y="1139" on="0"/>
        <pt x="667" y="1403" on="0"/>
        <pt x="613" y="1562" on="0"/>
        <pt x="537" y="1628" on="0"/>
        <pt x="491" y="1628" on="1"/>
        <pt x="430" y="1628" on="0"/>
        <pt x="309" y="1519" on="0"/>
        <pt x="213" y="1312" on="0"/>
        <pt x="153" y="1011" on="0"/>
        <pt x="153" y="819" on="1"/>
        <pt x="153" y="718" on="0"/>
        <pt x="185" y="578" on="0"/>
        <pt x="239" y="491" on="0"/>
        <pt x="309" y="451" on="0"/>
        <pt x="347" y="451" on="1"/>
        <pt x="401" y="451" on="0"/>
        <pt x="491" y="524" on="0"/>
        <pt x="557" y="646" on="0"/>
        <pt x="593" y="804" on="0"/>
        <pt x="593" y="889" on="1"/>
        <pt x="593" y="913" on="0"/>
        <pt x="590" y="955" on="0"/>
        <pt x="588" y="971" on="1"/>
        <pt x="585" y="989" on="0"/>
        <pt x="583" y="1004" on="1"/>
        <pt x="634" y="1014" on="1"/>
        <pt x="636" y="1001" on="0"/>
        <pt x="639" y="983" on="1"/>
        <pt x="641" y="967" on="0"/>
        <pt x="644" y="922" on="0"/>
        <pt x="644" y="891" on="1"/>
        <pt x="644" y="799" on="0"/>
        <pt x="600" y="622" on="0"/>
        <pt x="518" y="484" on="0"/>
        <pt x="401" y="399" on="0"/>
        <pt x="327" y="399" on="1"/>
        <pt x="246" y="399" on="0"/>
        <pt x="121" y="466" on="0"/>
        <pt x="34" y="591" on="0"/>
        <pt x="-11" y="770" on="0"/>
        <pt x="-11" y="881" on="1"/>
        <pt x="-11" y="991" on="0"/>
        <pt x="32" y="1195" on="0"/>
        <pt x="106" y="1372" on="0"/>
        <pt x="205" y="1518" on="0"/>
        <pt x="316" y="1622" on="0"/>
        <pt x="435" y="1679" on="0"/>
      </contour>
      <contour>
        <pt x="327" y="-451" on="1"/>
        <pt x="350" y="-451" on="0"/>
        <pt x="413" y="-422" on="0"/>
        <pt x="481" y="-346" on="0"/>
        <pt x="551" y="-215" on="0"/>
        <pt x="613" y="-13" on="0"/>
        <pt x="663" y="271" on="0"/>
        <pt x="677" y="461" on="1"/>
        <pt x="572" y="342" on="0"/>
        <pt x="408" y="151" on="0"/>
        <pt x="294" y="-23" on="0"/>
        <pt x="235" y="-192" on="0"/>
        <pt x="235" y="-287" on="1"/>
        <pt x="235" y="-359" on="0"/>
        <pt x="284" y="-451" on="0"/>
      </contour>
    </TTGlyph>
    <TTGlyph name="K" xMin="-221" yMin="-184" xMax="1698" yMax="1677">
      <contour>
        <pt x="1438" y="1577" on="1"/>
        <pt x="1364" y="1577" on="1"/>
        <pt x="1313" y="1577" on="0"/>
        <pt x="1247" y="1533" on="0"/>
        <pt x="1204" y="1459" on="0"/>
        <pt x="1178" y="1359" on="0"/>
        <pt x="1155" y="1246" on="0"/>
        <pt x="1129" y="1127" on="0"/>
        <pt x="1085" y="1014" on="0"/>
        <pt x="1017" y="912" on="0"/>
        <pt x="965" y="874" on="1"/>
        <pt x="1018" y="832" on="0"/>
        <pt x="1093" y="713" on="0"/>
        <pt x="1147" y="573" on="0"/>
        <pt x="1187" y="420" on="0"/>
        <pt x="1224" y="268" on="0"/>
        <pt x="1263" y="126" on="0"/>
        <pt x="1318" y="7" on="0"/>
        <pt x="1393" y="-80" on="0"/>
        <pt x="1446" y="-100" on="1"/>
        <pt x="1497" y="-120" on="0"/>
        <pt x="1615" y="-133" on="0"/>
        <pt x="1694" y="-133" on="1"/>
        <pt x="1698" y="-174" on="1"/>
        <pt x="1685" y="-177" on="0"/>
        <pt x="1668" y="-179" on="1"/>
        <pt x="1654" y="-181" on="0"/>
        <pt x="1612" y="-184" on="0"/>
        <pt x="1585" y="-184" on="1"/>
        <pt x="1441" y="-184" on="0"/>
        <pt x="1250" y="-116" on="0"/>
        <pt x="1129" y="0" on="0"/>
        <pt x="1066" y="152" on="0"/>
        <pt x="1033" y="320" on="0"/>
        <pt x="1016" y="495" on="0"/>
        <pt x="989" y="654" on="0"/>
        <pt x="938" y="787" on="0"/>
        <pt x="887" y="831" on="1"/>
        <pt x="849" y="816" on="0"/>
        <pt x="756" y="794" on="0"/>
        <pt x="700" y="791" on="1"/>
        <pt x="700" y="512" on="1"/>
        <pt x="700" y="428" on="0"/>
        <pt x="695" y="303" on="0"/>
        <pt x="676" y="206" on="0"/>
        <pt x="638" y="129" on="0"/>
        <pt x="606" y="92" on="1"/>
        <pt x="551" y="29" on="0"/>
        <pt x="348" y="-51" on="0"/>
        <pt x="209" y="-51" on="1"/>
        <pt x="123" y="-51" on="0"/>
        <pt x="-33" y="-3" on="0"/>
        <pt x="-151" y="83" on="0"/>
        <pt x="-221" y="203" on="0"/>
        <pt x="-221" y="276" on="1"/>
        <pt x="-221" y="330" on="0"/>
        <pt x="-186" y="416" on="0"/>
        <pt x="-131" y="483" on="0"/>
        <pt x="-63" y="531" on="0"/>
        <pt x="0" y="563" on="0"/>
        <pt x="53" y="581" on="0"/>
        <pt x="66" y="584" on="1"/>
        <pt x="86" y="543" on="1"/>
        <pt x="63" y="531" on="0"/>
        <pt x="6" y="490" on="0"/>
        <pt x="-44" y="427" on="0"/>
        <pt x="-78" y="337" on="0"/>
        <pt x="-78" y="276" on="1"/>
        <pt x="-78" y="211" on="0"/>
        <pt x="-34" y="108" on="0"/>
        <pt x="45" y="37" on="0"/>
        <pt x="154" y="0" on="0"/>
        <pt x="219" y="0" on="1"/>
        <pt x="292" y="0" on="0"/>
        <pt x="413" y="40" on="0"/>
        <pt x="499" y="134" on="0"/>
        <pt x="547" y="290" on="0"/>
        <pt x="547" y="406" on="1"/>
        <pt x="547" y="797" on="1"/>
        <pt x="518" y="803" on="0"/>
        <pt x="479" y="822" on="0"/>
        <pt x="456" y="845" on="0"/>
        <pt x="446" y="869" on="0"/>
        <pt x="446" y="881" on="1"/>
        <pt x="446" y="892" on="0"/>
        <pt x="456" y="917" on="0"/>
        <pt x="479" y="939" on="0"/>
        <pt x="518" y="959" on="0"/>
        <pt x="547" y="965" on="1"/>
        <pt x="547" y="1047" on="1"/>
        <pt x="547" y="1127" on="0"/>
        <pt x="554" y="1272" on="0"/>
        <pt x="584" y="1409" on="0"/>
        <pt x="646" y="1538" on="0"/>
        <pt x="700" y="1602" on="1"/>
        <pt x="649" y="1570" on="0"/>
        <pt x="541" y="1546" on="0"/>
        <pt x="485" y="1546" on="1"/>
        <pt x="416" y="1546" on="0"/>
        <pt x="273" y="1565" on="0"/>
        <pt x="199" y="1565" on="1"/>
        <pt x="157" y="1565" on="0"/>
        <pt x="95" y="1543" on="0"/>
        <pt x="54" y="1507" on="0"/>
        <pt x="35" y="1459" on="0"/>
        <pt x="35" y="1432" on="1"/>
        <pt x="35" y="1405" on="0"/>
        <pt x="61" y="1353" on="0"/>
        <pt x="111" y="1313" on="0"/>
        <pt x="183" y="1288" on="0"/>
        <pt x="229" y="1288" on="1"/>
        <pt x="271" y="1288" on="0"/>
        <pt x="340" y="1304" on="0"/>
        <pt x="364" y="1314" on="1"/>
        <pt x="392" y="1325" on="0"/>
        <pt x="414" y="1341" on="1"/>
        <pt x="434" y="1298" on="1"/>
        <pt x="407" y="1280" on="0"/>
        <pt x="374" y="1267" on="1"/>
        <pt x="346" y="1256" on="0"/>
        <pt x="271" y="1237" on="0"/>
        <pt x="229" y="1237" on="1"/>
        <pt x="172" y="1237" on="0"/>
        <pt x="77" y="1270" on="0"/>
        <pt x="10" y="1327" on="0"/>
        <pt x="-27" y="1406" on="0"/>
        <pt x="-27" y="1452" on="1"/>
        <pt x="-27" y="1506" on="0"/>
        <pt x="13" y="1589" on="0"/>
        <pt x="82" y="1647" on="0"/>
        <pt x="175" y="1677" on="0"/>
        <pt x="229" y="1677" on="1"/>
        <pt x="284" y="1677" on="0"/>
        <pt x="380" y="1664" on="0"/>
        <pt x="467" y="1649" on="0"/>
        <pt x="548" y="1636" on="0"/>
        <pt x="588" y="1636" on="1"/>
        <pt x="628" y="1636" on="0"/>
        <pt x="708" y="1654" on="0"/>
        <pt x="752" y="1677" on="1"/>
        <pt x="793" y="1647" on="1"/>
        <pt x="770" y="1617" on="0"/>
        <pt x="736" y="1543" on="0"/>
        <pt x="712" y="1437" on="0"/>
        <pt x="700" y="1289" on="0"/>
        <pt x="700" y="1186" on="1"/>
        <pt x="700" y="969" on="1"/>
        <pt x="810" y="960" on="0"/>
        <pt x="887" y="924" on="1"/>
        <pt x="939" y="960" on="0"/>
        <pt x="992" y="1059" on="0"/>
        <pt x="1017" y="1171" on="0"/>
        <pt x="1025" y="1291" on="0"/>
        <pt x="1037" y="1405" on="0"/>
        <pt x="1065" y="1507" on="0"/>
        <pt x="1130" y="1583" on="0"/>
        <pt x="1243" y="1628" on="0"/>
        <pt x="1335" y="1628" on="1"/>
        <pt x="1438" y="1628" on="1"/>
      </contour>
      <contour>
        <pt x="700" y="858" on="1"/>
        <pt x="757" y="864" on="0"/>
        <pt x="805" y="881" on="1"/>
        <pt x="758" y="899" on="0"/>
        <pt x="700" y="905" on="1"/>
      </contour>
      <contour>
        <pt x="498" y="881" on="1"/>
        <pt x="498" y="868" on="0"/>
        <pt x="519" y="853" on="0"/>
        <pt x="547" y="850" on="1"/>
        <pt x="547" y="907" on="1"/>
        <pt x="516" y="904" on="0"/>
        <pt x="498" y="890" on="0"/>
      </contour>
    </TTGlyph>
    <TTGlyph name="L" xMin="-161" yMin="-236" xMax="1197" yMax="1679">
      <contour>
        <pt x="654" y="1137" on="1"/>
        <pt x="708" y="1183" on="0"/>
        <pt x="767" y="1318" on="0"/>
        <pt x="767" y="1403" on="1"/>
        <pt x="767" y="1449" on="0"/>
        <pt x="744" y="1531" on="0"/>
        <pt x="699" y="1592" on="0"/>
        <pt x="634" y="1628" on="0"/>
        <pt x="593" y="1628" on="1"/>
        <pt x="558" y="1628" on="0"/>
        <pt x="495" y="1597" on="0"/>
        <pt x="447" y="1536" on="0"/>
        <pt x="418" y="1443" on="0"/>
        <pt x="418" y="1382" on="1"/>
        <pt x="418" y="1321" on="0"/>
        <pt x="437" y="1152" on="0"/>
        <pt x="461" y="945" on="0"/>
        <pt x="480" y="705" on="0"/>
        <pt x="480" y="573" on="1"/>
        <pt x="480" y="505" on="0"/>
        <pt x="457" y="384" on="0"/>
        <pt x="415" y="280" on="0"/>
        <pt x="358" y="192" on="0"/>
        <pt x="324" y="156" on="1"/>
        <pt x="380" y="130" on="0"/>
        <pt x="489" y="68" on="0"/>
        <pt x="595" y="5" on="0"/>
        <pt x="703" y="-54" on="0"/>
        <pt x="813" y="-99" on="0"/>
        <pt x="929" y="-127" on="0"/>
        <pt x="992" y="-127" on="1"/>
        <pt x="1111" y="-127" on="0"/>
        <pt x="1176" y="-92" on="1"/>
        <pt x="1197" y="-119" on="1"/>
        <pt x="1176" y="-137" on="0"/>
        <pt x="1103" y="-178" on="0"/>
        <pt x="1012" y="-213" on="0"/>
        <pt x="910" y="-236" on="0"/>
        <pt x="859" y="-236" on="1"/>
        <pt x="750" y="-236" on="0"/>
        <pt x="566" y="-175" on="0"/>
        <pt x="410" y="-85" on="0"/>
        <pt x="276" y="19" on="0"/>
        <pt x="216" y="63" on="1"/>
        <pt x="157" y="26" on="0"/>
        <pt x="38" y="-10" on="0"/>
        <pt x="-12" y="-10" on="1"/>
        <pt x="-54" y="-10" on="0"/>
        <pt x="-111" y="11" on="0"/>
        <pt x="-146" y="43" on="0"/>
        <pt x="-161" y="83" on="0"/>
        <pt x="-161" y="102" on="1"/>
        <pt x="-161" y="125" on="0"/>
        <pt x="-133" y="169" on="0"/>
        <pt x="-80" y="204" on="0"/>
        <pt x="-6" y="225" on="0"/>
        <pt x="40" y="225" on="1"/>
        <pt x="91" y="225" on="0"/>
        <pt x="186" y="207" on="0"/>
        <pt x="232" y="193" on="1"/>
        <pt x="269" y="251" on="0"/>
        <pt x="316" y="422" on="0"/>
        <pt x="316" y="543" on="1"/>
        <pt x="316" y="675" on="0"/>
        <pt x="297" y="892" on="0"/>
        <pt x="274" y="1083" on="0"/>
        <pt x="255" y="1260" on="0"/>
        <pt x="255" y="1352" on="1"/>
        <pt x="255" y="1433" on="0"/>
        <pt x="314" y="1556" on="0"/>
        <pt x="407" y="1638" on="0"/>
        <pt x="524" y="1679" on="0"/>
        <pt x="582" y="1679" on="1"/>
        <pt x="647" y="1679" on="0"/>
        <pt x="756" y="1639" on="0"/>
        <pt x="835" y="1570" on="0"/>
        <pt x="879" y="1477" on="0"/>
        <pt x="879" y="1423" on="1"/>
        <pt x="879" y="1365" on="0"/>
        <pt x="841" y="1264" on="0"/>
        <pt x="784" y="1181" on="0"/>
        <pt x="716" y="1117" on="0"/>
        <pt x="685" y="1096" on="1"/>
      </contour>
      <contour>
        <pt x="-12" y="41" on="1"/>
        <pt x="26" y="41" on="0"/>
        <pt x="114" y="70" on="0"/>
        <pt x="156" y="104" on="1"/>
        <pt x="114" y="130" on="0"/>
        <pt x="37" y="164" on="0"/>
        <pt x="-1" y="164" on="1"/>
        <pt x="-45" y="164" on="0"/>
        <pt x="-104" y="133" on="0"/>
        <pt x="-104" y="102" on="1"/>
        <pt x="-104" y="71" on="0"/>
        <pt x="-54" y="41" on="0"/>
      </contour>
    </TTGlyph>
    <TTGlyph name="Lslash" xMin="-161" yMin="-236" xMax="1197" yMax="1679">
      <contour>
        <pt x="654" y="1137" on="1"/>
        <pt x="708" y="1183" on="0"/>
        <pt x="767" y="1318" on="0"/>
        <pt x="767" y="1403" on="1"/>
        <pt x="767" y="1449" on="0"/>
        <pt x="744" y="1531" on="0"/>
        <pt x="699" y="1592" on="0"/>
        <pt x="634" y="1628" on="0"/>
        <pt x="593" y="1628" on="1"/>
        <pt x="558" y="1628" on="0"/>
        <pt x="495" y="1597" on="0"/>
        <pt x="447" y="1536" on="0"/>
        <pt x="418" y="1443" on="0"/>
        <pt x="418" y="1382" on="1"/>
        <pt x="418" y="1334" on="0"/>
        <pt x="430" y="1211" on="0"/>
        <pt x="447" y="1063" on="0"/>
        <pt x="466" y="893" on="0"/>
        <pt x="472" y="799" on="1"/>
        <pt x="532" y="791" on="0"/>
        <pt x="631" y="778" on="0"/>
        <pt x="654" y="778" on="1"/>
        <pt x="694" y="778" on="0"/>
        <pt x="751" y="796" on="0"/>
        <pt x="767" y="819" on="1"/>
        <pt x="797" y="799" on="1"/>
        <pt x="735" y="676" on="0"/>
        <pt x="633" y="676" on="1"/>
        <pt x="596" y="676" on="0"/>
        <pt x="521" y="694" on="0"/>
        <pt x="476" y="705" on="1"/>
        <pt x="478" y="673" on="0"/>
        <pt x="480" y="607" on="0"/>
        <pt x="480" y="573" on="1"/>
        <pt x="480" y="505" on="0"/>
        <pt x="457" y="384" on="0"/>
        <pt x="415" y="280" on="0"/>
        <pt x="358" y="192" on="0"/>
        <pt x="324" y="156" on="1"/>
        <pt x="380" y="130" on="0"/>
        <pt x="489" y="68" on="0"/>
        <pt x="595" y="5" on="0"/>
        <pt x="703" y="-54" on="0"/>
        <pt x="813" y="-99" on="0"/>
        <pt x="929" y="-127" on="0"/>
        <pt x="992" y="-127" on="1"/>
        <pt x="1111" y="-127" on="0"/>
        <pt x="1176" y="-92" on="1"/>
        <pt x="1197" y="-119" on="1"/>
        <pt x="1176" y="-137" on="0"/>
        <pt x="1103" y="-178" on="0"/>
        <pt x="1012" y="-213" on="0"/>
        <pt x="910" y="-236" on="0"/>
        <pt x="859" y="-236" on="1"/>
        <pt x="750" y="-236" on="0"/>
        <pt x="566" y="-175" on="0"/>
        <pt x="410" y="-85" on="0"/>
        <pt x="276" y="19" on="0"/>
        <pt x="216" y="63" on="1"/>
        <pt x="157" y="26" on="0"/>
        <pt x="38" y="-10" on="0"/>
        <pt x="-12" y="-10" on="1"/>
        <pt x="-54" y="-10" on="0"/>
        <pt x="-111" y="11" on="0"/>
        <pt x="-146" y="43" on="0"/>
        <pt x="-161" y="83" on="0"/>
        <pt x="-161" y="102" on="1"/>
        <pt x="-161" y="125" on="0"/>
        <pt x="-133" y="169" on="0"/>
        <pt x="-80" y="204" on="0"/>
        <pt x="-6" y="225" on="0"/>
        <pt x="40" y="225" on="1"/>
        <pt x="91" y="225" on="0"/>
        <pt x="186" y="207" on="0"/>
        <pt x="232" y="193" on="1"/>
        <pt x="269" y="251" on="0"/>
        <pt x="316" y="422" on="0"/>
        <pt x="316" y="543" on="1"/>
        <pt x="316" y="644" on="0"/>
        <pt x="310" y="733" on="1"/>
        <pt x="290" y="735" on="0"/>
        <pt x="247" y="737" on="0"/>
        <pt x="224" y="737" on="1"/>
        <pt x="190" y="737" on="0"/>
        <pt x="140" y="717" on="0"/>
        <pt x="105" y="690" on="0"/>
        <pt x="85" y="663" on="0"/>
        <pt x="81" y="655" on="1"/>
        <pt x="40" y="686" on="1"/>
        <pt x="71" y="748" on="0"/>
        <pt x="170" y="819" on="0"/>
        <pt x="244" y="819" on="1"/>
        <pt x="257" y="819" on="0"/>
        <pt x="287" y="817" on="0"/>
        <pt x="304" y="817" on="1"/>
        <pt x="297" y="893" on="0"/>
        <pt x="280" y="1030" on="0"/>
        <pt x="265" y="1159" on="0"/>
        <pt x="255" y="1286" on="0"/>
        <pt x="255" y="1352" on="1"/>
        <pt x="255" y="1433" on="0"/>
        <pt x="314" y="1556" on="0"/>
        <pt x="407" y="1638" on="0"/>
        <pt x="524" y="1679" on="0"/>
        <pt x="582" y="1679" on="1"/>
        <pt x="647" y="1679" on="0"/>
        <pt x="756" y="1639" on="0"/>
        <pt x="835" y="1570" on="0"/>
        <pt x="879" y="1477" on="0"/>
        <pt x="879" y="1423" on="1"/>
        <pt x="879" y="1365" on="0"/>
        <pt x="841" y="1264" on="0"/>
        <pt x="784" y="1181" on="0"/>
        <pt x="716" y="1117" on="0"/>
        <pt x="685" y="1096" on="1"/>
      </contour>
      <contour>
        <pt x="-12" y="41" on="1"/>
        <pt x="26" y="41" on="0"/>
        <pt x="114" y="70" on="0"/>
        <pt x="156" y="104" on="1"/>
        <pt x="114" y="130" on="0"/>
        <pt x="37" y="164" on="0"/>
        <pt x="-1" y="164" on="1"/>
        <pt x="-45" y="164" on="0"/>
        <pt x="-104" y="133" on="0"/>
        <pt x="-104" y="102" on="1"/>
        <pt x="-104" y="71" on="0"/>
        <pt x="-54" y="41" on="0"/>
      </contour>
    </TTGlyph>
    <TTGlyph name="M" xMin="-261" yMin="-51" xMax="1725" yMax="1677">
      <contour>
        <pt x="517" y="1677" on="1"/>
        <pt x="531" y="1639" on="0"/>
        <pt x="571" y="1488" on="0"/>
        <pt x="619" y="1290" on="0"/>
        <pt x="672" y="1058" on="0"/>
        <pt x="725" y="818" on="0"/>
        <pt x="776" y="584" on="0"/>
        <pt x="820" y="384" on="0"/>
        <pt x="855" y="229" on="0"/>
        <pt x="865" y="188" on="1"/>
        <pt x="887" y="244" on="0"/>
        <pt x="946" y="408" on="0"/>
        <pt x="1015" y="603" on="0"/>
        <pt x="1090" y="822" on="0"/>
        <pt x="1167" y="1045" on="0"/>
        <pt x="1245" y="1263" on="0"/>
        <pt x="1317" y="1458" on="0"/>
        <pt x="1382" y="1621" on="0"/>
        <pt x="1408" y="1677" on="1"/>
        <pt x="1490" y="1667" on="1"/>
        <pt x="1472" y="1604" on="0"/>
        <pt x="1436" y="1437" on="0"/>
        <pt x="1403" y="1242" on="0"/>
        <pt x="1373" y="1027" on="0"/>
        <pt x="1351" y="809" on="0"/>
        <pt x="1338" y="595" on="0"/>
        <pt x="1338" y="498" on="1"/>
        <pt x="1338" y="309" on="0"/>
        <pt x="1392" y="113" on="0"/>
        <pt x="1449" y="113" on="1"/>
        <pt x="1474" y="113" on="0"/>
        <pt x="1521" y="153" on="0"/>
        <pt x="1574" y="233" on="0"/>
        <pt x="1635" y="352" on="0"/>
        <pt x="1674" y="430" on="1"/>
        <pt x="1684" y="451" on="1"/>
        <pt x="1725" y="420" on="1"/>
        <pt x="1715" y="399" on="1"/>
        <pt x="1665" y="299" on="0"/>
        <pt x="1586" y="150" on="0"/>
        <pt x="1513" y="50" on="0"/>
        <pt x="1440" y="0" on="0"/>
        <pt x="1397" y="0" on="1"/>
        <pt x="1337" y="0" on="0"/>
        <pt x="1257" y="59" on="0"/>
        <pt x="1208" y="168" on="0"/>
        <pt x="1187" y="324" on="0"/>
        <pt x="1187" y="422" on="1"/>
        <pt x="1187" y="529" on="0"/>
        <pt x="1209" y="764" on="0"/>
        <pt x="1240" y="986" on="0"/>
        <pt x="1273" y="1175" on="0"/>
        <pt x="1285" y="1237" on="1"/>
        <pt x="834" y="-51" on="1"/>
        <pt x="752" y="-31" on="1"/>
        <pt x="752" y="-10" on="0"/>
        <pt x="726" y="127" on="0"/>
        <pt x="684" y="322" on="0"/>
        <pt x="631" y="557" on="0"/>
        <pt x="603" y="676" on="1"/>
        <pt x="538" y="956" on="0"/>
        <pt x="455" y="1298" on="1"/>
        <pt x="458" y="1226" on="0"/>
        <pt x="462" y="1153" on="1"/>
        <pt x="465" y="1090" on="0"/>
        <pt x="470" y="947" on="0"/>
        <pt x="470" y="885" on="1"/>
        <pt x="470" y="704" on="0"/>
        <pt x="429" y="424" on="0"/>
        <pt x="359" y="217" on="0"/>
        <pt x="265" y="75" on="0"/>
        <pt x="159" y="-11" on="0"/>
        <pt x="48" y="-49" on="0"/>
        <pt x="-5" y="-49" on="1"/>
        <pt x="-58" y="-49" on="0"/>
        <pt x="-151" y="-14" on="0"/>
        <pt x="-220" y="49" on="0"/>
        <pt x="-261" y="134" on="0"/>
        <pt x="-261" y="184" on="1"/>
        <pt x="-261" y="243" on="0"/>
        <pt x="-222" y="351" on="0"/>
        <pt x="-153" y="446" on="0"/>
        <pt x="-59" y="528" on="0"/>
        <pt x="-5" y="563" on="1"/>
        <pt x="25" y="532" on="1"/>
        <pt x="-13" y="505" on="0"/>
        <pt x="-77" y="438" on="0"/>
        <pt x="-123" y="361" on="0"/>
        <pt x="-149" y="278" on="0"/>
        <pt x="-149" y="236" on="1"/>
        <pt x="-149" y="197" on="0"/>
        <pt x="-124" y="129" on="0"/>
        <pt x="-77" y="77" on="0"/>
        <pt x="-12" y="47" on="0"/>
        <pt x="29" y="47" on="1"/>
        <pt x="71" y="47" on="0"/>
        <pt x="161" y="82" on="0"/>
        <pt x="246" y="163" on="0"/>
        <pt x="323" y="296" on="0"/>
        <pt x="380" y="491" on="0"/>
        <pt x="414" y="753" on="0"/>
        <pt x="414" y="924" on="1"/>
        <pt x="414" y="973" on="0"/>
        <pt x="409" y="1105" on="0"/>
        <pt x="400" y="1249" on="0"/>
        <pt x="388" y="1394" on="0"/>
        <pt x="375" y="1519" on="0"/>
        <pt x="360" y="1614" on="0"/>
        <pt x="353" y="1636" on="1"/>
      </contour>
    </TTGlyph>
    <TTGlyph name="N" xMin="-71" yMin="-63" xMax="1504" yMax="1679">
      <contour>
        <pt x="162" y="1679" on="1"/>
        <pt x="210" y="1679" on="0"/>
        <pt x="301" y="1588" on="0"/>
        <pt x="383" y="1433" on="0"/>
        <pt x="453" y="1228" on="0"/>
        <pt x="482" y="1114" on="1"/>
        <pt x="553" y="1022" on="0"/>
        <pt x="713" y="820" on="0"/>
        <pt x="884" y="612" on="0"/>
        <pt x="1061" y="403" on="0"/>
        <pt x="1149" y="303" on="1"/>
        <pt x="1086" y="580" on="0"/>
        <pt x="1022" y="1022" on="0"/>
        <pt x="1022" y="1190" on="1"/>
        <pt x="1022" y="1311" on="0"/>
        <pt x="1069" y="1494" on="0"/>
        <pt x="1149" y="1617" on="0"/>
        <pt x="1257" y="1679" on="0"/>
        <pt x="1319" y="1679" on="1"/>
        <pt x="1365" y="1679" on="0"/>
        <pt x="1434" y="1647" on="0"/>
        <pt x="1481" y="1593" on="0"/>
        <pt x="1504" y="1523" on="0"/>
        <pt x="1504" y="1485" on="1"/>
        <pt x="1504" y="1434" on="0"/>
        <pt x="1483" y="1346" on="0"/>
        <pt x="1471" y="1313" on="1"/>
        <pt x="1456" y="1274" on="0"/>
        <pt x="1438" y="1241" on="1"/>
        <pt x="1399" y="1266" on="1"/>
        <pt x="1403" y="1275" on="0"/>
        <pt x="1418" y="1310" on="0"/>
        <pt x="1432" y="1361" on="0"/>
        <pt x="1442" y="1426" on="0"/>
        <pt x="1442" y="1464" on="1"/>
        <pt x="1442" y="1526" on="0"/>
        <pt x="1386" y="1597" on="0"/>
        <pt x="1340" y="1597" on="1"/>
        <pt x="1280" y="1597" on="0"/>
        <pt x="1197" y="1516" on="0"/>
        <pt x="1146" y="1373" on="0"/>
        <pt x="1123" y="1180" on="0"/>
        <pt x="1123" y="1069" on="1"/>
        <pt x="1123" y="965" on="0"/>
        <pt x="1141" y="740" on="0"/>
        <pt x="1172" y="515" on="0"/>
        <pt x="1213" y="299" on="0"/>
        <pt x="1237" y="205" on="1"/>
        <pt x="1381" y="51" on="1"/>
        <pt x="1260" y="-63" on="1"/>
        <pt x="1201" y="-6" on="0"/>
        <pt x="1032" y="170" on="0"/>
        <pt x="836" y="392" on="0"/>
        <pt x="623" y="650" on="0"/>
        <pt x="520" y="788" on="1"/>
        <pt x="530" y="731" on="0"/>
        <pt x="537" y="604" on="0"/>
        <pt x="537" y="528" on="1"/>
        <pt x="537" y="389" on="0"/>
        <pt x="471" y="190" on="0"/>
        <pt x="366" y="61" on="0"/>
        <pt x="237" y="0" on="0"/>
        <pt x="174" y="0" on="1"/>
        <pt x="125" y="0" on="0"/>
        <pt x="36" y="34" on="0"/>
        <pt x="-31" y="100" on="0"/>
        <pt x="-71" y="195" on="0"/>
        <pt x="-71" y="256" on="1"/>
        <pt x="-71" y="349" on="0"/>
        <pt x="19" y="523" on="0"/>
        <pt x="88" y="600" on="1"/>
        <pt x="127" y="580" on="1"/>
        <pt x="107" y="550" on="0"/>
        <pt x="72" y="482" on="0"/>
        <pt x="45" y="411" on="0"/>
        <pt x="29" y="337" on="0"/>
        <pt x="29" y="301" on="1"/>
        <pt x="29" y="255" on="0"/>
        <pt x="58" y="180" on="0"/>
        <pt x="106" y="127" on="0"/>
        <pt x="171" y="98" on="0"/>
        <pt x="207" y="98" on="1"/>
        <pt x="254" y="98" on="0"/>
        <pt x="351" y="153" on="0"/>
        <pt x="430" y="274" on="0"/>
        <pt x="480" y="467" on="0"/>
        <pt x="480" y="604" on="1"/>
        <pt x="480" y="683" on="0"/>
        <pt x="461" y="832" on="0"/>
        <pt x="443" y="897" on="1"/>
        <pt x="334" y="1052" on="0"/>
        <pt x="193" y="1278" on="0"/>
        <pt x="112" y="1439" on="0"/>
        <pt x="80" y="1543" on="0"/>
        <pt x="80" y="1577" on="1"/>
        <pt x="80" y="1631" on="0"/>
        <pt x="131" y="1679" on="0"/>
      </contour>
      <contour>
        <pt x="142" y="1608" on="1"/>
        <pt x="142" y="1598" on="0"/>
        <pt x="177" y="1535" on="0"/>
        <pt x="242" y="1438" on="0"/>
        <pt x="334" y="1310" on="0"/>
        <pt x="391" y="1235" on="1"/>
        <pt x="366" y="1314" on="0"/>
        <pt x="307" y="1457" on="0"/>
        <pt x="247" y="1565" on="0"/>
        <pt x="187" y="1628" on="0"/>
        <pt x="162" y="1628" on="1"/>
        <pt x="142" y="1628" on="0"/>
      </contour>
    </TTGlyph>
    <TTGlyph name="Ntilde" xMin="-71" yMin="-63" xMax="1504" yMax="2007">
      <component glyphName="N" x="0" y="0" flags="0x1204"/>
      <component glyphName="tilde" x="498" y="860" flags="0x1004"/>
    </TTGlyph>
    <TTGlyph name="O" xMin="-11" yMin="-51" xMax="1312" yMax="1679">
      <contour>
        <pt x="265" y="967" on="1"/>
        <pt x="265" y="1040" on="0"/>
        <pt x="291" y="1203" on="0"/>
        <pt x="346" y="1361" on="0"/>
        <pt x="429" y="1505" on="0"/>
        <pt x="543" y="1614" on="0"/>
        <pt x="688" y="1679" on="0"/>
        <pt x="777" y="1679" on="1"/>
        <pt x="868" y="1679" on="0"/>
        <pt x="1018" y="1618" on="0"/>
        <pt x="1136" y="1509" on="0"/>
        <pt x="1225" y="1359" on="0"/>
        <pt x="1283" y="1181" on="0"/>
        <pt x="1312" y="982" on="0"/>
        <pt x="1312" y="879" on="1"/>
        <pt x="1312" y="765" on="0"/>
        <pt x="1275" y="539" on="0"/>
        <pt x="1202" y="332" on="0"/>
        <pt x="1092" y="154" on="0"/>
        <pt x="946" y="24" on="0"/>
        <pt x="763" y="-51" on="0"/>
        <pt x="654" y="-51" on="1"/>
        <pt x="552" y="-51" on="0"/>
        <pt x="374" y="12" on="0"/>
        <pt x="226" y="127" on="0"/>
        <pt x="110" y="286" on="0"/>
        <pt x="31" y="477" on="0"/>
        <pt x="-11" y="694" on="0"/>
        <pt x="-11" y="809" on="1"/>
        <pt x="-11" y="922" on="0"/>
        <pt x="30" y="1116" on="0"/>
        <pt x="98" y="1280" on="0"/>
        <pt x="185" y="1414" on="0"/>
        <pt x="279" y="1520" on="0"/>
        <pt x="371" y="1598" on="0"/>
        <pt x="410" y="1624" on="1"/>
        <pt x="453" y="1595" on="1"/>
        <pt x="384" y="1539" on="0"/>
        <pt x="273" y="1375" on="0"/>
        <pt x="194" y="1171" on="0"/>
        <pt x="152" y="936" on="0"/>
        <pt x="152" y="809" on="1"/>
        <pt x="152" y="594" on="0"/>
        <pt x="237" y="288" on="0"/>
        <pt x="377" y="92" on="0"/>
        <pt x="558" y="0" on="0"/>
        <pt x="654" y="0" on="1"/>
        <pt x="758" y="0" on="0"/>
        <pt x="936" y="92" on="0"/>
        <pt x="1067" y="288" on="0"/>
        <pt x="1142" y="594" on="0"/>
        <pt x="1142" y="809" on="1"/>
        <pt x="1142" y="1015" on="0"/>
        <pt x="1079" y="1319" on="0"/>
        <pt x="970" y="1518" on="0"/>
        <pt x="824" y="1616" on="0"/>
        <pt x="742" y="1616" on="1"/>
        <pt x="678" y="1616" on="0"/>
        <pt x="576" y="1558" on="0"/>
        <pt x="499" y="1457" on="0"/>
        <pt x="443" y="1322" on="0"/>
        <pt x="408" y="1168" on="0"/>
        <pt x="392" y="1005" on="0"/>
        <pt x="392" y="926" on="1"/>
        <pt x="392" y="832" on="0"/>
        <pt x="404" y="703" on="0"/>
        <pt x="412" y="663" on="1"/>
        <pt x="421" y="616" on="0"/>
        <pt x="433" y="588" on="1"/>
        <pt x="374" y="573" on="1"/>
        <pt x="360" y="589" on="0"/>
        <pt x="323" y="647" on="0"/>
        <pt x="289" y="741" on="0"/>
        <pt x="265" y="875" on="0"/>
      </contour>
    </TTGlyph>
    <TTGlyph name="OE" xMin="-11" yMin="-37" xMax="2109" yMax="1681">
      <contour>
        <pt x="1033" y="989" on="1"/>
        <pt x="1024" y="1060" on="0"/>
        <pt x="990" y="1177" on="0"/>
        <pt x="970" y="1225" on="1"/>
        <pt x="950" y="1223" on="0"/>
        <pt x="910" y="1223" on="0"/>
        <pt x="890" y="1223" on="1"/>
        <pt x="809" y="1223" on="0"/>
        <pt x="687" y="1250" on="0"/>
        <pt x="604" y="1298" on="0"/>
        <pt x="562" y="1364" on="0"/>
        <pt x="562" y="1403" on="1"/>
        <pt x="562" y="1437" on="0"/>
        <pt x="588" y="1492" on="0"/>
        <pt x="633" y="1532" on="0"/>
        <pt x="693" y="1554" on="0"/>
        <pt x="728" y="1554" on="1"/>
        <pt x="766" y="1554" on="0"/>
        <pt x="848" y="1521" on="0"/>
        <pt x="928" y="1455" on="0"/>
        <pt x="1001" y="1353" on="0"/>
        <pt x="1031" y="1284" on="1"/>
        <pt x="1115" y="1296" on="1"/>
        <pt x="1109" y="1322" on="0"/>
        <pt x="1105" y="1373" on="0"/>
        <pt x="1105" y="1399" on="1"/>
        <pt x="1105" y="1458" on="0"/>
        <pt x="1138" y="1561" on="0"/>
        <pt x="1201" y="1637" on="0"/>
        <pt x="1294" y="1681" on="0"/>
        <pt x="1355" y="1681" on="1"/>
        <pt x="1397" y="1681" on="0"/>
        <pt x="1461" y="1657" on="0"/>
        <pt x="1504" y="1616" on="0"/>
        <pt x="1525" y="1559" on="0"/>
        <pt x="1525" y="1526" on="1"/>
        <pt x="1525" y="1487" on="0"/>
        <pt x="1483" y="1413" on="0"/>
        <pt x="1404" y="1345" on="0"/>
        <pt x="1292" y="1289" on="0"/>
        <pt x="1222" y="1268" on="1"/>
        <pt x="1233" y="1221" on="0"/>
        <pt x="1289" y="1129" on="0"/>
        <pt x="1337" y="1098" on="1"/>
        <pt x="1363" y="1101" on="0"/>
        <pt x="1415" y="1106" on="0"/>
        <pt x="1443" y="1106" on="1"/>
        <pt x="1503" y="1106" on="0"/>
        <pt x="1556" y="1071" on="0"/>
        <pt x="1556" y="1051" on="1"/>
        <pt x="1556" y="1032" on="0"/>
        <pt x="1516" y="1004" on="0"/>
        <pt x="1484" y="1004" on="1"/>
        <pt x="1433" y="1004" on="0"/>
        <pt x="1347" y="1021" on="0"/>
        <pt x="1312" y="1038" on="1"/>
        <pt x="1249" y="1023" on="0"/>
        <pt x="1150" y="966" on="0"/>
        <pt x="1111" y="926" on="1"/>
        <pt x="1113" y="901" on="0"/>
        <pt x="1115" y="847" on="0"/>
        <pt x="1115" y="819" on="1"/>
        <pt x="1115" y="651" on="0"/>
        <pt x="1056" y="390" on="0"/>
        <pt x="1005" y="293" on="1"/>
        <pt x="1032" y="228" on="0"/>
        <pt x="1112" y="133" on="0"/>
        <pt x="1210" y="70" on="0"/>
        <pt x="1321" y="39" on="0"/>
        <pt x="1378" y="39" on="1"/>
        <pt x="1459" y="39" on="0"/>
        <pt x="1614" y="103" on="0"/>
        <pt x="1672" y="166" on="1"/>
        <pt x="1606" y="171" on="0"/>
        <pt x="1487" y="220" on="0"/>
        <pt x="1396" y="304" on="0"/>
        <pt x="1343" y="420" on="0"/>
        <pt x="1343" y="492" on="1"/>
        <pt x="1343" y="563" on="0"/>
        <pt x="1388" y="672" on="0"/>
        <pt x="1461" y="745" on="0"/>
        <pt x="1555" y="782" on="0"/>
        <pt x="1603" y="782" on="1"/>
        <pt x="1651" y="782" on="0"/>
        <pt x="1741" y="746" on="0"/>
        <pt x="1811" y="674" on="0"/>
        <pt x="1853" y="565" on="0"/>
        <pt x="1853" y="492" on="1"/>
        <pt x="1853" y="413" on="0"/>
        <pt x="1821" y="281" on="0"/>
        <pt x="1793" y="227" on="1"/>
        <pt x="1828" y="232" on="0"/>
        <pt x="1899" y="261" on="0"/>
        <pt x="1967" y="315" on="0"/>
        <pt x="2030" y="395" on="0"/>
        <pt x="2057" y="451" on="1"/>
        <pt x="2068" y="471" on="1"/>
        <pt x="2109" y="440" on="1"/>
        <pt x="2098" y="420" on="1"/>
        <pt x="2066" y="355" on="0"/>
        <pt x="1987" y="263" on="0"/>
        <pt x="1899" y="203" on="0"/>
        <pt x="1803" y="170" on="0"/>
        <pt x="1754" y="166" on="1"/>
        <pt x="1716" y="114" on="0"/>
        <pt x="1618" y="37" on="0"/>
        <pt x="1505" y="-13" on="0"/>
        <pt x="1381" y="-37" on="0"/>
        <pt x="1318" y="-37" on="1"/>
        <pt x="1258" y="-37" on="0"/>
        <pt x="1140" y="-15" on="0"/>
        <pt x="1031" y="30" on="0"/>
        <pt x="935" y="98" on="0"/>
        <pt x="896" y="143" on="1"/>
        <pt x="822" y="69" on="0"/>
        <pt x="646" y="0" on="0"/>
        <pt x="552" y="0" on="1"/>
        <pt x="428" y="0" on="0"/>
        <pt x="221" y="102" on="0"/>
        <pt x="72" y="302" on="0"/>
        <pt x="-11" y="596" on="0"/>
        <pt x="-11" y="788" on="1"/>
        <pt x="-11" y="919" on="0"/>
        <pt x="37" y="1141" on="0"/>
        <pt x="119" y="1326" on="0"/>
        <pt x="227" y="1472" on="0"/>
        <pt x="348" y="1582" on="0"/>
        <pt x="473" y="1654" on="0"/>
        <pt x="530" y="1673" on="1"/>
        <pt x="552" y="1628" on="1"/>
        <pt x="471" y="1590" on="0"/>
        <pt x="338" y="1437" on="0"/>
        <pt x="243" y="1229" on="0"/>
        <pt x="190" y="976" on="0"/>
        <pt x="190" y="838" on="1"/>
        <pt x="190" y="633" on="0"/>
        <pt x="259" y="348" on="0"/>
        <pt x="373" y="171" on="0"/>
        <pt x="518" y="92" on="0"/>
        <pt x="593" y="92" on="1"/>
        <pt x="667" y="92" on="0"/>
        <pt x="799" y="147" on="0"/>
        <pt x="853" y="201" on="1"/>
        <pt x="819" y="256" on="0"/>
        <pt x="780" y="396" on="0"/>
        <pt x="780" y="481" on="1"/>
        <pt x="780" y="568" on="0"/>
        <pt x="815" y="719" on="0"/>
        <pt x="881" y="847" on="0"/>
        <pt x="975" y="950" on="0"/>
      </contour>
      <contour>
        <pt x="1464" y="512" on="1"/>
        <pt x="1464" y="461" on="0"/>
        <pt x="1505" y="366" on="0"/>
        <pt x="1574" y="288" on="0"/>
        <pt x="1667" y="235" on="0"/>
        <pt x="1720" y="227" on="1"/>
        <pt x="1752" y="280" on="0"/>
        <pt x="1791" y="411" on="0"/>
        <pt x="1791" y="492" on="1"/>
        <pt x="1791" y="549" on="0"/>
        <pt x="1763" y="632" on="0"/>
        <pt x="1718" y="686" on="0"/>
        <pt x="1660" y="713" on="0"/>
        <pt x="1629" y="713" on="1"/>
        <pt x="1599" y="713" on="0"/>
        <pt x="1539" y="686" on="0"/>
        <pt x="1493" y="635" on="0"/>
        <pt x="1464" y="560" on="0"/>
      </contour>
      <contour>
        <pt x="1214" y="1321" on="1"/>
        <pt x="1274" y="1339" on="0"/>
        <pt x="1369" y="1386" on="0"/>
        <pt x="1436" y="1441" on="0"/>
        <pt x="1472" y="1501" on="0"/>
        <pt x="1472" y="1530" on="1"/>
        <pt x="1472" y="1546" on="0"/>
        <pt x="1460" y="1576" on="0"/>
        <pt x="1438" y="1600" on="0"/>
        <pt x="1408" y="1614" on="0"/>
        <pt x="1390" y="1614" on="1"/>
        <pt x="1360" y="1614" on="0"/>
        <pt x="1297" y="1574" on="0"/>
        <pt x="1246" y="1500" on="0"/>
        <pt x="1214" y="1395" on="0"/>
        <pt x="1214" y="1331" on="1"/>
      </contour>
      <contour>
        <pt x="943" y="1278" on="1"/>
        <pt x="916" y="1326" on="0"/>
        <pt x="857" y="1397" on="0"/>
        <pt x="799" y="1442" on="0"/>
        <pt x="746" y="1464" on="0"/>
        <pt x="726" y="1464" on="1"/>
        <pt x="692" y="1464" on="0"/>
        <pt x="665" y="1424" on="0"/>
        <pt x="665" y="1401" on="1"/>
        <pt x="665" y="1381" on="0"/>
        <pt x="687" y="1338" on="0"/>
        <pt x="740" y="1302" on="0"/>
        <pt x="831" y="1278" on="0"/>
        <pt x="900" y="1278" on="1"/>
      </contour>
      <contour>
        <pt x="1052" y="1233" on="1"/>
        <pt x="1067" y="1188" on="0"/>
        <pt x="1092" y="1087" on="0"/>
        <pt x="1101" y="1028" on="1"/>
        <pt x="1135" y="1045" on="0"/>
        <pt x="1206" y="1072" on="0"/>
        <pt x="1244" y="1081" on="1"/>
        <pt x="1204" y="1113" on="0"/>
        <pt x="1149" y="1199" on="0"/>
        <pt x="1132" y="1245" on="1"/>
        <pt x="1112" y="1242" on="0"/>
        <pt x="1074" y="1235" on="0"/>
      </contour>
      <contour>
        <pt x="974" y="393" on="1"/>
        <pt x="1006" y="478" on="0"/>
        <pt x="1044" y="689" on="0"/>
        <pt x="1044" y="819" on="1"/>
        <pt x="1044" y="838" on="1"/>
        <pt x="1000" y="765" on="0"/>
        <pt x="964" y="600" on="0"/>
        <pt x="964" y="522" on="1"/>
        <pt x="964" y="487" on="0"/>
        <pt x="969" y="422" on="0"/>
      </contour>
    </TTGlyph>
    <TTGlyph name="Oacute" xMin="-11" yMin="-51" xMax="1312" yMax="2031">
      <component glyphName="O" x="0" y="0" flags="0x1204"/>
      <component glyphName="acute" x="521" y="860" flags="0x1004"/>
    </TTGlyph>
    <TTGlyph name="Ocircumflex" xMin="-11" yMin="-51" xMax="1312" yMax="2038">
      <component glyphName="O" x="0" y="0" flags="0x1204"/>
      <component glyphName="circumflex" x="425" y="860" flags="0x1004"/>
    </TTGlyph>
    <TTGlyph name="Odieresis" xMin="-11" yMin="-51" xMax="1312" yMax="2007">
      <component glyphName="O" x="0" y="0" flags="0x1204"/>
      <component glyphName="dieresis" x="456" y="860" flags="0x1004"/>
    </TTGlyph>
    <TTGlyph name="Ograve" xMin="-11" yMin="-51" xMax="1312" yMax="2038">
      <component glyphName="O" x="0" y="0" flags="0x1204"/>
      <component glyphName="grave" x="466" y="860" flags="0x1004"/>
    </TTGlyph>
    <TTGlyph name="Oslash" xMin="-11" yMin="-297" xMax="1312" yMax="1937">
      <contour>
        <pt x="265" y="967" on="1"/>
        <pt x="265" y="1040" on="0"/>
        <pt x="291" y="1203" on="0"/>
        <pt x="346" y="1361" on="0"/>
        <pt x="429" y="1505" on="0"/>
        <pt x="543" y="1614" on="0"/>
        <pt x="688" y="1679" on="0"/>
        <pt x="777" y="1679" on="1"/>
        <pt x="813" y="1679" on="0"/>
        <pt x="851" y="1673" on="1"/>
        <pt x="922" y="1937" on="1"/>
        <pt x="1013" y="1913" on="1"/>
        <pt x="941" y="1649" on="1"/>
        <pt x="1035" y="1612" on="0"/>
        <pt x="1174" y="1459" on="0"/>
        <pt x="1266" y="1253" on="0"/>
        <pt x="1312" y="1008" on="0"/>
        <pt x="1312" y="879" on="1"/>
        <pt x="1312" y="775" on="0"/>
        <pt x="1277" y="555" on="0"/>
        <pt x="1206" y="347" on="0"/>
        <pt x="1100" y="163" on="0"/>
        <pt x="957" y="24" on="0"/>
        <pt x="778" y="-57" on="0"/>
        <pt x="671" y="-57" on="1"/>
        <pt x="627" y="-57" on="0"/>
        <pt x="538" y="-43" on="0"/>
        <pt x="490" y="-29" on="1"/>
        <pt x="419" y="-297" on="1"/>
        <pt x="326" y="-274" on="1"/>
        <pt x="402" y="4" on="1"/>
        <pt x="304" y="52" on="0"/>
        <pt x="151" y="214" on="0"/>
        <pt x="45" y="425" on="0"/>
        <pt x="-11" y="675" on="0"/>
        <pt x="-11" y="809" on="1"/>
        <pt x="-11" y="922" on="0"/>
        <pt x="30" y="1116" on="0"/>
        <pt x="98" y="1280" on="0"/>
        <pt x="185" y="1414" on="0"/>
        <pt x="279" y="1520" on="0"/>
        <pt x="371" y="1598" on="0"/>
        <pt x="410" y="1624" on="1"/>
        <pt x="453" y="1595" on="1"/>
        <pt x="384" y="1539" on="0"/>
        <pt x="273" y="1375" on="0"/>
        <pt x="194" y="1171" on="0"/>
        <pt x="152" y="936" on="0"/>
        <pt x="152" y="809" on="1"/>
        <pt x="152" y="655" on="0"/>
        <pt x="192" y="415" on="0"/>
        <pt x="264" y="237" on="0"/>
        <pt x="364" y="116" on="0"/>
        <pt x="423" y="82" on="1"/>
        <pt x="830" y="1599" on="1"/>
        <pt x="787" y="1616" on="0"/>
        <pt x="742" y="1616" on="1"/>
        <pt x="678" y="1616" on="0"/>
        <pt x="576" y="1558" on="0"/>
        <pt x="499" y="1457" on="0"/>
        <pt x="443" y="1322" on="0"/>
        <pt x="408" y="1168" on="0"/>
        <pt x="392" y="1005" on="0"/>
        <pt x="392" y="926" on="1"/>
        <pt x="392" y="832" on="0"/>
        <pt x="404" y="703" on="0"/>
        <pt x="412" y="663" on="1"/>
        <pt x="421" y="616" on="0"/>
        <pt x="433" y="588" on="1"/>
        <pt x="374" y="573" on="1"/>
        <pt x="360" y="589" on="0"/>
        <pt x="323" y="647" on="0"/>
        <pt x="289" y="741" on="0"/>
        <pt x="265" y="875" on="0"/>
      </contour>
      <contour>
        <pt x="1142" y="809" on="1"/>
        <pt x="1142" y="956" on="0"/>
        <pt x="1108" y="1196" on="0"/>
        <pt x="1048" y="1381" on="0"/>
        <pt x="964" y="1512" on="0"/>
        <pt x="914" y="1552" on="1"/>
        <pt x="509" y="39" on="1"/>
        <pt x="530" y="30" on="0"/>
        <pt x="556" y="24" on="1"/>
        <pt x="577" y="19" on="0"/>
        <pt x="633" y="10" on="0"/>
        <pt x="664" y="10" on="1"/>
        <pt x="775" y="10" on="0"/>
        <pt x="953" y="120" on="0"/>
        <pt x="1076" y="326" on="0"/>
        <pt x="1142" y="622" on="0"/>
      </contour>
    </TTGlyph>
    <TTGlyph name="Otilde" xMin="-11" yMin="-51" xMax="1312" yMax="2007">
      <component glyphName="O" x="0" y="0" flags="0x1204"/>
      <component glyphName="tilde" x="423" y="860" flags="0x1004"/>
    </TTGlyph>
    <TTGlyph name="P" xMin="-11" yMin="-51" xMax="1300" yMax="1677">
      <contour>
        <pt x="532" y="236" on="1"/>
        <pt x="521" y="158" on="0"/>
        <pt x="479" y="49" on="0"/>
        <pt x="419" y="-20" on="0"/>
        <pt x="342" y="-51" on="0"/>
        <pt x="296" y="-51" on="1"/>
        <pt x="231" y="-51" on="0"/>
        <pt x="118" y="25" on="0"/>
        <pt x="36" y="175" on="0"/>
        <pt x="-11" y="397" on="0"/>
        <pt x="-11" y="543" on="1"/>
        <pt x="-11" y="696" on="0"/>
        <pt x="48" y="984" on="0"/>
        <pt x="157" y="1236" on="0"/>
        <pt x="310" y="1445" on="0"/>
        <pt x="499" y="1594" on="0"/>
        <pt x="719" y="1677" on="0"/>
        <pt x="839" y="1677" on="1"/>
        <pt x="942" y="1677" on="0"/>
        <pt x="1112" y="1615" on="0"/>
        <pt x="1234" y="1505" on="0"/>
        <pt x="1300" y="1355" on="0"/>
        <pt x="1300" y="1268" on="1"/>
        <pt x="1300" y="1163" on="0"/>
        <pt x="1242" y="982" on="0"/>
        <pt x="1139" y="832" on="0"/>
        <pt x="997" y="714" on="0"/>
        <pt x="830" y="632" on="0"/>
        <pt x="645" y="587" on="0"/>
        <pt x="550" y="584" on="1"/>
        <pt x="547" y="459" on="0"/>
        <pt x="540" y="288" on="0"/>
      </contour>
      <contour>
        <pt x="358" y="655" on="1"/>
        <pt x="363" y="653" on="0"/>
        <pt x="370" y="651" on="1"/>
        <pt x="376" y="649" on="0"/>
        <pt x="393" y="645" on="0"/>
        <pt x="405" y="643" on="1"/>
        <pt x="403" y="768" on="0"/>
        <pt x="398" y="977" on="0"/>
        <pt x="395" y="1055" on="1"/>
        <pt x="391" y="1146" on="0"/>
        <pt x="388" y="1219" on="1"/>
        <pt x="395" y="1225" on="0"/>
        <pt x="404" y="1229" on="1"/>
        <pt x="412" y="1233" on="0"/>
        <pt x="434" y="1239" on="0"/>
        <pt x="450" y="1239" on="1"/>
        <pt x="496" y="1239" on="0"/>
        <pt x="552" y="1206" on="0"/>
        <pt x="552" y="1167" on="1"/>
        <pt x="552" y="1002" on="0"/>
        <pt x="552" y="740" on="0"/>
        <pt x="550" y="635" on="1"/>
        <pt x="681" y="635" on="0"/>
        <pt x="894" y="735" on="0"/>
        <pt x="1044" y="902" on="0"/>
        <pt x="1126" y="1120" on="0"/>
        <pt x="1126" y="1239" on="1"/>
        <pt x="1126" y="1315" on="0"/>
        <pt x="1085" y="1452" on="0"/>
        <pt x="1001" y="1555" on="0"/>
        <pt x="874" y="1616" on="0"/>
        <pt x="788" y="1616" on="1"/>
        <pt x="701" y="1616" on="0"/>
        <pt x="532" y="1550" on="0"/>
        <pt x="379" y="1418" on="0"/>
        <pt x="250" y="1222" on="0"/>
        <pt x="155" y="960" on="0"/>
        <pt x="102" y="635" on="0"/>
        <pt x="102" y="440" on="1"/>
        <pt x="102" y="356" on="0"/>
        <pt x="119" y="197" on="0"/>
        <pt x="159" y="74" on="0"/>
        <pt x="226" y="0" on="0"/>
        <pt x="276" y="0" on="1"/>
        <pt x="303" y="0" on="0"/>
        <pt x="351" y="22" on="0"/>
        <pt x="387" y="91" on="0"/>
        <pt x="409" y="220" on="0"/>
        <pt x="409" y="328" on="1"/>
        <pt x="409" y="396" on="0"/>
        <pt x="407" y="529" on="0"/>
        <pt x="407" y="592" on="1"/>
        <pt x="392" y="594" on="0"/>
        <pt x="370" y="600" on="0"/>
        <pt x="362" y="602" on="1"/>
        <pt x="353" y="605" on="0"/>
        <pt x="347" y="608" on="1"/>
      </contour>
    </TTGlyph>
    <TTGlyph name="Q" xMin="0" yMin="-143" xMax="1444" yMax="1679">
      <contour>
        <pt x="1024" y="-143" on="1"/>
        <pt x="989" y="-143" on="0"/>
        <pt x="917" y="-121" on="0"/>
        <pt x="843" y="-87" on="0"/>
        <pt x="769" y="-43" on="0"/>
        <pt x="733" y="-20" on="1"/>
        <pt x="655" y="-51" on="0"/>
        <pt x="563" y="-51" on="1"/>
        <pt x="473" y="-51" on="0"/>
        <pt x="379" y="18" on="0"/>
        <pt x="379" y="72" on="1"/>
        <pt x="379" y="126" on="0"/>
        <pt x="455" y="195" on="0"/>
        <pt x="532" y="195" on="1"/>
        <pt x="604" y="195" on="0"/>
        <pt x="745" y="138" on="0"/>
        <pt x="811" y="102" on="1"/>
        <pt x="872" y="156" on="0"/>
        <pt x="973" y="316" on="0"/>
        <pt x="1045" y="523" on="0"/>
        <pt x="1085" y="776" on="0"/>
        <pt x="1085" y="922" on="1"/>
        <pt x="1085" y="1102" on="0"/>
        <pt x="1023" y="1368" on="0"/>
        <pt x="909" y="1543" on="0"/>
        <pt x="751" y="1628" on="0"/>
        <pt x="655" y="1628" on="1"/>
        <pt x="570" y="1628" on="0"/>
        <pt x="432" y="1563" on="0"/>
        <pt x="323" y="1448" on="0"/>
        <pt x="243" y="1289" on="0"/>
        <pt x="190" y="1100" on="0"/>
        <pt x="164" y="888" on="0"/>
        <pt x="164" y="778" on="1"/>
        <pt x="164" y="650" on="0"/>
        <pt x="194" y="440" on="0"/>
        <pt x="242" y="280" on="0"/>
        <pt x="305" y="171" on="0"/>
        <pt x="338" y="143" on="1"/>
        <pt x="307" y="102" on="1"/>
        <pt x="284" y="117" on="0"/>
        <pt x="221" y="173" on="0"/>
        <pt x="152" y="258" on="0"/>
        <pt x="86" y="373" on="0"/>
        <pt x="33" y="522" on="0"/>
        <pt x="0" y="708" on="0"/>
        <pt x="0" y="821" on="1"/>
        <pt x="0" y="941" on="0"/>
        <pt x="50" y="1162" on="0"/>
        <pt x="138" y="1353" on="0"/>
        <pt x="260" y="1508" on="0"/>
        <pt x="406" y="1619" on="0"/>
        <pt x="570" y="1679" on="0"/>
        <pt x="655" y="1679" on="1"/>
        <pt x="745" y="1679" on="0"/>
        <pt x="903" y="1627" on="0"/>
        <pt x="1035" y="1533" on="0"/>
        <pt x="1139" y="1400" on="0"/>
        <pt x="1211" y="1238" on="0"/>
        <pt x="1249" y="1052" on="0"/>
        <pt x="1249" y="952" on="1"/>
        <pt x="1249" y="814" on="0"/>
        <pt x="1197" y="550" on="0"/>
        <pt x="1101" y="318" on="0"/>
        <pt x="965" y="128" on="0"/>
        <pt x="881" y="63" on="1"/>
        <pt x="935" y="33" on="0"/>
        <pt x="1027" y="0" on="0"/>
        <pt x="1065" y="0" on="1"/>
        <pt x="1102" y="0" on="0"/>
        <pt x="1177" y="60" on="0"/>
        <pt x="1256" y="171" on="0"/>
        <pt x="1343" y="330" on="0"/>
        <pt x="1393" y="430" on="1"/>
        <pt x="1403" y="451" on="1"/>
        <pt x="1444" y="420" on="1"/>
        <pt x="1434" y="399" on="1"/>
        <pt x="1376" y="284" on="0"/>
        <pt x="1273" y="86" on="0"/>
        <pt x="1174" y="-60" on="0"/>
        <pt x="1076" y="-143" on="0"/>
      </contour>
      <contour>
        <pt x="451" y="51" on="1"/>
        <pt x="451" y="28" on="0"/>
        <pt x="507" y="0" on="0"/>
        <pt x="553" y="0" on="1"/>
        <pt x="611" y="0" on="0"/>
        <pt x="670" y="18" on="1"/>
        <pt x="622" y="47" on="0"/>
        <pt x="537" y="86" on="0"/>
        <pt x="502" y="86" on="1"/>
        <pt x="479" y="86" on="0"/>
        <pt x="451" y="67" on="0"/>
      </contour>
    </TTGlyph>
    <TTGlyph name="R" xMin="-21" yMin="-266" xMax="1587" yMax="1679">
      <contour>
        <pt x="931" y="1679" on="1"/>
        <pt x="1035" y="1679" on="0"/>
        <pt x="1192" y="1625" on="0"/>
        <pt x="1298" y="1530" on="0"/>
        <pt x="1351" y="1403" on="0"/>
        <pt x="1351" y="1331" on="1"/>
        <pt x="1351" y="1252" on="0"/>
        <pt x="1298" y="1107" on="0"/>
        <pt x="1205" y="977" on="0"/>
        <pt x="1079" y="863" on="0"/>
        <pt x="935" y="769" on="0"/>
        <pt x="780" y="695" on="0"/>
        <pt x="704" y="670" on="1"/>
        <pt x="758" y="622" on="0"/>
        <pt x="846" y="495" on="0"/>
        <pt x="926" y="352" on="0"/>
        <pt x="1004" y="202" on="0"/>
        <pt x="1090" y="61" on="0"/>
        <pt x="1191" y="-65" on="0"/>
        <pt x="1320" y="-160" on="0"/>
        <pt x="1480" y="-215" on="0"/>
        <pt x="1583" y="-215" on="1"/>
        <pt x="1587" y="-256" on="1"/>
        <pt x="1574" y="-259" on="0"/>
        <pt x="1557" y="-261" on="1"/>
        <pt x="1543" y="-263" on="0"/>
        <pt x="1501" y="-266" on="0"/>
        <pt x="1474" y="-266" on="1"/>
        <pt x="1344" y="-266" on="0"/>
        <pt x="1150" y="-207" on="0"/>
        <pt x="1007" y="-106" on="0"/>
        <pt x="907" y="27" on="0"/>
        <pt x="832" y="176" on="0"/>
        <pt x="776" y="331" on="0"/>
        <pt x="721" y="476" on="0"/>
        <pt x="660" y="601" on="0"/>
        <pt x="618" y="645" on="1"/>
        <pt x="598" y="640" on="0"/>
        <pt x="559" y="634" on="0"/>
        <pt x="540" y="631" on="1"/>
        <pt x="539" y="559" on="0"/>
        <pt x="536" y="454" on="0"/>
        <pt x="532" y="375" on="0"/>
        <pt x="526" y="315" on="0"/>
        <pt x="522" y="287" on="1"/>
        <pt x="511" y="209" on="0"/>
        <pt x="469" y="100" on="0"/>
        <pt x="409" y="31" on="0"/>
        <pt x="332" y="0" on="0"/>
        <pt x="286" y="0" on="1"/>
        <pt x="221" y="0" on="0"/>
        <pt x="108" y="76" on="0"/>
        <pt x="26" y="226" on="0"/>
        <pt x="-21" y="448" on="0"/>
        <pt x="-21" y="594" on="1"/>
        <pt x="-21" y="747" on="0"/>
        <pt x="45" y="1028" on="0"/>
        <pt x="166" y="1269" on="0"/>
        <pt x="338" y="1465" on="0"/>
        <pt x="549" y="1604" on="0"/>
        <pt x="796" y="1679" on="0"/>
      </contour>
      <contour>
        <pt x="317" y="707" on="1"/>
        <pt x="317" y="733" on="0"/>
        <pt x="358" y="770" on="0"/>
        <pt x="393" y="776" on="1"/>
        <pt x="391" y="874" on="0"/>
        <pt x="385" y="1036" on="0"/>
        <pt x="383" y="1095" on="1"/>
        <pt x="380" y="1164" on="0"/>
        <pt x="378" y="1219" on="1"/>
        <pt x="385" y="1225" on="0"/>
        <pt x="394" y="1229" on="1"/>
        <pt x="402" y="1233" on="0"/>
        <pt x="424" y="1239" on="0"/>
        <pt x="440" y="1239" on="1"/>
        <pt x="486" y="1239" on="0"/>
        <pt x="542" y="1206" on="0"/>
        <pt x="542" y="1167" on="1"/>
        <pt x="542" y="1049" on="0"/>
        <pt x="542" y="848" on="0"/>
        <pt x="540" y="760" on="1"/>
        <pt x="572" y="751" on="0"/>
        <pt x="631" y="724" on="0"/>
        <pt x="657" y="707" on="1"/>
        <pt x="749" y="732" on="0"/>
        <pt x="935" y="826" on="0"/>
        <pt x="1084" y="971" on="0"/>
        <pt x="1177" y="1170" on="0"/>
        <pt x="1177" y="1300" on="1"/>
        <pt x="1177" y="1385" on="0"/>
        <pt x="1130" y="1505" on="0"/>
        <pt x="1050" y="1582" on="0"/>
        <pt x="941" y="1618" on="0"/>
        <pt x="880" y="1618" on="1"/>
        <pt x="778" y="1618" on="0"/>
        <pt x="581" y="1559" on="0"/>
        <pt x="406" y="1439" on="0"/>
        <pt x="259" y="1255" on="0"/>
        <pt x="152" y="1005" on="0"/>
        <pt x="92" y="687" on="0"/>
        <pt x="92" y="492" on="1"/>
        <pt x="92" y="407" on="0"/>
        <pt x="109" y="248" on="0"/>
        <pt x="149" y="125" on="0"/>
        <pt x="216" y="51" on="0"/>
        <pt x="266" y="51" on="1"/>
        <pt x="293" y="51" on="0"/>
        <pt x="341" y="73" on="0"/>
        <pt x="377" y="142" on="0"/>
        <pt x="399" y="271" on="0"/>
        <pt x="399" y="379" on="1"/>
        <pt x="399" y="418" on="0"/>
        <pt x="399" y="479" on="0"/>
        <pt x="399" y="536" on="0"/>
        <pt x="398" y="594" on="0"/>
        <pt x="397" y="629" on="1"/>
        <pt x="359" y="638" on="0"/>
        <pt x="317" y="678" on="0"/>
      </contour>
      <contour>
        <pt x="368" y="707" on="1"/>
        <pt x="368" y="697" on="0"/>
        <pt x="375" y="683" on="0"/>
        <pt x="395" y="678" on="1"/>
        <pt x="395" y="725" on="1"/>
        <pt x="368" y="719" on="0"/>
      </contour>
      <contour>
        <pt x="540" y="682" on="1"/>
        <pt x="548" y="682" on="0"/>
        <pt x="563" y="684" on="0"/>
        <pt x="571" y="686" on="1"/>
        <pt x="563" y="691" on="0"/>
        <pt x="548" y="699" on="0"/>
        <pt x="540" y="702" on="1"/>
      </contour>
    </TTGlyph>
    <TTGlyph name="S" xMin="0" yMin="-51" xMax="989" yMax="1679">
      <contour>
        <pt x="758" y="1135" on="1"/>
        <pt x="781" y="1152" on="0"/>
        <pt x="818" y="1200" on="0"/>
        <pt x="844" y="1256" on="0"/>
        <pt x="858" y="1318" on="0"/>
        <pt x="858" y="1350" on="1"/>
        <pt x="858" y="1398" on="0"/>
        <pt x="825" y="1493" on="0"/>
        <pt x="752" y="1570" on="0"/>
        <pt x="636" y="1618" on="0"/>
        <pt x="553" y="1618" on="1"/>
        <pt x="461" y="1618" on="0"/>
        <pt x="297" y="1558" on="0"/>
        <pt x="174" y="1456" on="0"/>
        <pt x="102" y="1322" on="0"/>
        <pt x="102" y="1249" on="1"/>
        <pt x="102" y="1172" on="0"/>
        <pt x="175" y="1053" on="0"/>
        <pt x="294" y="956" on="0"/>
        <pt x="446" y="874" on="0"/>
        <pt x="604" y="794" on="0"/>
        <pt x="756" y="707" on="0"/>
        <pt x="875" y="599" on="0"/>
        <pt x="948" y="465" on="0"/>
        <pt x="948" y="377" on="1"/>
        <pt x="948" y="293" on="0"/>
        <pt x="868" y="139" on="0"/>
        <pt x="728" y="20" on="0"/>
        <pt x="539" y="-51" on="0"/>
        <pt x="430" y="-51" on="1"/>
        <pt x="308" y="-51" on="0"/>
        <pt x="149" y="2" on="0"/>
        <pt x="56" y="82" on="0"/>
        <pt x="20" y="175" on="0"/>
        <pt x="20" y="215" on="1"/>
        <pt x="20" y="264" on="0"/>
        <pt x="51" y="343" on="0"/>
        <pt x="103" y="406" on="0"/>
        <pt x="168" y="453" on="0"/>
        <pt x="237" y="486" on="0"/>
        <pt x="302" y="507" on="0"/>
        <pt x="328" y="512" on="1"/>
        <pt x="338" y="461" on="1"/>
        <pt x="326" y="457" on="0"/>
        <pt x="263" y="426" on="0"/>
        <pt x="195" y="367" on="0"/>
        <pt x="143" y="279" on="0"/>
        <pt x="143" y="219" on="1"/>
        <pt x="143" y="178" on="0"/>
        <pt x="178" y="100" on="0"/>
        <pt x="248" y="38" on="0"/>
        <pt x="350" y="0" on="0"/>
        <pt x="418" y="0" on="1"/>
        <pt x="500" y="0" on="0"/>
        <pt x="623" y="31" on="0"/>
        <pt x="712" y="81" on="0"/>
        <pt x="769" y="146" on="0"/>
        <pt x="802" y="216" on="0"/>
        <pt x="815" y="285" on="0"/>
        <pt x="815" y="313" on="1"/>
        <pt x="815" y="389" on="0"/>
        <pt x="745" y="504" on="0"/>
        <pt x="630" y="595" on="0"/>
        <pt x="484" y="670" on="0"/>
        <pt x="331" y="744" on="0"/>
        <pt x="185" y="824" on="0"/>
        <pt x="70" y="926" on="0"/>
        <pt x="0" y="1057" on="0"/>
        <pt x="0" y="1145" on="1"/>
        <pt x="0" y="1263" on="0"/>
        <pt x="98" y="1460" on="0"/>
        <pt x="264" y="1601" on="0"/>
        <pt x="483" y="1679" on="0"/>
        <pt x="604" y="1679" on="1"/>
        <pt x="707" y="1679" on="0"/>
        <pt x="853" y="1631" on="0"/>
        <pt x="946" y="1553" on="0"/>
        <pt x="989" y="1453" on="0"/>
        <pt x="989" y="1401" on="1"/>
        <pt x="989" y="1339" on="0"/>
        <pt x="946" y="1237" on="0"/>
        <pt x="885" y="1158" on="0"/>
        <pt x="815" y="1105" on="0"/>
        <pt x="788" y="1094" on="1"/>
      </contour>
    </TTGlyph>
    <TTGlyph name="Scaron" xMin="0" yMin="-51" xMax="989" yMax="2038">
      <component glyphName="S" x="0" y="0" flags="0x1204"/>
      <component glyphName="caron" x="291" y="860" flags="0x1004"/>
    </TTGlyph>
    <TTGlyph name="T" xMin="-131" yMin="-51" xMax="1231" yMax="1679">
      <contour>
        <pt x="909" y="1188" on="1"/>
        <pt x="909" y="1086" on="0"/>
        <pt x="931" y="893" on="0"/>
        <pt x="958" y="701" on="0"/>
        <pt x="981" y="503" on="0"/>
        <pt x="981" y="395" on="1"/>
        <pt x="981" y="294" on="0"/>
        <pt x="927" y="129" on="0"/>
        <pt x="809" y="12" on="0"/>
        <pt x="624" y="-51" on="0"/>
        <pt x="494" y="-51" on="1"/>
        <pt x="408" y="-51" on="0"/>
        <pt x="252" y="-3" on="0"/>
        <pt x="134" y="83" on="0"/>
        <pt x="64" y="203" on="0"/>
        <pt x="64" y="276" on="1"/>
        <pt x="64" y="330" on="0"/>
        <pt x="99" y="416" on="0"/>
        <pt x="154" y="483" on="0"/>
        <pt x="221" y="531" on="0"/>
        <pt x="285" y="563" on="0"/>
        <pt x="337" y="581" on="0"/>
        <pt x="350" y="584" on="1"/>
        <pt x="371" y="543" on="1"/>
        <pt x="348" y="531" on="0"/>
        <pt x="291" y="490" on="0"/>
        <pt x="241" y="427" on="0"/>
        <pt x="207" y="337" on="0"/>
        <pt x="207" y="276" on="1"/>
        <pt x="207" y="211" on="0"/>
        <pt x="251" y="108" on="0"/>
        <pt x="330" y="37" on="0"/>
        <pt x="439" y="0" on="0"/>
        <pt x="504" y="0" on="1"/>
        <pt x="571" y="0" on="0"/>
        <pt x="692" y="33" on="0"/>
        <pt x="784" y="111" on="0"/>
        <pt x="838" y="239" on="0"/>
        <pt x="838" y="334" on="1"/>
        <pt x="838" y="429" on="0"/>
        <pt x="817" y="620" on="0"/>
        <pt x="793" y="813" on="0"/>
        <pt x="772" y="1008" on="0"/>
        <pt x="772" y="1108" on="1"/>
        <pt x="772" y="1195" on="0"/>
        <pt x="791" y="1340" on="0"/>
        <pt x="811" y="1405" on="1"/>
        <pt x="732" y="1417" on="0"/>
        <pt x="566" y="1450" on="0"/>
        <pt x="407" y="1480" on="0"/>
        <pt x="264" y="1501" on="0"/>
        <pt x="207" y="1501" on="1"/>
        <pt x="130" y="1501" on="0"/>
        <pt x="28" y="1476" on="0"/>
        <pt x="-34" y="1434" on="0"/>
        <pt x="-59" y="1379" on="0"/>
        <pt x="-59" y="1348" on="1"/>
        <pt x="-59" y="1317" on="0"/>
        <pt x="-30" y="1265" on="0"/>
        <pt x="24" y="1226" on="0"/>
        <pt x="99" y="1204" on="0"/>
        <pt x="145" y="1204" on="1"/>
        <pt x="196" y="1204" on="0"/>
        <pt x="275" y="1227" on="0"/>
        <pt x="303" y="1241" on="1"/>
        <pt x="336" y="1257" on="0"/>
        <pt x="361" y="1278" on="1"/>
        <pt x="381" y="1235" on="1"/>
        <pt x="350" y="1212" on="0"/>
        <pt x="313" y="1194" on="1"/>
        <pt x="281" y="1178" on="0"/>
        <pt x="196" y="1153" on="0"/>
        <pt x="145" y="1153" on="1"/>
        <pt x="78" y="1153" on="0"/>
        <pt x="-25" y="1189" on="0"/>
        <pt x="-95" y="1250" on="0"/>
        <pt x="-131" y="1332" on="0"/>
        <pt x="-131" y="1378" on="1"/>
        <pt x="-131" y="1427" on="0"/>
        <pt x="-98" y="1519" on="0"/>
        <pt x="-21" y="1591" on="0"/>
        <pt x="105" y="1634" on="0"/>
        <pt x="197" y="1634" on="1"/>
        <pt x="282" y="1634" on="0"/>
        <pt x="453" y="1607" on="0"/>
        <pt x="620" y="1568" on="0"/>
        <pt x="779" y="1523" on="0"/>
        <pt x="852" y="1505" on="1"/>
        <pt x="895" y="1584" on="0"/>
        <pt x="1023" y="1679" on="0"/>
        <pt x="1098" y="1679" on="1"/>
        <pt x="1130" y="1679" on="0"/>
        <pt x="1180" y="1658" on="0"/>
        <pt x="1214" y="1624" on="0"/>
        <pt x="1231" y="1579" on="0"/>
        <pt x="1231" y="1554" on="1"/>
        <pt x="1231" y="1512" on="0"/>
        <pt x="1192" y="1451" on="0"/>
        <pt x="1124" y="1410" on="0"/>
        <pt x="1032" y="1391" on="0"/>
        <pt x="979" y="1391" on="1"/>
        <pt x="967" y="1391" on="0"/>
        <pt x="942" y="1391" on="0"/>
        <pt x="930" y="1393" on="1"/>
        <pt x="921" y="1359" on="0"/>
        <pt x="909" y="1251" on="0"/>
      </contour>
      <contour>
        <pt x="1098" y="1624" on="1"/>
        <pt x="1053" y="1624" on="0"/>
        <pt x="977" y="1559" on="0"/>
        <pt x="952" y="1481" on="1"/>
        <pt x="983" y="1476" on="0"/>
        <pt x="1041" y="1470" on="0"/>
        <pt x="1067" y="1470" on="1"/>
        <pt x="1094" y="1470" on="0"/>
        <pt x="1133" y="1485" on="0"/>
        <pt x="1157" y="1509" on="0"/>
        <pt x="1169" y="1539" on="0"/>
        <pt x="1169" y="1554" on="1"/>
        <pt x="1169" y="1583" on="0"/>
        <pt x="1129" y="1624" on="0"/>
      </contour>
    </TTGlyph>
    <TTGlyph name="Thorn" xMin="-11" yMin="-203" xMax="1279" yMax="1681">
      <contour>
        <pt x="544" y="137" on="1"/>
        <pt x="544" y="58" on="0"/>
        <pt x="524" y="-68" on="0"/>
        <pt x="472" y="-156" on="0"/>
        <pt x="381" y="-203" on="0"/>
        <pt x="310" y="-203" on="1"/>
        <pt x="239" y="-203" on="0"/>
        <pt x="122" y="-108" on="0"/>
        <pt x="36" y="62" on="0"/>
        <pt x="-11" y="295" on="0"/>
        <pt x="-11" y="432" on="1"/>
        <pt x="-11" y="562" on="0"/>
        <pt x="40" y="805" on="0"/>
        <pt x="135" y="1018" on="0"/>
        <pt x="273" y="1195" on="0"/>
        <pt x="360" y="1260" on="1"/>
        <pt x="355" y="1343" on="0"/>
        <pt x="348" y="1488" on="0"/>
        <pt x="346" y="1542" on="1"/>
        <pt x="343" y="1605" on="0"/>
        <pt x="341" y="1659" on="1"/>
        <pt x="341" y="1658" on="0"/>
        <pt x="348" y="1665" on="0"/>
        <pt x="363" y="1674" on="0"/>
        <pt x="386" y="1681" on="0"/>
        <pt x="401" y="1681" on="1"/>
        <pt x="423" y="1681" on="0"/>
        <pt x="462" y="1675" on="0"/>
        <pt x="490" y="1660" on="0"/>
        <pt x="507" y="1634" on="0"/>
        <pt x="507" y="1614" on="1"/>
        <pt x="507" y="1572" on="0"/>
        <pt x="510" y="1428" on="0"/>
        <pt x="515" y="1348" on="1"/>
        <pt x="580" y="1374" on="0"/>
        <pt x="720" y="1403" on="0"/>
        <pt x="798" y="1403" on="1"/>
        <pt x="901" y="1403" on="0"/>
        <pt x="1078" y="1345" on="0"/>
        <pt x="1206" y="1234" on="0"/>
        <pt x="1279" y="1071" on="0"/>
        <pt x="1279" y="965" on="1"/>
        <pt x="1279" y="837" on="0"/>
        <pt x="1173" y="632" on="0"/>
        <pt x="980" y="485" on="0"/>
        <pt x="710" y="401" on="0"/>
        <pt x="546" y="395" on="1"/>
        <pt x="546" y="392" on="0"/>
        <pt x="545" y="345" on="0"/>
        <pt x="545" y="272" on="0"/>
        <pt x="544" y="182" on="0"/>
      </contour>
      <contour>
        <pt x="747" y="1341" on="1"/>
        <pt x="687" y="1341" on="0"/>
        <pt x="571" y="1314" on="0"/>
        <pt x="517" y="1286" on="1"/>
        <pt x="520" y="1206" on="0"/>
        <pt x="526" y="1033" on="0"/>
        <pt x="531" y="862" on="0"/>
        <pt x="536" y="703" on="0"/>
        <pt x="541" y="570" on="0"/>
        <pt x="543" y="471" on="0"/>
        <pt x="544" y="446" on="1"/>
        <pt x="674" y="451" on="0"/>
        <pt x="881" y="537" on="0"/>
        <pt x="1027" y="678" on="0"/>
        <pt x="1105" y="862" on="0"/>
        <pt x="1105" y="965" on="1"/>
        <pt x="1105" y="1072" on="0"/>
        <pt x="1049" y="1217" on="0"/>
        <pt x="952" y="1304" on="0"/>
        <pt x="821" y="1341" on="0"/>
      </contour>
      <contour>
        <pt x="351" y="461" on="1"/>
        <pt x="356" y="459" on="0"/>
        <pt x="363" y="457" on="1"/>
        <pt x="369" y="455" on="0"/>
        <pt x="387" y="451" on="0"/>
        <pt x="399" y="449" on="1"/>
        <pt x="364" y="1176" on="1"/>
        <pt x="305" y="1115" on="0"/>
        <pt x="208" y="948" on="0"/>
        <pt x="139" y="737" on="0"/>
        <pt x="102" y="480" on="0"/>
        <pt x="102" y="330" on="1"/>
        <pt x="102" y="273" on="0"/>
        <pt x="115" y="158" on="0"/>
        <pt x="139" y="51" on="0"/>
        <pt x="175" y="-43" on="0"/>
        <pt x="221" y="-112" on="0"/>
        <pt x="276" y="-152" on="0"/>
        <pt x="308" y="-152" on="1"/>
        <pt x="343" y="-152" on="0"/>
        <pt x="384" y="-121" on="0"/>
        <pt x="406" y="-56" on="0"/>
        <pt x="413" y="45" on="0"/>
        <pt x="413" y="115" on="1"/>
        <pt x="413" y="153" on="0"/>
        <pt x="411" y="241" on="0"/>
        <pt x="408" y="320" on="0"/>
        <pt x="404" y="383" on="0"/>
        <pt x="403" y="397" on="1"/>
        <pt x="388" y="399" on="0"/>
        <pt x="366" y="405" on="0"/>
        <pt x="358" y="407" on="1"/>
        <pt x="349" y="410" on="0"/>
        <pt x="343" y="412" on="1"/>
      </contour>
    </TTGlyph>
    <TTGlyph name="U" xMin="-221" yMin="-51" xMax="1591" yMax="1679">
      <contour>
        <pt x="619" y="0" on="1"/>
        <pt x="678" y="0" on="0"/>
        <pt x="788" y="56" on="0"/>
        <pt x="890" y="156" on="0"/>
        <pt x="981" y="294" on="0"/>
        <pt x="1022" y="375" on="1"/>
        <pt x="1022" y="422" on="1"/>
        <pt x="1022" y="547" on="0"/>
        <pt x="1041" y="830" on="0"/>
        <pt x="1077" y="1110" on="0"/>
        <pt x="1129" y="1366" on="0"/>
        <pt x="1194" y="1562" on="0"/>
        <pt x="1272" y="1679" on="0"/>
        <pt x="1315" y="1679" on="1"/>
        <pt x="1346" y="1679" on="0"/>
        <pt x="1376" y="1615" on="0"/>
        <pt x="1376" y="1546" on="1"/>
        <pt x="1376" y="1475" on="0"/>
        <pt x="1351" y="1257" on="0"/>
        <pt x="1301" y="996" on="0"/>
        <pt x="1225" y="705" on="0"/>
        <pt x="1174" y="561" on="1"/>
        <pt x="1174" y="498" on="1"/>
        <pt x="1174" y="309" on="0"/>
        <pt x="1233" y="113" on="0"/>
        <pt x="1305" y="113" on="1"/>
        <pt x="1333" y="113" on="0"/>
        <pt x="1383" y="149" on="0"/>
        <pt x="1435" y="225" on="0"/>
        <pt x="1498" y="346" on="0"/>
        <pt x="1540" y="430" on="1"/>
        <pt x="1551" y="451" on="1"/>
        <pt x="1591" y="420" on="1"/>
        <pt x="1581" y="399" on="1"/>
        <pt x="1531" y="299" on="0"/>
        <pt x="1453" y="150" on="0"/>
        <pt x="1378" y="50" on="0"/>
        <pt x="1296" y="0" on="0"/>
        <pt x="1243" y="0" on="1"/>
        <pt x="1143" y="0" on="0"/>
        <pt x="1040" y="149" on="0"/>
        <pt x="1026" y="289" on="1"/>
        <pt x="985" y="214" on="0"/>
        <pt x="892" y="89" on="0"/>
        <pt x="787" y="-1" on="0"/>
        <pt x="672" y="-51" on="0"/>
        <pt x="608" y="-51" on="1"/>
        <pt x="543" y="-51" on="0"/>
        <pt x="421" y="-5" on="0"/>
        <pt x="327" y="90" on="0"/>
        <pt x="271" y="237" on="0"/>
        <pt x="271" y="338" on="1"/>
        <pt x="271" y="448" on="0"/>
        <pt x="316" y="662" on="0"/>
        <pt x="385" y="867" on="0"/>
        <pt x="464" y="1061" on="0"/>
        <pt x="533" y="1240" on="0"/>
        <pt x="578" y="1403" on="0"/>
        <pt x="578" y="1475" on="1"/>
        <pt x="578" y="1518" on="0"/>
        <pt x="560" y="1577" on="0"/>
        <pt x="527" y="1613" on="0"/>
        <pt x="482" y="1628" on="0"/>
        <pt x="455" y="1628" on="1"/>
        <pt x="381" y="1628" on="0"/>
        <pt x="240" y="1560" on="0"/>
        <pt x="115" y="1446" on="0"/>
        <pt x="10" y="1298" on="0"/>
        <pt x="-66" y="1136" on="0"/>
        <pt x="-108" y="973" on="0"/>
        <pt x="-108" y="901" on="1"/>
        <pt x="-108" y="824" on="0"/>
        <pt x="-50" y="748" on="0"/>
        <pt x="4" y="748" on="1"/>
        <pt x="43" y="748" on="0"/>
        <pt x="123" y="795" on="0"/>
        <pt x="198" y="879" on="0"/>
        <pt x="265" y="995" on="0"/>
        <pt x="291" y="1065" on="1"/>
        <pt x="332" y="1044" on="1"/>
        <pt x="313" y="998" on="0"/>
        <pt x="248" y="878" on="0"/>
        <pt x="158" y="770" on="0"/>
        <pt x="43" y="696" on="0"/>
        <pt x="-26" y="696" on="1"/>
        <pt x="-68" y="696" on="0"/>
        <pt x="-140" y="723" on="0"/>
        <pt x="-192" y="777" on="0"/>
        <pt x="-221" y="857" on="0"/>
        <pt x="-221" y="911" on="1"/>
        <pt x="-221" y="1001" on="0"/>
        <pt x="-160" y="1185" on="0"/>
        <pt x="-56" y="1356" on="0"/>
        <pt x="84" y="1505" on="0"/>
        <pt x="241" y="1615" on="0"/>
        <pt x="407" y="1679" on="0"/>
        <pt x="486" y="1679" on="1"/>
        <pt x="534" y="1679" on="0"/>
        <pt x="613" y="1648" on="0"/>
        <pt x="670" y="1587" on="0"/>
        <pt x="701" y="1495" on="0"/>
        <pt x="701" y="1434" on="1"/>
        <pt x="701" y="1360" on="0"/>
        <pt x="658" y="1174" on="0"/>
        <pt x="595" y="969" on="0"/>
        <pt x="520" y="752" on="0"/>
        <pt x="457" y="539" on="0"/>
        <pt x="414" y="340" on="0"/>
        <pt x="414" y="256" on="1"/>
        <pt x="414" y="174" on="0"/>
        <pt x="457" y="73" on="0"/>
        <pt x="519" y="18" on="0"/>
        <pt x="590" y="0" on="0"/>
      </contour>
      <contour>
        <pt x="1284" y="1587" on="1"/>
        <pt x="1270" y="1587" on="0"/>
        <pt x="1246" y="1508" on="0"/>
        <pt x="1225" y="1375" on="0"/>
        <pt x="1207" y="1200" on="0"/>
        <pt x="1192" y="1008" on="0"/>
        <pt x="1182" y="811" on="0"/>
        <pt x="1178" y="723" on="1"/>
        <pt x="1211" y="836" on="0"/>
        <pt x="1261" y="1059" on="0"/>
        <pt x="1296" y="1260" on="0"/>
        <pt x="1313" y="1427" on="0"/>
        <pt x="1313" y="1483" on="1"/>
        <pt x="1313" y="1532" on="0"/>
        <pt x="1298" y="1587" on="0"/>
      </contour>
    </TTGlyph>
    <TTGlyph name="Uacute" xMin="-221" yMin="-51" xMax="1591" yMax="2031">
      <component glyphName="U" x="0" y="0" flags="0x1204"/>
      <component glyphName="acute" x="823" y="860" flags="0x1004"/>
    </TTGlyph>
    <TTGlyph name="Ucircumflex" xMin="-221" yMin="-51" xMax="1591" yMax="2038">
      <component glyphName="circumflex" x="662" y="860" flags="0x1004"/>
      <component glyphName="U" x="0" y="0" flags="0x1004"/>
    </TTGlyph>
    <TTGlyph name="Udieresis" xMin="-221" yMin="-51" xMax="1591" yMax="2007">
      <component glyphName="dieresis" x="723" y="860" flags="0x1004"/>
      <component glyphName="U" x="0" y="0" flags="0x1004"/>
    </TTGlyph>
    <TTGlyph name="Ugrave" xMin="-221" yMin="-51" xMax="1591" yMax="2038">
      <component glyphName="U" x="0" y="0" flags="0x1204"/>
      <component glyphName="grave" x="746" y="860" flags="0x1004"/>
    </TTGlyph>
    <TTGlyph name="V" xMin="-200" yMin="-51" xMax="1311" yMax="1679">
      <contour>
        <pt x="1082" y="1669" on="1"/>
        <pt x="1143" y="1669" on="0"/>
        <pt x="1229" y="1606" on="0"/>
        <pt x="1285" y="1489" on="0"/>
        <pt x="1311" y="1322" on="0"/>
        <pt x="1311" y="1219" on="1"/>
        <pt x="1311" y="1123" on="0"/>
        <pt x="1289" y="913" on="0"/>
        <pt x="1246" y="698" on="0"/>
        <pt x="1183" y="488" on="0"/>
        <pt x="1103" y="298" on="0"/>
        <pt x="1005" y="135" on="0"/>
        <pt x="891" y="16" on="0"/>
        <pt x="762" y="-51" on="0"/>
        <pt x="691" y="-51" on="1"/>
        <pt x="616" y="-51" on="0"/>
        <pt x="507" y="2" on="0"/>
        <pt x="432" y="93" on="0"/>
        <pt x="386" y="212" on="0"/>
        <pt x="361" y="344" on="0"/>
        <pt x="353" y="481" on="0"/>
        <pt x="353" y="543" on="1"/>
        <pt x="353" y="662" on="0"/>
        <pt x="373" y="887" on="0"/>
        <pt x="398" y="1097" on="0"/>
        <pt x="418" y="1289" on="0"/>
        <pt x="418" y="1376" on="1"/>
        <pt x="418" y="1449" on="0"/>
        <pt x="402" y="1546" on="0"/>
        <pt x="369" y="1604" on="0"/>
        <pt x="319" y="1628" on="0"/>
        <pt x="285" y="1628" on="1"/>
        <pt x="241" y="1628" on="0"/>
        <pt x="155" y="1588" on="0"/>
        <pt x="76" y="1517" on="0"/>
        <pt x="10" y="1420" on="0"/>
        <pt x="-39" y="1306" on="0"/>
        <pt x="-67" y="1181" on="0"/>
        <pt x="-67" y="1118" on="1"/>
        <pt x="-67" y="1053" on="0"/>
        <pt x="-49" y="965" on="0"/>
        <pt x="-18" y="911" on="0"/>
        <pt x="27" y="887" on="0"/>
        <pt x="54" y="887" on="1"/>
        <pt x="101" y="887" on="0"/>
        <pt x="177" y="938" on="0"/>
        <pt x="233" y="1031" on="0"/>
        <pt x="269" y="1162" on="0"/>
        <pt x="277" y="1241" on="1"/>
        <pt x="324" y="1239" on="1"/>
        <pt x="321" y="1205" on="0"/>
        <pt x="306" y="1118" on="0"/>
        <pt x="278" y="1029" on="0"/>
        <pt x="236" y="943" on="0"/>
        <pt x="174" y="877" on="0"/>
        <pt x="92" y="836" on="0"/>
        <pt x="38" y="836" on="1"/>
        <pt x="-1" y="836" on="0"/>
        <pt x="-85" y="866" on="0"/>
        <pt x="-155" y="930" on="0"/>
        <pt x="-200" y="1033" on="0"/>
        <pt x="-200" y="1106" on="1"/>
        <pt x="-200" y="1178" on="0"/>
        <pt x="-159" y="1318" on="0"/>
        <pt x="-88" y="1446" on="0"/>
        <pt x="9" y="1554" on="0"/>
        <pt x="123" y="1634" on="0"/>
        <pt x="249" y="1679" on="0"/>
        <pt x="312" y="1679" on="1"/>
        <pt x="580" y="1679" on="0"/>
        <pt x="580" y="1290" on="1"/>
        <pt x="580" y="1195" on="0"/>
        <pt x="563" y="981" on="0"/>
        <pt x="544" y="758" on="0"/>
        <pt x="527" y="535" on="0"/>
        <pt x="527" y="432" on="1"/>
        <pt x="527" y="298" on="0"/>
        <pt x="551" y="132" on="0"/>
        <pt x="597" y="41" on="0"/>
        <pt x="663" y="10" on="0"/>
        <pt x="705" y="10" on="1"/>
        <pt x="768" y="10" on="0"/>
        <pt x="890" y="103" on="0"/>
        <pt x="1000" y="262" on="0"/>
        <pt x="1093" y="475" on="0"/>
        <pt x="1161" y="716" on="0"/>
        <pt x="1199" y="973" on="0"/>
        <pt x="1199" y="1096" on="1"/>
        <pt x="1199" y="1235" on="0"/>
        <pt x="1169" y="1420" on="0"/>
        <pt x="1117" y="1531" on="0"/>
        <pt x="1049" y="1577" on="0"/>
        <pt x="1010" y="1577" on="1"/>
        <pt x="983" y="1577" on="0"/>
        <pt x="934" y="1558" on="0"/>
        <pt x="892" y="1530" on="0"/>
        <pt x="858" y="1498" on="0"/>
        <pt x="847" y="1485" on="1"/>
        <pt x="806" y="1516" on="1"/>
        <pt x="820" y="1534" on="0"/>
        <pt x="875" y="1586" on="0"/>
        <pt x="948" y="1634" on="0"/>
        <pt x="1035" y="1669" on="0"/>
      </contour>
    </TTGlyph>
    <TTGlyph name="W" xMin="-211" yMin="-51" xMax="1829" yMax="1679">
      <contour>
        <pt x="651" y="72" on="1"/>
        <pt x="688" y="72" on="0"/>
        <pt x="765" y="115" on="0"/>
        <pt x="838" y="190" on="0"/>
        <pt x="904" y="292" on="0"/>
        <pt x="959" y="409" on="0"/>
        <pt x="998" y="536" on="0"/>
        <pt x="1008" y="600" on="1"/>
        <pt x="1010" y="693" on="0"/>
        <pt x="1025" y="876" on="0"/>
        <pt x="1034" y="951" on="1"/>
        <pt x="1045" y="1038" on="0"/>
        <pt x="1057" y="1118" on="1"/>
        <pt x="1216" y="1161" on="1"/>
        <pt x="1204" y="1073" on="0"/>
        <pt x="1194" y="962" on="1"/>
        <pt x="1186" y="867" on="0"/>
        <pt x="1173" y="607" on="0"/>
        <pt x="1173" y="451" on="1"/>
        <pt x="1173" y="325" on="0"/>
        <pt x="1206" y="156" on="0"/>
        <pt x="1263" y="53" on="0"/>
        <pt x="1338" y="10" on="0"/>
        <pt x="1380" y="10" on="1"/>
        <pt x="1434" y="10" on="0"/>
        <pt x="1527" y="76" on="0"/>
        <pt x="1602" y="194" on="0"/>
        <pt x="1660" y="355" on="0"/>
        <pt x="1700" y="545" on="0"/>
        <pt x="1720" y="755" on="0"/>
        <pt x="1720" y="862" on="1"/>
        <pt x="1720" y="1002" on="0"/>
        <pt x="1697" y="1217" on="0"/>
        <pt x="1658" y="1375" on="0"/>
        <pt x="1606" y="1481" on="0"/>
        <pt x="1549" y="1546" on="0"/>
        <pt x="1489" y="1573" on="0"/>
        <pt x="1462" y="1573" on="1"/>
        <pt x="1433" y="1573" on="0"/>
        <pt x="1385" y="1552" on="0"/>
        <pt x="1346" y="1520" on="0"/>
        <pt x="1315" y="1485" on="0"/>
        <pt x="1305" y="1470" on="1"/>
        <pt x="1259" y="1497" on="1"/>
        <pt x="1271" y="1516" on="0"/>
        <pt x="1320" y="1575" on="0"/>
        <pt x="1389" y="1630" on="0"/>
        <pt x="1476" y="1669" on="0"/>
        <pt x="1526" y="1669" on="1"/>
        <pt x="1599" y="1669" on="0"/>
        <pt x="1712" y="1571" on="0"/>
        <pt x="1789" y="1391" on="0"/>
        <pt x="1829" y="1139" on="0"/>
        <pt x="1829" y="985" on="1"/>
        <pt x="1829" y="857" on="0"/>
        <pt x="1804" y="604" on="0"/>
        <pt x="1754" y="374" on="0"/>
        <pt x="1678" y="176" on="0"/>
        <pt x="1576" y="31" on="0"/>
        <pt x="1448" y="-51" on="0"/>
        <pt x="1370" y="-51" on="1"/>
        <pt x="1301" y="-51" on="0"/>
        <pt x="1184" y="5" on="0"/>
        <pt x="1094" y="116" on="0"/>
        <pt x="1032" y="281" on="0"/>
        <pt x="1018" y="389" on="1"/>
        <pt x="989" y="313" on="0"/>
        <pt x="905" y="172" on="0"/>
        <pt x="801" y="64" on="0"/>
        <pt x="681" y="0" on="0"/>
        <pt x="616" y="0" on="1"/>
        <pt x="556" y="0" on="0"/>
        <pt x="444" y="39" on="0"/>
        <pt x="357" y="133" on="0"/>
        <pt x="305" y="290" on="0"/>
        <pt x="305" y="408" on="1"/>
        <pt x="305" y="499" on="0"/>
        <pt x="339" y="686" on="0"/>
        <pt x="391" y="872" on="0"/>
        <pt x="451" y="1054" on="0"/>
        <pt x="503" y="1226" on="0"/>
        <pt x="537" y="1384" on="0"/>
        <pt x="537" y="1454" on="1"/>
        <pt x="537" y="1545" on="0"/>
        <pt x="464" y="1628" on="0"/>
        <pt x="401" y="1628" on="1"/>
        <pt x="331" y="1628" on="0"/>
        <pt x="204" y="1565" on="0"/>
        <pt x="95" y="1459" on="0"/>
        <pt x="6" y="1320" on="0"/>
        <pt x="-56" y="1166" on="0"/>
        <pt x="-90" y="1008" on="0"/>
        <pt x="-90" y="936" on="1"/>
        <pt x="-90" y="737" on="0"/>
        <pt x="29" y="737" on="1"/>
        <pt x="67" y="737" on="0"/>
        <pt x="143" y="784" on="0"/>
        <pt x="211" y="868" on="0"/>
        <pt x="267" y="985" on="0"/>
        <pt x="287" y="1055" on="1"/>
        <pt x="330" y="1034" on="1"/>
        <pt x="320" y="1003" on="0"/>
        <pt x="289" y="928" on="0"/>
        <pt x="247" y="850" on="0"/>
        <pt x="193" y="777" on="0"/>
        <pt x="127" y="720" on="0"/>
        <pt x="48" y="686" on="0"/>
        <pt x="2" y="686" on="1"/>
        <pt x="-95" y="686" on="0"/>
        <pt x="-211" y="817" on="0"/>
        <pt x="-211" y="948" on="1"/>
        <pt x="-211" y="1035" on="0"/>
        <pt x="-158" y="1211" on="0"/>
        <pt x="-66" y="1373" on="0"/>
        <pt x="58" y="1515" on="0"/>
        <pt x="200" y="1619" on="0"/>
        <pt x="353" y="1679" on="0"/>
        <pt x="428" y="1679" on="1"/>
        <pt x="490" y="1679" on="0"/>
        <pt x="590" y="1647" on="0"/>
        <pt x="659" y="1579" on="0"/>
        <pt x="696" y="1475" on="0"/>
        <pt x="696" y="1403" on="1"/>
        <pt x="696" y="1332" on="0"/>
        <pt x="665" y="1166" on="0"/>
        <pt x="618" y="985" on="0"/>
        <pt x="563" y="794" on="0"/>
        <pt x="516" y="601" on="0"/>
        <pt x="485" y="412" on="0"/>
        <pt x="485" y="324" on="1"/>
        <pt x="485" y="256" on="0"/>
        <pt x="507" y="160" on="0"/>
        <pt x="549" y="100" on="0"/>
        <pt x="611" y="72" on="0"/>
      </contour>
    </TTGlyph>
    <TTGlyph name="X" xMin="-8" yMin="-14" xMax="1485" yMax="1667">
      <contour>
        <pt x="236" y="1667" on="1"/>
        <pt x="269" y="1667" on="0"/>
        <pt x="323" y="1644" on="0"/>
        <pt x="377" y="1583" on="0"/>
        <pt x="438" y="1476" on="0"/>
        <pt x="520" y="1310" on="0"/>
        <pt x="628" y="1076" on="0"/>
        <pt x="702" y="918" on="1"/>
        <pt x="774" y="1093" on="0"/>
        <pt x="887" y="1355" on="0"/>
        <pt x="1003" y="1529" on="0"/>
        <pt x="1135" y="1616" on="0"/>
        <pt x="1225" y="1616" on="1"/>
        <pt x="1303" y="1612" on="1"/>
        <pt x="1284" y="1470" on="1"/>
        <pt x="1270" y="1472" on="0"/>
        <pt x="1255" y="1475" on="1"/>
        <pt x="1242" y="1477" on="0"/>
        <pt x="1212" y="1481" on="0"/>
        <pt x="1198" y="1481" on="1"/>
        <pt x="1154" y="1481" on="0"/>
        <pt x="1085" y="1460" on="0"/>
        <pt x="1021" y="1406" on="0"/>
        <pt x="959" y="1313" on="0"/>
        <pt x="887" y="1167" on="0"/>
        <pt x="801" y="963" on="0"/>
        <pt x="745" y="825" on="1"/>
        <pt x="786" y="735" on="0"/>
        <pt x="871" y="560" on="0"/>
        <pt x="955" y="402" on="0"/>
        <pt x="1036" y="267" on="0"/>
        <pt x="1111" y="169" on="0"/>
        <pt x="1179" y="113" on="0"/>
        <pt x="1208" y="113" on="1"/>
        <pt x="1242" y="113" on="0"/>
        <pt x="1304" y="176" on="0"/>
        <pt x="1359" y="270" on="0"/>
        <pt x="1410" y="382" on="0"/>
        <pt x="1434" y="430" on="1"/>
        <pt x="1444" y="451" on="1"/>
        <pt x="1485" y="420" on="1"/>
        <pt x="1475" y="399" on="1"/>
        <pt x="1433" y="314" on="0"/>
        <pt x="1362" y="168" on="0"/>
        <pt x="1288" y="61" on="0"/>
        <pt x="1204" y="0" on="0"/>
        <pt x="1147" y="0" on="1"/>
        <pt x="1079" y="0" on="0"/>
        <pt x="957" y="109" on="0"/>
        <pt x="841" y="290" on="0"/>
        <pt x="725" y="523" on="0"/>
        <pt x="662" y="647" on="1"/>
        <pt x="603" y="522" on="0"/>
        <pt x="471" y="285" on="0"/>
        <pt x="328" y="99" on="0"/>
        <pt x="180" y="-14" on="0"/>
        <pt x="106" y="-14" on="1"/>
        <pt x="79" y="-14" on="0"/>
        <pt x="37" y="-5" on="0"/>
        <pt x="22" y="0" on="1"/>
        <pt x="4" y="6" on="0"/>
        <pt x="-8" y="14" on="1"/>
        <pt x="33" y="172" on="1"/>
        <pt x="93" y="141" on="0"/>
        <pt x="145" y="141" on="1"/>
        <pt x="191" y="141" on="0"/>
        <pt x="280" y="196" on="0"/>
        <pt x="366" y="288" on="0"/>
        <pt x="446" y="410" on="0"/>
        <pt x="519" y="542" on="0"/>
        <pt x="584" y="678" on="0"/>
        <pt x="612" y="739" on="1"/>
        <pt x="530" y="922" on="0"/>
        <pt x="412" y="1187" on="0"/>
        <pt x="329" y="1373" on="0"/>
        <pt x="273" y="1487" on="0"/>
        <pt x="232" y="1551" on="0"/>
        <pt x="200" y="1573" on="0"/>
        <pt x="182" y="1573" on="1"/>
        <pt x="158" y="1573" on="0"/>
        <pt x="115" y="1534" on="0"/>
        <pt x="79" y="1479" on="0"/>
        <pt x="52" y="1420" on="0"/>
        <pt x="45" y="1401" on="1"/>
        <pt x="0" y="1421" on="1"/>
        <pt x="14" y="1463" on="0"/>
        <pt x="55" y="1551" on="0"/>
        <pt x="113" y="1622" on="0"/>
        <pt x="188" y="1667" on="0"/>
      </contour>
    </TTGlyph>
    <TTGlyph name="Y" xMin="-190" yMin="-502" xMax="1407" yMax="1679">
      <contour>
        <pt x="650" y="0" on="1"/>
        <pt x="717" y="0" on="0"/>
        <pt x="839" y="67" on="0"/>
        <pt x="950" y="187" on="0"/>
        <pt x="1049" y="350" on="0"/>
        <pt x="1092" y="446" on="1"/>
        <pt x="1096" y="604" on="0"/>
        <pt x="1107" y="910" on="0"/>
        <pt x="1125" y="1184" on="0"/>
        <pt x="1155" y="1416" on="0"/>
        <pt x="1205" y="1584" on="0"/>
        <pt x="1276" y="1679" on="0"/>
        <pt x="1326" y="1679" on="1"/>
        <pt x="1356" y="1679" on="0"/>
        <pt x="1407" y="1615" on="0"/>
        <pt x="1407" y="1546" on="1"/>
        <pt x="1407" y="1482" on="0"/>
        <pt x="1388" y="1294" on="0"/>
        <pt x="1349" y="1066" on="0"/>
        <pt x="1290" y="812" on="0"/>
        <pt x="1250" y="682" on="1"/>
        <pt x="1250" y="627" on="1"/>
        <pt x="1250" y="491" on="0"/>
        <pt x="1245" y="208" on="0"/>
        <pt x="1230" y="-75" on="0"/>
        <pt x="1204" y="-351" on="0"/>
        <pt x="1182" y="-481" on="1"/>
        <pt x="1029" y="-502" on="1"/>
        <pt x="1058" y="-319" on="0"/>
        <pt x="1082" y="108" on="0"/>
        <pt x="1090" y="338" on="1"/>
        <pt x="1046" y="251" on="0"/>
        <pt x="946" y="108" on="0"/>
        <pt x="834" y="5" on="0"/>
        <pt x="708" y="-51" on="0"/>
        <pt x="639" y="-51" on="1"/>
        <pt x="574" y="-51" on="0"/>
        <pt x="452" y="-9" on="0"/>
        <pt x="358" y="83" on="0"/>
        <pt x="302" y="226" on="0"/>
        <pt x="302" y="328" on="1"/>
        <pt x="302" y="438" on="0"/>
        <pt x="347" y="654" on="0"/>
        <pt x="416" y="861" on="0"/>
        <pt x="495" y="1057" on="0"/>
        <pt x="564" y="1239" on="0"/>
        <pt x="609" y="1403" on="0"/>
        <pt x="609" y="1475" on="1"/>
        <pt x="609" y="1518" on="0"/>
        <pt x="591" y="1577" on="0"/>
        <pt x="558" y="1613" on="0"/>
        <pt x="513" y="1628" on="0"/>
        <pt x="486" y="1628" on="1"/>
        <pt x="412" y="1628" on="0"/>
        <pt x="271" y="1559" on="0"/>
        <pt x="146" y="1443" on="0"/>
        <pt x="41" y="1292" on="0"/>
        <pt x="-35" y="1128" on="0"/>
        <pt x="-77" y="963" on="0"/>
        <pt x="-77" y="891" on="1"/>
        <pt x="-77" y="813" on="0"/>
        <pt x="-19" y="737" on="0"/>
        <pt x="35" y="737" on="1"/>
        <pt x="74" y="737" on="0"/>
        <pt x="154" y="784" on="0"/>
        <pt x="229" y="868" on="0"/>
        <pt x="296" y="985" on="0"/>
        <pt x="322" y="1055" on="1"/>
        <pt x="363" y="1034" on="1"/>
        <pt x="350" y="1003" on="0"/>
        <pt x="313" y="928" on="0"/>
        <pt x="264" y="850" on="0"/>
        <pt x="204" y="777" on="0"/>
        <pt x="133" y="720" on="0"/>
        <pt x="51" y="686" on="0"/>
        <pt x="5" y="686" on="1"/>
        <pt x="-37" y="686" on="0"/>
        <pt x="-109" y="713" on="0"/>
        <pt x="-161" y="767" on="0"/>
        <pt x="-190" y="847" on="0"/>
        <pt x="-190" y="901" on="1"/>
        <pt x="-190" y="991" on="0"/>
        <pt x="-129" y="1177" on="0"/>
        <pt x="-25" y="1350" on="0"/>
        <pt x="115" y="1501" on="0"/>
        <pt x="272" y="1614" on="0"/>
        <pt x="438" y="1679" on="0"/>
        <pt x="517" y="1679" on="1"/>
        <pt x="565" y="1679" on="0"/>
        <pt x="644" y="1648" on="0"/>
        <pt x="701" y="1587" on="0"/>
        <pt x="732" y="1495" on="0"/>
        <pt x="732" y="1434" on="1"/>
        <pt x="732" y="1360" on="0"/>
        <pt x="689" y="1173" on="0"/>
        <pt x="626" y="965" on="0"/>
        <pt x="551" y="745" on="0"/>
        <pt x="488" y="531" on="0"/>
        <pt x="445" y="330" on="0"/>
        <pt x="445" y="246" on="1"/>
        <pt x="445" y="164" on="0"/>
        <pt x="488" y="66" on="0"/>
        <pt x="550" y="15" on="0"/>
        <pt x="621" y="0" on="0"/>
      </contour>
      <contour>
        <pt x="1315" y="1587" on="1"/>
        <pt x="1293" y="1587" on="0"/>
        <pt x="1266" y="1514" on="0"/>
        <pt x="1252" y="1381" on="0"/>
        <pt x="1248" y="1195" on="0"/>
        <pt x="1248" y="1083" on="1"/>
        <pt x="1248" y="862" on="1"/>
        <pt x="1271" y="956" on="0"/>
        <pt x="1307" y="1139" on="0"/>
        <pt x="1331" y="1301" on="0"/>
        <pt x="1344" y="1436" on="0"/>
        <pt x="1344" y="1483" on="1"/>
        <pt x="1344" y="1532" on="0"/>
        <pt x="1329" y="1587" on="0"/>
      </contour>
    </TTGlyph>
    <TTGlyph name="Yacute" xMin="-190" yMin="-502" xMax="1407" yMax="2031">
      <component glyphName="Y" x="0" y="0" flags="0x1204"/>
      <component glyphName="acute" x="881" y="860" flags="0x1004"/>
    </TTGlyph>
    <TTGlyph name="Ydieresis" xMin="-190" yMin="-502" xMax="1407" yMax="2007">
      <component glyphName="Y" x="0" y="0" flags="0x1204"/>
      <component glyphName="dieresis" x="734" y="860" flags="0x1004"/>
    </TTGlyph>
    <TTGlyph name="Z" xMin="-61" yMin="-51" xMax="1373" yMax="1679">
      <contour>
        <pt x="486" y="819" on="1"/>
        <pt x="664" y="819" on="1"/>
        <pt x="691" y="876" on="0"/>
        <pt x="751" y="1017" on="0"/>
        <pt x="819" y="1166" on="0"/>
        <pt x="895" y="1316" on="0"/>
        <pt x="938" y="1382" on="1"/>
        <pt x="866" y="1401" on="0"/>
        <pt x="715" y="1450" on="0"/>
        <pt x="559" y="1495" on="0"/>
        <pt x="401" y="1526" on="0"/>
        <pt x="322" y="1526" on="1"/>
        <pt x="263" y="1526" on="0"/>
        <pt x="189" y="1501" on="0"/>
        <pt x="145" y="1461" on="0"/>
        <pt x="129" y="1409" on="0"/>
        <pt x="129" y="1382" on="1"/>
        <pt x="129" y="1354" on="0"/>
        <pt x="150" y="1305" on="0"/>
        <pt x="193" y="1269" on="0"/>
        <pt x="259" y="1249" on="0"/>
        <pt x="304" y="1249" on="1"/>
        <pt x="349" y="1249" on="0"/>
        <pt x="418" y="1272" on="0"/>
        <pt x="443" y="1286" on="1"/>
        <pt x="472" y="1302" on="0"/>
        <pt x="494" y="1323" on="1"/>
        <pt x="512" y="1280" on="1"/>
        <pt x="485" y="1257" on="0"/>
        <pt x="452" y="1239" on="1"/>
        <pt x="424" y="1223" on="0"/>
        <pt x="349" y="1198" on="0"/>
        <pt x="304" y="1198" on="1"/>
        <pt x="246" y="1198" on="0"/>
        <pt x="157" y="1231" on="0"/>
        <pt x="97" y="1288" on="0"/>
        <pt x="66" y="1362" on="0"/>
        <pt x="66" y="1403" on="1"/>
        <pt x="66" y="1457" on="0"/>
        <pt x="104" y="1556" on="0"/>
        <pt x="184" y="1633" on="0"/>
        <pt x="306" y="1679" on="0"/>
        <pt x="390" y="1679" on="1"/>
        <pt x="482" y="1679" on="0"/>
        <pt x="655" y="1640" on="0"/>
        <pt x="817" y="1585" on="0"/>
        <pt x="965" y="1525" on="0"/>
        <pt x="1031" y="1503" on="1"/>
        <pt x="1077" y="1551" on="0"/>
        <pt x="1176" y="1608" on="0"/>
        <pt x="1233" y="1608" on="1"/>
        <pt x="1287" y="1608" on="0"/>
        <pt x="1342" y="1559" on="0"/>
        <pt x="1342" y="1516" on="1"/>
        <pt x="1342" y="1487" on="0"/>
        <pt x="1323" y="1429" on="0"/>
        <pt x="1277" y="1382" on="0"/>
        <pt x="1199" y="1352" on="0"/>
        <pt x="1141" y="1352" on="1"/>
        <pt x="1106" y="1352" on="0"/>
        <pt x="1034" y="1360" on="0"/>
        <pt x="996" y="1368" on="1"/>
        <pt x="955" y="1306" on="0"/>
        <pt x="881" y="1161" on="0"/>
        <pt x="815" y="1014" on="0"/>
        <pt x="757" y="874" on="0"/>
        <pt x="732" y="819" on="1"/>
        <pt x="914" y="819" on="1"/>
        <pt x="895" y="758" on="1"/>
        <pt x="703" y="758" on="1"/>
        <pt x="635" y="617" on="0"/>
        <pt x="500" y="355" on="0"/>
        <pt x="422" y="250" on="1"/>
        <pt x="492" y="230" on="0"/>
        <pt x="623" y="179" on="0"/>
        <pt x="752" y="133" on="0"/>
        <pt x="882" y="102" on="0"/>
        <pt x="951" y="102" on="1"/>
        <pt x="1016" y="102" on="0"/>
        <pt x="1115" y="139" on="0"/>
        <pt x="1199" y="218" on="0"/>
        <pt x="1277" y="343" on="0"/>
        <pt x="1321" y="430" on="1"/>
        <pt x="1332" y="451" on="1"/>
        <pt x="1373" y="420" on="1"/>
        <pt x="1362" y="399" on="1"/>
        <pt x="1315" y="306" on="0"/>
        <pt x="1225" y="142" on="0"/>
        <pt x="1117" y="20" on="0"/>
        <pt x="980" y="-51" on="0"/>
        <pt x="887" y="-51" on="1"/>
        <pt x="812" y="-51" on="0"/>
        <pt x="663" y="-15" on="0"/>
        <pt x="518" y="39" on="0"/>
        <pt x="378" y="99" on="0"/>
        <pt x="312" y="123" on="1"/>
        <pt x="253" y="64" on="0"/>
        <pt x="122" y="0" on="0"/>
        <pt x="50" y="0" on="1"/>
        <pt x="0" y="0" on="0"/>
        <pt x="-61" y="53" on="0"/>
        <pt x="-61" y="102" on="1"/>
        <pt x="-61" y="133" on="0"/>
        <pt x="-28" y="199" on="0"/>
        <pt x="37" y="253" on="0"/>
        <pt x="133" y="287" on="0"/>
        <pt x="195" y="287" on="1"/>
        <pt x="235" y="287" on="0"/>
        <pt x="319" y="276" on="0"/>
        <pt x="359" y="266" on="1"/>
        <pt x="431" y="365" on="0"/>
        <pt x="567" y="618" on="0"/>
        <pt x="635" y="758" on="1"/>
        <pt x="467" y="758" on="1"/>
      </contour>
      <contour>
        <pt x="58" y="51" on="1"/>
        <pt x="109" y="51" on="0"/>
        <pt x="204" y="98" on="0"/>
        <pt x="250" y="141" on="1"/>
        <pt x="178" y="164" on="0"/>
        <pt x="103" y="164" on="1"/>
        <pt x="69" y="164" on="0"/>
        <pt x="24" y="153" on="0"/>
        <pt x="-4" y="135" on="0"/>
        <pt x="-16" y="111" on="0"/>
        <pt x="-16" y="98" on="1"/>
        <pt x="-16" y="78" on="0"/>
        <pt x="23" y="51" on="0"/>
      </contour>
      <contour>
        <pt x="1233" y="1556" on="1"/>
        <pt x="1196" y="1556" on="0"/>
        <pt x="1124" y="1519" on="0"/>
        <pt x="1090" y="1487" on="1"/>
        <pt x="1142" y="1475" on="0"/>
        <pt x="1186" y="1475" on="1"/>
        <pt x="1242" y="1475" on="0"/>
        <pt x="1289" y="1507" on="0"/>
        <pt x="1289" y="1524" on="1"/>
        <pt x="1289" y="1538" on="0"/>
        <pt x="1259" y="1556" on="0"/>
      </contour>
    </TTGlyph>
    <TTGlyph name="Zcaron" xMin="-61" yMin="-51" xMax="1373" yMax="2038">
      <component glyphName="Z" x="0" y="0" flags="0x1204"/>
      <component glyphName="caron" x="555" y="860" flags="0x1004"/>
    </TTGlyph>
    <TTGlyph name="a" xMin="-25" yMin="0" xMax="915" yMax="819">
      <contour>
        <pt x="606" y="248" on="1"/>
        <pt x="606" y="191" on="0"/>
        <pt x="626" y="113" on="0"/>
        <pt x="651" y="113" on="1"/>
        <pt x="666" y="113" on="0"/>
        <pt x="701" y="142" on="0"/>
        <pt x="747" y="208" on="0"/>
        <pt x="806" y="313" on="0"/>
        <pt x="844" y="389" on="1"/>
        <pt x="874" y="451" on="1"/>
        <pt x="915" y="420" on="1"/>
        <pt x="885" y="358" on="1"/>
        <pt x="843" y="274" on="0"/>
        <pt x="770" y="141" on="0"/>
        <pt x="704" y="49" on="0"/>
        <pt x="641" y="0" on="0"/>
        <pt x="610" y="0" on="1"/>
        <pt x="577" y="0" on="0"/>
        <pt x="532" y="36" on="0"/>
        <pt x="502" y="99" on="0"/>
        <pt x="486" y="182" on="0"/>
        <pt x="483" y="229" on="1"/>
        <pt x="459" y="181" on="0"/>
        <pt x="401" y="98" on="0"/>
        <pt x="338" y="36" on="0"/>
        <pt x="270" y="0" on="0"/>
        <pt x="236" y="0" on="1"/>
        <pt x="186" y="0" on="0"/>
        <pt x="92" y="42" on="0"/>
        <pt x="19" y="128" on="0"/>
        <pt x="-25" y="259" on="0"/>
        <pt x="-25" y="348" on="1"/>
        <pt x="-25" y="452" on="0"/>
        <pt x="29" y="625" on="0"/>
        <pt x="121" y="750" on="0"/>
        <pt x="241" y="819" on="0"/>
        <pt x="307" y="819" on="1"/>
        <pt x="347" y="819" on="0"/>
        <pt x="415" y="783" on="0"/>
        <pt x="466" y="732" on="0"/>
        <pt x="500" y="675" on="0"/>
        <pt x="506" y="655" on="1"/>
        <pt x="518" y="752" on="1"/>
        <pt x="520" y="771" on="0"/>
        <pt x="553" y="797" on="0"/>
        <pt x="593" y="812" on="0"/>
        <pt x="631" y="819" on="0"/>
        <pt x="639" y="819" on="1"/>
        <pt x="651" y="819" on="0"/>
        <pt x="659" y="811" on="0"/>
        <pt x="659" y="799" on="1"/>
        <pt x="659" y="784" on="0"/>
        <pt x="642" y="693" on="0"/>
        <pt x="623" y="552" on="0"/>
        <pt x="606" y="362" on="0"/>
      </contour>
      <contour>
        <pt x="496" y="512" on="1"/>
        <pt x="496" y="558" on="0"/>
        <pt x="468" y="647" on="0"/>
        <pt x="420" y="716" on="0"/>
        <pt x="357" y="758" on="0"/>
        <pt x="322" y="758" on="1"/>
        <pt x="279" y="758" on="0"/>
        <pt x="204" y="709" on="0"/>
        <pt x="149" y="620" on="0"/>
        <pt x="117" y="495" on="0"/>
        <pt x="117" y="420" on="1"/>
        <pt x="117" y="270" on="0"/>
        <pt x="211" y="113" on="0"/>
        <pt x="289" y="113" on="1"/>
        <pt x="323" y="113" on="0"/>
        <pt x="396" y="168" on="0"/>
        <pt x="457" y="271" on="0"/>
        <pt x="496" y="419" on="0"/>
      </contour>
    </TTGlyph>
    <TTGlyph name="aacute" xMin="-25" yMin="0" xMax="915" yMax="1171">
      <component glyphName="a" x="0" y="0" flags="0x1204"/>
      <component glyphName="acute" x="248" y="0" flags="0x1004"/>
    </TTGlyph>
    <TTGlyph name="acircumflex" xMin="-25" yMin="0" xMax="915" yMax="1178">
      <component glyphName="a" x="0" y="0" flags="0x1204"/>
      <component glyphName="circumflex" x="106" y="0" flags="0x1004"/>
    </TTGlyph>
    <TTGlyph name="acute" xMin="0" yMin="928" xMax="297" yMax="1171">
      <contour>
        <pt x="0" y="971" on="1"/>
        <pt x="193" y="1171" on="1"/>
        <pt x="297" y="1069" on="1"/>
        <pt x="27" y="928" on="1"/>
      </contour>
    </TTGlyph>
    <TTGlyph name="adieresis" xMin="-25" yMin="0" xMax="915" yMax="1147">
      <component glyphName="a" x="0" y="0" flags="0x1204"/>
      <component glyphName="dieresis" x="190" y="0" flags="0x1004"/>
    </TTGlyph>
    <TTGlyph name="ae" xMin="-25" yMin="0" xMax="1198" yMax="819">
      <contour>
        <pt x="639" y="778" on="1"/>
        <pt x="639" y="770" on="0"/>
        <pt x="634" y="738" on="0"/>
        <pt x="631" y="709" on="1"/>
        <pt x="679" y="761" on="0"/>
        <pt x="794" y="819" on="0"/>
        <pt x="856" y="819" on="1"/>
        <pt x="894" y="819" on="0"/>
        <pt x="948" y="797" on="0"/>
        <pt x="982" y="764" on="0"/>
        <pt x="997" y="725" on="0"/>
        <pt x="997" y="707" on="1"/>
        <pt x="997" y="670" on="0"/>
        <pt x="961" y="597" on="0"/>
        <pt x="902" y="529" on="0"/>
        <pt x="826" y="465" on="0"/>
        <pt x="746" y="408" on="0"/>
        <pt x="667" y="361" on="0"/>
        <pt x="635" y="342" on="1"/>
        <pt x="637" y="288" on="0"/>
        <pt x="652" y="197" on="0"/>
        <pt x="685" y="130" on="0"/>
        <pt x="739" y="92" on="0"/>
        <pt x="780" y="92" on="1"/>
        <pt x="815" y="92" on="0"/>
        <pt x="907" y="134" on="0"/>
        <pt x="1006" y="219" on="0"/>
        <pt x="1105" y="346" on="0"/>
        <pt x="1147" y="430" on="1"/>
        <pt x="1157" y="451" on="1"/>
        <pt x="1198" y="420" on="1"/>
        <pt x="1188" y="399" on="1"/>
        <pt x="1134" y="292" on="0"/>
        <pt x="1008" y="140" on="0"/>
        <pt x="881" y="44" on="0"/>
        <pt x="763" y="0" on="0"/>
        <pt x="717" y="0" on="1"/>
        <pt x="670" y="0" on="0"/>
        <pt x="601" y="28" on="0"/>
        <pt x="553" y="79" on="0"/>
        <pt x="524" y="149" on="0"/>
        <pt x="516" y="190" on="1"/>
        <pt x="491" y="151" on="0"/>
        <pt x="429" y="82" on="0"/>
        <pt x="358" y="30" on="0"/>
        <pt x="279" y="0" on="0"/>
        <pt x="236" y="0" on="1"/>
        <pt x="186" y="0" on="0"/>
        <pt x="92" y="42" on="0"/>
        <pt x="19" y="128" on="0"/>
        <pt x="-25" y="259" on="0"/>
        <pt x="-25" y="348" on="1"/>
        <pt x="-25" y="452" on="0"/>
        <pt x="29" y="625" on="0"/>
        <pt x="118" y="750" on="0"/>
        <pt x="230" y="819" on="0"/>
        <pt x="289" y="819" on="1"/>
        <pt x="337" y="819" on="0"/>
        <pt x="412" y="789" on="0"/>
        <pt x="466" y="746" on="0"/>
        <pt x="500" y="696" on="0"/>
        <pt x="506" y="676" on="1"/>
        <pt x="506" y="752" on="1"/>
        <pt x="506" y="771" on="0"/>
        <pt x="531" y="797" on="0"/>
        <pt x="564" y="812" on="0"/>
        <pt x="596" y="819" on="0"/>
        <pt x="604" y="819" on="1"/>
        <pt x="624" y="819" on="0"/>
        <pt x="639" y="801" on="0"/>
      </contour>
      <contour>
        <pt x="504" y="512" on="1"/>
        <pt x="504" y="558" on="0"/>
        <pt x="474" y="647" on="0"/>
        <pt x="423" y="716" on="0"/>
        <pt x="357" y="758" on="0"/>
        <pt x="322" y="758" on="1"/>
        <pt x="279" y="758" on="0"/>
        <pt x="204" y="709" on="0"/>
        <pt x="149" y="620" on="0"/>
        <pt x="117" y="495" on="0"/>
        <pt x="117" y="420" on="1"/>
        <pt x="117" y="370" on="0"/>
        <pt x="136" y="262" on="0"/>
        <pt x="179" y="172" on="0"/>
        <pt x="248" y="113" on="0"/>
        <pt x="297" y="113" on="1"/>
        <pt x="335" y="113" on="0"/>
        <pt x="395" y="139" on="0"/>
        <pt x="440" y="178" on="0"/>
        <pt x="471" y="225" on="0"/>
        <pt x="491" y="268" on="0"/>
        <pt x="500" y="301" on="0"/>
        <pt x="500" y="307" on="1"/>
        <pt x="500" y="349" on="0"/>
        <pt x="504" y="453" on="0"/>
      </contour>
      <contour>
        <pt x="893" y="666" on="1"/>
        <pt x="893" y="704" on="0"/>
        <pt x="850" y="758" on="0"/>
        <pt x="807" y="758" on="1"/>
        <pt x="778" y="758" on="0"/>
        <pt x="718" y="716" on="0"/>
        <pt x="667" y="632" on="0"/>
        <pt x="635" y="504" on="0"/>
        <pt x="635" y="418" on="1"/>
        <pt x="635" y="393" on="1"/>
        <pt x="669" y="412" on="0"/>
        <pt x="759" y="472" on="0"/>
        <pt x="838" y="544" on="0"/>
        <pt x="893" y="625" on="0"/>
      </contour>
    </TTGlyph>
    <TTGlyph name="agrave" xMin="-25" yMin="0" xMax="915" yMax="1178">
      <component glyphName="a" x="0" y="0" flags="0x1204"/>
      <component glyphName="grave" x="252" y="0" flags="0x1004"/>
    </TTGlyph>
    <TTGlyph name="ampersand" xMin="123" yMin="0" xMax="1434" yMax="1546">
      <contour>
        <pt x="1280" y="559" on="1"/>
        <pt x="1318" y="559" on="0"/>
        <pt x="1366" y="601" on="0"/>
        <pt x="1366" y="627" on="1"/>
        <pt x="1366" y="640" on="0"/>
        <pt x="1351" y="666" on="0"/>
        <pt x="1320" y="686" on="0"/>
        <pt x="1269" y="698" on="0"/>
        <pt x="1233" y="698" on="1"/>
        <pt x="1186" y="698" on="0"/>
        <pt x="1098" y="676" on="0"/>
        <pt x="1053" y="659" on="1"/>
        <pt x="1095" y="617" on="0"/>
        <pt x="1145" y="506" on="0"/>
        <pt x="1145" y="434" on="1"/>
        <pt x="1145" y="329" on="0"/>
        <pt x="1062" y="167" on="0"/>
        <pt x="923" y="57" on="0"/>
        <pt x="741" y="0" on="0"/>
        <pt x="643" y="0" on="1"/>
        <pt x="545" y="0" on="0"/>
        <pt x="359" y="58" on="0"/>
        <pt x="212" y="174" on="0"/>
        <pt x="123" y="350" on="0"/>
        <pt x="123" y="467" on="1"/>
        <pt x="123" y="575" on="0"/>
        <pt x="192" y="738" on="0"/>
        <pt x="301" y="855" on="0"/>
        <pt x="433" y="931" on="0"/>
        <pt x="496" y="952" on="1"/>
        <pt x="457" y="972" on="0"/>
        <pt x="382" y="1030" on="0"/>
        <pt x="324" y="1102" on="0"/>
        <pt x="289" y="1189" on="0"/>
        <pt x="289" y="1239" on="1"/>
        <pt x="289" y="1309" on="0"/>
        <pt x="349" y="1423" on="0"/>
        <pt x="446" y="1503" on="0"/>
        <pt x="570" y="1546" on="0"/>
        <pt x="635" y="1546" on="1"/>
        <pt x="713" y="1546" on="0"/>
        <pt x="825" y="1511" on="0"/>
        <pt x="895" y="1456" on="0"/>
        <pt x="928" y="1386" on="0"/>
        <pt x="928" y="1352" on="1"/>
        <pt x="928" y="1323" on="0"/>
        <pt x="907" y="1269" on="0"/>
        <pt x="868" y="1228" on="0"/>
        <pt x="812" y="1204" on="0"/>
        <pt x="778" y="1204" on="1"/>
        <pt x="752" y="1204" on="0"/>
        <pt x="710" y="1223" on="0"/>
        <pt x="678" y="1247" on="0"/>
        <pt x="658" y="1271" on="0"/>
        <pt x="655" y="1276" on="1"/>
        <pt x="688" y="1296" on="1"/>
        <pt x="693" y="1291" on="0"/>
        <pt x="712" y="1277" on="0"/>
        <pt x="736" y="1264" on="0"/>
        <pt x="763" y="1255" on="0"/>
        <pt x="778" y="1255" on="1"/>
        <pt x="818" y="1255" on="0"/>
        <pt x="866" y="1313" on="0"/>
        <pt x="866" y="1352" on="1"/>
        <pt x="866" y="1375" on="0"/>
        <pt x="845" y="1422" on="0"/>
        <pt x="801" y="1461" on="0"/>
        <pt x="732" y="1485" on="0"/>
        <pt x="684" y="1485" on="1"/>
        <pt x="621" y="1485" on="0"/>
        <pt x="525" y="1439" on="0"/>
        <pt x="461" y="1362" on="0"/>
        <pt x="428" y="1265" on="0"/>
        <pt x="428" y="1214" on="1"/>
        <pt x="428" y="1176" on="0"/>
        <pt x="447" y="1104" on="0"/>
        <pt x="484" y="1041" on="0"/>
        <pt x="541" y="990" on="0"/>
        <pt x="580" y="975" on="1"/>
        <pt x="600" y="980" on="0"/>
        <pt x="636" y="983" on="0"/>
        <pt x="651" y="983" on="1"/>
        <pt x="677" y="983" on="0"/>
        <pt x="707" y="968" on="0"/>
        <pt x="707" y="954" on="1"/>
        <pt x="707" y="933" on="0"/>
        <pt x="673" y="911" on="0"/>
        <pt x="645" y="911" on="1"/>
        <pt x="628" y="911" on="0"/>
        <pt x="589" y="917" on="0"/>
        <pt x="567" y="924" on="1"/>
        <pt x="498" y="908" on="0"/>
        <pt x="394" y="829" on="0"/>
        <pt x="324" y="719" on="0"/>
        <pt x="289" y="588" on="0"/>
        <pt x="289" y="520" on="1"/>
        <pt x="289" y="438" on="0"/>
        <pt x="340" y="278" on="0"/>
        <pt x="444" y="152" on="0"/>
        <pt x="598" y="74" on="0"/>
        <pt x="702" y="74" on="1"/>
        <pt x="775" y="74" on="0"/>
        <pt x="912" y="120" on="0"/>
        <pt x="1017" y="210" on="0"/>
        <pt x="1081" y="342" on="0"/>
        <pt x="1081" y="428" on="1"/>
        <pt x="1081" y="497" on="0"/>
        <pt x="1035" y="602" on="0"/>
        <pt x="997" y="639" on="1"/>
        <pt x="956" y="622" on="0"/>
        <pt x="875" y="588" on="0"/>
        <pt x="790" y="560" on="0"/>
        <pt x="702" y="543" on="0"/>
        <pt x="655" y="543" on="1"/>
        <pt x="619" y="543" on="0"/>
        <pt x="566" y="561" on="0"/>
        <pt x="531" y="590" on="0"/>
        <pt x="514" y="628" on="0"/>
        <pt x="514" y="649" on="1"/>
        <pt x="514" y="681" on="0"/>
        <pt x="549" y="731" on="0"/>
        <pt x="609" y="766" on="0"/>
        <pt x="690" y="784" on="0"/>
        <pt x="735" y="784" on="1"/>
        <pt x="783" y="784" on="0"/>
        <pt x="886" y="763" on="0"/>
        <pt x="936" y="741" on="1"/>
        <pt x="999" y="772" on="0"/>
        <pt x="1139" y="821" on="0"/>
        <pt x="1221" y="821" on="1"/>
        <pt x="1276" y="821" on="0"/>
        <pt x="1356" y="792" on="0"/>
        <pt x="1409" y="746" on="0"/>
        <pt x="1434" y="688" on="0"/>
        <pt x="1434" y="659" on="1"/>
        <pt x="1434" y="632" on="0"/>
        <pt x="1414" y="582" on="0"/>
        <pt x="1375" y="542" on="0"/>
        <pt x="1319" y="518" on="0"/>
        <pt x="1284" y="518" on="1"/>
      </contour>
      <contour>
        <pt x="735" y="737" on="1"/>
        <pt x="678" y="737" on="0"/>
        <pt x="602" y="706" on="0"/>
        <pt x="602" y="680" on="1"/>
        <pt x="602" y="664" on="0"/>
        <pt x="638" y="643" on="0"/>
        <pt x="678" y="643" on="1"/>
        <pt x="724" y="643" on="0"/>
        <pt x="823" y="683" on="0"/>
        <pt x="879" y="711" on="1"/>
        <pt x="841" y="725" on="0"/>
        <pt x="767" y="737" on="0"/>
      </contour>
    </TTGlyph>
    <TTGlyph name="aring" xMin="-25" yMin="0" xMax="915" yMax="1249">
      <component glyphName="a" x="0" y="0" flags="0x1204"/>
      <component glyphName="ring" x="262" y="0" flags="0x1004"/>
    </TTGlyph>
    <TTGlyph name="asciicircum" xMin="123" yMin="645" xMax="778" yMax="1219">
      <contour>
        <pt x="451" y="1055" on="1"/>
        <pt x="164" y="645" on="1"/>
        <pt x="123" y="676" on="1"/>
        <pt x="451" y="1219" on="1"/>
        <pt x="778" y="676" on="1"/>
        <pt x="737" y="645" on="1"/>
      </contour>
    </TTGlyph>
    <TTGlyph name="asciitilde" xMin="123" yMin="492" xMax="635" yMax="655">
      <contour>
        <pt x="123" y="492" on="1"/>
        <pt x="128" y="537" on="0"/>
        <pt x="145" y="573" on="1"/>
        <pt x="159" y="604" on="0"/>
        <pt x="216" y="655" on="0"/>
        <pt x="266" y="655" on="1"/>
        <pt x="297" y="655" on="0"/>
        <pt x="361" y="636" on="0"/>
        <pt x="427" y="613" on="0"/>
        <pt x="491" y="594" on="0"/>
        <pt x="522" y="594" on="1"/>
        <pt x="545" y="594" on="0"/>
        <pt x="573" y="613" on="0"/>
        <pt x="581" y="624" on="1"/>
        <pt x="590" y="637" on="0"/>
        <pt x="594" y="655" on="1"/>
        <pt x="635" y="655" on="1"/>
        <pt x="630" y="609" on="0"/>
        <pt x="613" y="573" on="1"/>
        <pt x="599" y="542" on="0"/>
        <pt x="541" y="492" on="0"/>
        <pt x="492" y="492" on="1"/>
        <pt x="461" y="492" on="0"/>
        <pt x="396" y="511" on="0"/>
        <pt x="330" y="534" on="0"/>
        <pt x="266" y="553" on="0"/>
        <pt x="236" y="553" on="1"/>
        <pt x="213" y="553" on="0"/>
        <pt x="185" y="533" on="0"/>
        <pt x="177" y="522" on="1"/>
        <pt x="168" y="509" on="0"/>
        <pt x="164" y="492" on="1"/>
      </contour>
    </TTGlyph>
    <TTGlyph name="asterisk" xMin="123" yMin="889" xMax="678" yMax="1436">
      <contour>
        <pt x="477" y="889" on="1"/>
        <pt x="397" y="1114" on="1"/>
        <pt x="324" y="905" on="1"/>
        <pt x="203" y="954" on="1"/>
        <pt x="358" y="1137" on="1"/>
        <pt x="141" y="1100" on="1"/>
        <pt x="123" y="1229" on="1"/>
        <pt x="356" y="1188" on="1"/>
        <pt x="203" y="1366" on="1"/>
        <pt x="332" y="1417" on="1"/>
        <pt x="401" y="1212" on="1"/>
        <pt x="487" y="1436" on="1"/>
        <pt x="588" y="1352" on="1"/>
        <pt x="442" y="1186" on="1"/>
        <pt x="678" y="1227" on="1"/>
        <pt x="655" y="1098" on="1"/>
        <pt x="444" y="1137" on="1"/>
        <pt x="586" y="977" on="1"/>
      </contour>
    </TTGlyph>
    <TTGlyph name="at" xMin="123" yMin="0" xMax="1065" yMax="911">
      <contour>
        <pt x="1065" y="487" on="1"/>
        <pt x="1065" y="415" on="0"/>
        <pt x="1031" y="299" on="0"/>
        <pt x="976" y="218" on="0"/>
        <pt x="905" y="174" on="0"/>
        <pt x="868" y="174" on="1"/>
        <pt x="844" y="174" on="0"/>
        <pt x="799" y="189" on="0"/>
        <pt x="761" y="221" on="0"/>
        <pt x="733" y="267" on="0"/>
        <pt x="727" y="299" on="1"/>
        <pt x="695" y="236" on="0"/>
        <pt x="595" y="176" on="0"/>
        <pt x="541" y="176" on="1"/>
        <pt x="488" y="176" on="0"/>
        <pt x="409" y="218" on="0"/>
        <pt x="357" y="287" on="0"/>
        <pt x="332" y="376" on="0"/>
        <pt x="332" y="424" on="1"/>
        <pt x="332" y="476" on="0"/>
        <pt x="363" y="578" on="0"/>
        <pt x="423" y="659" on="0"/>
        <pt x="513" y="709" on="0"/>
        <pt x="573" y="709" on="1"/>
        <pt x="626" y="709" on="0"/>
        <pt x="723" y="659" on="0"/>
        <pt x="752" y="606" on="1"/>
        <pt x="756" y="662" on="1"/>
        <pt x="758" y="680" on="0"/>
        <pt x="800" y="690" on="0"/>
        <pt x="823" y="690" on="1"/>
        <pt x="837" y="690" on="0"/>
        <pt x="850" y="680" on="0"/>
        <pt x="850" y="666" on="1"/>
        <pt x="850" y="659" on="0"/>
        <pt x="840" y="612" on="0"/>
        <pt x="829" y="531" on="0"/>
        <pt x="819" y="417" on="0"/>
        <pt x="819" y="342" on="1"/>
        <pt x="819" y="289" on="0"/>
        <pt x="849" y="240" on="0"/>
        <pt x="872" y="240" on="1"/>
        <pt x="914" y="240" on="0"/>
        <pt x="952" y="362" on="0"/>
        <pt x="952" y="487" on="1"/>
        <pt x="952" y="567" on="0"/>
        <pt x="911" y="700" on="0"/>
        <pt x="827" y="796" on="0"/>
        <pt x="698" y="850" on="0"/>
        <pt x="610" y="850" on="1"/>
        <pt x="546" y="850" on="0"/>
        <pt x="420" y="798" on="0"/>
        <pt x="320" y="693" on="0"/>
        <pt x="258" y="534" on="0"/>
        <pt x="258" y="426" on="1"/>
        <pt x="258" y="346" on="0"/>
        <pt x="307" y="212" on="0"/>
        <pt x="399" y="115" on="0"/>
        <pt x="528" y="61" on="0"/>
        <pt x="608" y="61" on="1"/>
        <pt x="648" y="61" on="0"/>
        <pt x="718" y="70" on="0"/>
        <pt x="744" y="76" on="1"/>
        <pt x="774" y="83" on="0"/>
        <pt x="799" y="92" on="1"/>
        <pt x="815" y="49" on="1"/>
        <pt x="788" y="35" on="0"/>
        <pt x="755" y="24" on="1"/>
        <pt x="727" y="15" on="0"/>
        <pt x="652" y="0" on="0"/>
        <pt x="608" y="0" on="1"/>
        <pt x="485" y="0" on="0"/>
        <pt x="302" y="75" on="0"/>
        <pt x="182" y="199" on="0"/>
        <pt x="123" y="358" on="0"/>
        <pt x="123" y="442" on="1"/>
        <pt x="123" y="529" on="0"/>
        <pt x="185" y="697" on="0"/>
        <pt x="308" y="830" on="0"/>
        <pt x="490" y="911" on="0"/>
        <pt x="610" y="911" on="1"/>
        <pt x="710" y="911" on="0"/>
        <pt x="877" y="848" on="0"/>
        <pt x="998" y="735" on="0"/>
        <pt x="1065" y="579" on="0"/>
      </contour>
      <contour>
        <pt x="729" y="504" on="1"/>
        <pt x="729" y="540" on="0"/>
        <pt x="708" y="596" on="0"/>
        <pt x="673" y="633" on="0"/>
        <pt x="627" y="653" on="0"/>
        <pt x="602" y="653" on="1"/>
        <pt x="564" y="653" on="0"/>
        <pt x="508" y="614" on="0"/>
        <pt x="470" y="550" on="0"/>
        <pt x="451" y="470" on="0"/>
        <pt x="451" y="428" on="1"/>
        <pt x="451" y="390" on="0"/>
        <pt x="467" y="320" on="0"/>
        <pt x="499" y="266" on="0"/>
        <pt x="548" y="233" on="0"/>
        <pt x="580" y="233" on="1"/>
        <pt x="605" y="233" on="0"/>
        <pt x="658" y="266" on="0"/>
        <pt x="701" y="334" on="0"/>
        <pt x="729" y="436" on="0"/>
      </contour>
    </TTGlyph>
    <TTGlyph name="atilde" xMin="-25" yMin="0" xMax="915" yMax="1147">
      <component glyphName="a" x="0" y="0" flags="0x1204"/>
      <component glyphName="tilde" x="111" y="0" flags="0x1004"/>
    </TTGlyph>
    <TTGlyph name="b" xMin="-20" yMin="0" xMax="838" yMax="1495">
      <contour>
        <pt x="131" y="532" on="1"/>
        <pt x="132" y="417" on="0"/>
        <pt x="160" y="238" on="0"/>
        <pt x="210" y="115" on="0"/>
        <pt x="282" y="51" on="0"/>
        <pt x="328" y="51" on="1"/>
        <pt x="391" y="51" on="0"/>
        <pt x="474" y="152" on="0"/>
        <pt x="494" y="240" on="1"/>
        <pt x="442" y="251" on="0"/>
        <pt x="348" y="311" on="0"/>
        <pt x="276" y="400" on="0"/>
        <pt x="233" y="516" on="0"/>
        <pt x="233" y="584" on="1"/>
        <pt x="233" y="640" on="0"/>
        <pt x="262" y="725" on="0"/>
        <pt x="310" y="782" on="0"/>
        <pt x="373" y="811" on="0"/>
        <pt x="408" y="811" on="1"/>
        <pt x="449" y="811" on="0"/>
        <pt x="535" y="764" on="0"/>
        <pt x="605" y="671" on="0"/>
        <pt x="649" y="531" on="0"/>
        <pt x="649" y="438" on="1"/>
        <pt x="649" y="403" on="0"/>
        <pt x="641" y="335" on="0"/>
        <pt x="633" y="303" on="1"/>
        <pt x="681" y="317" on="0"/>
        <pt x="760" y="379" on="0"/>
        <pt x="786" y="430" on="1"/>
        <pt x="797" y="451" on="1"/>
        <pt x="838" y="420" on="1"/>
        <pt x="827" y="399" on="1"/>
        <pt x="793" y="331" on="0"/>
        <pt x="680" y="250" on="0"/>
        <pt x="614" y="238" on="1"/>
        <pt x="596" y="187" on="0"/>
        <pt x="539" y="100" on="0"/>
        <pt x="466" y="36" on="0"/>
        <pt x="375" y="0" on="0"/>
        <pt x="322" y="0" on="1"/>
        <pt x="247" y="0" on="0"/>
        <pt x="122" y="64" on="0"/>
        <pt x="31" y="208" on="0"/>
        <pt x="-20" y="443" on="0"/>
        <pt x="-20" y="614" on="1"/>
        <pt x="-20" y="852" on="0"/>
        <pt x="24" y="1187" on="0"/>
        <pt x="96" y="1398" on="0"/>
        <pt x="190" y="1495" on="0"/>
        <pt x="240" y="1495" on="1"/>
        <pt x="271" y="1495" on="0"/>
        <pt x="311" y="1446" on="0"/>
        <pt x="311" y="1382" on="1"/>
        <pt x="311" y="1332" on="0"/>
        <pt x="295" y="1204" on="0"/>
        <pt x="269" y="1058" on="0"/>
        <pt x="233" y="901" on="0"/>
        <pt x="193" y="746" on="0"/>
        <pt x="151" y="597" on="0"/>
      </contour>
      <contour>
        <pt x="299" y="592" on="1"/>
        <pt x="299" y="533" on="0"/>
        <pt x="332" y="434" on="0"/>
        <pt x="388" y="359" on="0"/>
        <pt x="462" y="309" on="0"/>
        <pt x="504" y="299" on="1"/>
        <pt x="509" y="327" on="0"/>
        <pt x="512" y="388" on="0"/>
        <pt x="512" y="420" on="1"/>
        <pt x="512" y="491" on="0"/>
        <pt x="490" y="606" on="0"/>
        <pt x="454" y="687" on="0"/>
        <pt x="406" y="731" on="0"/>
        <pt x="381" y="731" on="1"/>
        <pt x="347" y="731" on="0"/>
        <pt x="299" y="658" on="0"/>
      </contour>
      <contour>
        <pt x="246" y="1358" on="1"/>
        <pt x="246" y="1379" on="0"/>
        <pt x="236" y="1403" on="0"/>
        <pt x="225" y="1403" on="1"/>
        <pt x="214" y="1403" on="0"/>
        <pt x="192" y="1341" on="0"/>
        <pt x="171" y="1235" on="0"/>
        <pt x="154" y="1095" on="0"/>
        <pt x="140" y="938" on="0"/>
        <pt x="132" y="774" on="0"/>
        <pt x="131" y="698" on="1"/>
        <pt x="155" y="786" on="0"/>
        <pt x="197" y="971" on="0"/>
        <pt x="228" y="1145" on="0"/>
        <pt x="246" y="1300" on="0"/>
      </contour>
    </TTGlyph>
    <TTGlyph name="backslash" xMin="96" yMin="-154" xMax="631" yMax="1587">
      <contour>
        <pt x="96" y="1569" on="1"/>
        <pt x="168" y="1587" on="1"/>
        <pt x="631" y="-135" on="1"/>
        <pt x="559" y="-154" on="1"/>
      </contour>
    </TTGlyph>
    <TTGlyph name="bar" xMin="123" yMin="-51" xMax="205" yMax="1731">
      <contour>
        <pt x="205" y="-51" on="1"/>
        <pt x="123" y="-51" on="1"/>
        <pt x="123" y="1731" on="1"/>
        <pt x="205" y="1731" on="1"/>
      </contour>
    </TTGlyph>
    <TTGlyph name="braceleft" xMin="121" yMin="-39" xMax="639" yMax="1718">
      <contour>
        <pt x="121" y="860" on="1"/>
        <pt x="185" y="860" on="0"/>
        <pt x="272" y="878" on="0"/>
        <pt x="324" y="911" on="0"/>
        <pt x="346" y="956" on="0"/>
        <pt x="346" y="983" on="1"/>
        <pt x="346" y="1029" on="0"/>
        <pt x="320" y="1158" on="0"/>
        <pt x="290" y="1304" on="0"/>
        <pt x="264" y="1457" on="0"/>
        <pt x="264" y="1526" on="1"/>
        <pt x="264" y="1586" on="0"/>
        <pt x="298" y="1661" on="0"/>
        <pt x="356" y="1703" on="0"/>
        <pt x="433" y="1718" on="0"/>
        <pt x="475" y="1718" on="1"/>
        <pt x="517" y="1718" on="0"/>
        <pt x="601" y="1709" on="0"/>
        <pt x="639" y="1706" on="1"/>
        <pt x="637" y="1665" on="1"/>
        <pt x="571" y="1667" on="1"/>
        <pt x="542" y="1668" on="0"/>
        <pt x="481" y="1657" on="0"/>
        <pt x="430" y="1623" on="0"/>
        <pt x="397" y="1558" on="0"/>
        <pt x="397" y="1505" on="1"/>
        <pt x="397" y="1448" on="0"/>
        <pt x="419" y="1315" on="0"/>
        <pt x="446" y="1184" on="0"/>
        <pt x="469" y="1066" on="0"/>
        <pt x="469" y="1024" on="1"/>
        <pt x="469" y="955" on="0"/>
        <pt x="387" y="860" on="0"/>
        <pt x="311" y="840" on="1"/>
        <pt x="387" y="818" on="0"/>
        <pt x="469" y="725" on="0"/>
        <pt x="469" y="655" on="1"/>
        <pt x="469" y="613" on="0"/>
        <pt x="446" y="495" on="0"/>
        <pt x="419" y="365" on="0"/>
        <pt x="397" y="232" on="0"/>
        <pt x="397" y="174" on="1"/>
        <pt x="397" y="121" on="0"/>
        <pt x="430" y="57" on="0"/>
        <pt x="481" y="22" on="0"/>
        <pt x="542" y="11" on="0"/>
        <pt x="571" y="12" on="1"/>
        <pt x="637" y="14" on="1"/>
        <pt x="639" y="-27" on="1"/>
        <pt x="596" y="-32" on="0"/>
        <pt x="509" y="-39" on="0"/>
        <pt x="469" y="-39" on="1"/>
        <pt x="426" y="-39" on="0"/>
        <pt x="351" y="-24" on="0"/>
        <pt x="296" y="19" on="0"/>
        <pt x="264" y="94" on="0"/>
        <pt x="264" y="154" on="1"/>
        <pt x="264" y="223" on="0"/>
        <pt x="290" y="375" on="0"/>
        <pt x="320" y="521" on="0"/>
        <pt x="346" y="650" on="0"/>
        <pt x="346" y="696" on="1"/>
        <pt x="346" y="723" on="0"/>
        <pt x="324" y="768" on="0"/>
        <pt x="272" y="801" on="0"/>
        <pt x="185" y="819" on="0"/>
        <pt x="121" y="819" on="1"/>
      </contour>
    </TTGlyph>
    <TTGlyph name="braceright" xMin="127" yMin="-39" xMax="645" yMax="1718">
      <contour>
        <pt x="645" y="819" on="1"/>
        <pt x="580" y="819" on="0"/>
        <pt x="494" y="801" on="0"/>
        <pt x="442" y="768" on="0"/>
        <pt x="420" y="723" on="0"/>
        <pt x="420" y="696" on="1"/>
        <pt x="420" y="650" on="0"/>
        <pt x="446" y="521" on="0"/>
        <pt x="476" y="375" on="0"/>
        <pt x="502" y="223" on="0"/>
        <pt x="502" y="154" on="1"/>
        <pt x="502" y="94" on="0"/>
        <pt x="470" y="19" on="0"/>
        <pt x="415" y="-24" on="0"/>
        <pt x="340" y="-39" on="0"/>
        <pt x="297" y="-39" on="1"/>
        <pt x="257" y="-39" on="0"/>
        <pt x="170" y="-32" on="0"/>
        <pt x="127" y="-27" on="1"/>
        <pt x="129" y="14" on="1"/>
        <pt x="195" y="12" on="1"/>
        <pt x="224" y="11" on="0"/>
        <pt x="285" y="22" on="0"/>
        <pt x="336" y="57" on="0"/>
        <pt x="369" y="121" on="0"/>
        <pt x="369" y="174" on="1"/>
        <pt x="369" y="232" on="0"/>
        <pt x="346" y="365" on="0"/>
        <pt x="319" y="495" on="0"/>
        <pt x="297" y="613" on="0"/>
        <pt x="297" y="655" on="1"/>
        <pt x="297" y="725" on="0"/>
        <pt x="379" y="818" on="0"/>
        <pt x="455" y="840" on="1"/>
        <pt x="379" y="860" on="0"/>
        <pt x="297" y="955" on="0"/>
        <pt x="297" y="1024" on="1"/>
        <pt x="297" y="1066" on="0"/>
        <pt x="319" y="1184" on="0"/>
        <pt x="346" y="1315" on="0"/>
        <pt x="369" y="1448" on="0"/>
        <pt x="369" y="1505" on="1"/>
        <pt x="369" y="1558" on="0"/>
        <pt x="336" y="1623" on="0"/>
        <pt x="285" y="1657" on="0"/>
        <pt x="224" y="1668" on="0"/>
        <pt x="195" y="1667" on="1"/>
        <pt x="129" y="1665" on="1"/>
        <pt x="127" y="1706" on="1"/>
        <pt x="165" y="1709" on="0"/>
        <pt x="249" y="1718" on="0"/>
        <pt x="289" y="1718" on="1"/>
        <pt x="332" y="1718" on="0"/>
        <pt x="409" y="1703" on="0"/>
        <pt x="467" y="1661" on="0"/>
        <pt x="502" y="1586" on="0"/>
        <pt x="502" y="1526" on="1"/>
        <pt x="502" y="1457" on="0"/>
        <pt x="476" y="1304" on="0"/>
        <pt x="446" y="1158" on="0"/>
        <pt x="420" y="1029" on="0"/>
        <pt x="420" y="983" on="1"/>
        <pt x="420" y="956" on="0"/>
        <pt x="442" y="911" on="0"/>
        <pt x="494" y="878" on="0"/>
        <pt x="580" y="860" on="0"/>
        <pt x="645" y="860" on="1"/>
      </contour>
    </TTGlyph>
    <TTGlyph name="bracketleft" xMin="143" yMin="-51" xMax="369" yMax="1741">
      <contour>
        <pt x="287" y="0" on="1"/>
        <pt x="369" y="0" on="1"/>
        <pt x="369" y="-51" on="1"/>
        <pt x="143" y="-51" on="1"/>
        <pt x="143" y="1741" on="1"/>
        <pt x="369" y="1741" on="1"/>
        <pt x="369" y="1690" on="1"/>
        <pt x="287" y="1690" on="1"/>
      </contour>
    </TTGlyph>
    <TTGlyph name="bracketright" xMin="143" yMin="-51" xMax="369" yMax="1741">
      <contour>
        <pt x="225" y="1690" on="1"/>
        <pt x="143" y="1690" on="1"/>
        <pt x="143" y="1741" on="1"/>
        <pt x="369" y="1741" on="1"/>
        <pt x="369" y="-51" on="1"/>
        <pt x="143" y="-51" on="1"/>
        <pt x="143" y="0" on="1"/>
        <pt x="225" y="0" on="1"/>
      </contour>
    </TTGlyph>
    <TTGlyph name="breve" xMin="0" yMin="963" xMax="389" yMax="1157">
      <contour>
        <pt x="195" y="963" on="1"/>
        <pt x="156" y="963" on="0"/>
        <pt x="91" y="997" on="0"/>
        <pt x="41" y="1051" on="0"/>
        <pt x="7" y="1116" on="0"/>
        <pt x="0" y="1147" on="1"/>
        <pt x="41" y="1157" on="1"/>
        <pt x="45" y="1145" on="0"/>
        <pt x="68" y="1114" on="0"/>
        <pt x="106" y="1085" on="0"/>
        <pt x="160" y="1065" on="0"/>
        <pt x="195" y="1065" on="1"/>
        <pt x="229" y="1065" on="0"/>
        <pt x="283" y="1085" on="0"/>
        <pt x="321" y="1114" on="0"/>
        <pt x="344" y="1145" on="0"/>
        <pt x="348" y="1157" on="1"/>
        <pt x="389" y="1147" on="1"/>
        <pt x="381" y="1116" on="0"/>
        <pt x="348" y="1051" on="0"/>
        <pt x="298" y="997" on="0"/>
        <pt x="233" y="963" on="0"/>
      </contour>
    </TTGlyph>
    <TTGlyph name="brokenbar" xMin="123" yMin="-51" xMax="205" yMax="1731">
      <contour>
        <pt x="205" y="717" on="1"/>
        <pt x="205" y="-51" on="1"/>
        <pt x="123" y="-51" on="1"/>
        <pt x="123" y="717" on="1"/>
      </contour>
      <contour>
        <pt x="123" y="963" on="1"/>
        <pt x="123" y="1731" on="1"/>
        <pt x="205" y="1731" on="1"/>
        <pt x="205" y="963" on="1"/>
      </contour>
    </TTGlyph>
    <TTGlyph name="bullet" xMin="123" yMin="319" xMax="451" yMax="647">
      <contour>
        <pt x="123" y="481" on="1"/>
        <pt x="123" y="515" on="0"/>
        <pt x="149" y="575" on="0"/>
        <pt x="194" y="620" on="0"/>
        <pt x="253" y="647" on="0"/>
        <pt x="287" y="647" on="1"/>
        <pt x="321" y="647" on="0"/>
        <pt x="380" y="620" on="0"/>
        <pt x="425" y="575" on="0"/>
        <pt x="451" y="515" on="0"/>
        <pt x="451" y="481" on="1"/>
        <pt x="451" y="448" on="0"/>
        <pt x="425" y="389" on="0"/>
        <pt x="380" y="345" on="0"/>
        <pt x="321" y="319" on="0"/>
        <pt x="287" y="319" on="1"/>
        <pt x="253" y="319" on="0"/>
        <pt x="194" y="345" on="0"/>
        <pt x="149" y="389" on="0"/>
        <pt x="123" y="448" on="0"/>
      </contour>
    </TTGlyph>
    <TTGlyph name="c" xMin="-14" yMin="0" xMax="680" yMax="819">
      <contour>
        <pt x="338" y="571" on="1"/>
        <pt x="350" y="590" on="0"/>
        <pt x="367" y="646" on="0"/>
        <pt x="367" y="674" on="1"/>
        <pt x="367" y="708" on="0"/>
        <pt x="333" y="758" on="0"/>
        <pt x="289" y="758" on="1"/>
        <pt x="260" y="758" on="0"/>
        <pt x="200" y="716" on="0"/>
        <pt x="149" y="632" on="0"/>
        <pt x="117" y="504" on="0"/>
        <pt x="117" y="418" on="1"/>
        <pt x="117" y="350" on="0"/>
        <pt x="145" y="238" on="0"/>
        <pt x="199" y="158" on="0"/>
        <pt x="276" y="113" on="0"/>
        <pt x="324" y="113" on="1"/>
        <pt x="359" y="113" on="0"/>
        <pt x="432" y="149" on="0"/>
        <pt x="507" y="225" on="0"/>
        <pt x="587" y="346" on="0"/>
        <pt x="629" y="430" on="1"/>
        <pt x="639" y="451" on="1"/>
        <pt x="680" y="420" on="1"/>
        <pt x="670" y="399" on="1"/>
        <pt x="616" y="292" on="0"/>
        <pt x="509" y="140" on="0"/>
        <pt x="405" y="44" on="0"/>
        <pt x="306" y="0" on="0"/>
        <pt x="260" y="0" on="1"/>
        <pt x="195" y="0" on="0"/>
        <pt x="93" y="54" on="0"/>
        <pt x="23" y="147" on="0"/>
        <pt x="-14" y="270" on="0"/>
        <pt x="-14" y="338" on="1"/>
        <pt x="-14" y="446" on="0"/>
        <pt x="45" y="623" on="0"/>
        <pt x="139" y="749" on="0"/>
        <pt x="257" y="819" on="0"/>
        <pt x="317" y="819" on="1"/>
        <pt x="363" y="819" on="0"/>
        <pt x="425" y="793" on="0"/>
        <pt x="463" y="753" on="0"/>
        <pt x="479" y="707" on="0"/>
        <pt x="479" y="686" on="1"/>
        <pt x="479" y="665" on="0"/>
        <pt x="461" y="620" on="0"/>
        <pt x="426" y="581" on="0"/>
        <pt x="378" y="550" on="0"/>
        <pt x="348" y="543" on="1"/>
      </contour>
    </TTGlyph>
    <TTGlyph name="caron" xMin="0" yMin="942" xMax="532" yMax="1178">
      <contour>
        <pt x="0" y="1137" on="1"/>
        <pt x="31" y="1178" on="1"/>
        <pt x="266" y="1055" on="1"/>
        <pt x="502" y="1178" on="1"/>
        <pt x="532" y="1137" on="1"/>
        <pt x="266" y="942" on="1"/>
      </contour>
    </TTGlyph>
    <TTGlyph name="ccedilla" xMin="-18" yMin="-297" xMax="676" yMax="819">
      <contour>
        <pt x="334" y="571" on="1"/>
        <pt x="346" y="590" on="0"/>
        <pt x="363" y="646" on="0"/>
        <pt x="363" y="674" on="1"/>
        <pt x="363" y="708" on="0"/>
        <pt x="329" y="758" on="0"/>
        <pt x="285" y="758" on="1"/>
        <pt x="256" y="758" on="0"/>
        <pt x="196" y="716" on="0"/>
        <pt x="145" y="632" on="0"/>
        <pt x="113" y="504" on="0"/>
        <pt x="113" y="418" on="1"/>
        <pt x="113" y="350" on="0"/>
        <pt x="141" y="238" on="0"/>
        <pt x="195" y="158" on="0"/>
        <pt x="272" y="113" on="0"/>
        <pt x="320" y="113" on="1"/>
        <pt x="355" y="113" on="0"/>
        <pt x="428" y="149" on="0"/>
        <pt x="503" y="225" on="0"/>
        <pt x="583" y="346" on="0"/>
        <pt x="625" y="430" on="1"/>
        <pt x="635" y="451" on="1"/>
        <pt x="676" y="420" on="1"/>
        <pt x="666" y="399" on="1"/>
        <pt x="618" y="304" on="0"/>
        <pt x="523" y="163" on="0"/>
        <pt x="431" y="67" on="0"/>
        <pt x="341" y="13" on="0"/>
        <pt x="299" y="4" on="1"/>
        <pt x="299" y="-25" on="1"/>
        <pt x="383" y="-25" on="0"/>
        <pt x="463" y="-71" on="0"/>
        <pt x="463" y="-109" on="1"/>
        <pt x="463" y="-131" on="0"/>
        <pt x="432" y="-183" on="0"/>
        <pt x="372" y="-235" on="0"/>
        <pt x="281" y="-281" on="0"/>
        <pt x="221" y="-297" on="1"/>
        <pt x="207" y="-250" on="1"/>
        <pt x="289" y="-221" on="0"/>
        <pt x="361" y="-171" on="0"/>
        <pt x="361" y="-156" on="1"/>
        <pt x="361" y="-139" on="0"/>
        <pt x="301" y="-119" on="0"/>
        <pt x="248" y="-119" on="1"/>
        <pt x="248" y="0" on="1"/>
        <pt x="185" y="2" on="0"/>
        <pt x="86" y="58" on="0"/>
        <pt x="18" y="150" on="0"/>
        <pt x="-18" y="271" on="0"/>
        <pt x="-18" y="338" on="1"/>
        <pt x="-18" y="446" on="0"/>
        <pt x="41" y="623" on="0"/>
        <pt x="135" y="749" on="0"/>
        <pt x="253" y="819" on="0"/>
        <pt x="313" y="819" on="1"/>
        <pt x="359" y="819" on="0"/>
        <pt x="421" y="793" on="0"/>
        <pt x="459" y="753" on="0"/>
        <pt x="475" y="707" on="0"/>
        <pt x="475" y="686" on="1"/>
        <pt x="475" y="665" on="0"/>
        <pt x="457" y="620" on="0"/>
        <pt x="422" y="581" on="0"/>
        <pt x="374" y="550" on="0"/>
        <pt x="344" y="543" on="1"/>
      </contour>
    </TTGlyph>
    <TTGlyph name="cedilla" xMin="0" yMin="-297" xMax="256" yMax="12">
      <contour>
        <pt x="41" y="12" on="1"/>
        <pt x="92" y="12" on="1"/>
        <pt x="92" y="-25" on="1"/>
        <pt x="176" y="-25" on="0"/>
        <pt x="256" y="-71" on="0"/>
        <pt x="256" y="-109" on="1"/>
        <pt x="256" y="-131" on="0"/>
        <pt x="225" y="-183" on="0"/>
        <pt x="165" y="-235" on="0"/>
        <pt x="74" y="-281" on="0"/>
        <pt x="14" y="-297" on="1"/>
        <pt x="0" y="-250" on="1"/>
        <pt x="82" y="-221" on="0"/>
        <pt x="154" y="-171" on="0"/>
        <pt x="154" y="-156" on="1"/>
        <pt x="154" y="-139" on="0"/>
        <pt x="94" y="-119" on="0"/>
        <pt x="41" y="-119" on="1"/>
      </contour>
    </TTGlyph>
</ttFont>
